<ttFont>
    <TTGlyph name="A" xMin="0" yMin="0" xMax="656" yMax="700">
      <contour>
        <pt x="169" y="660" on="1"/>
        <pt x="169" y="700" on="1"/>
        <pt x="407" y="700" on="1"/>
        <pt x="606" y="40" on="1"/>
        <pt x="656" y="40" on="1"/>
        <pt x="656" y="0" on="1"/>
        <pt x="398" y="0" on="1"/>
        <pt x="398" y="40" on="1"/>
        <pt x="456" y="40" on="1"/>
        <pt x="419" y="163" on="1"/>
        <pt x="147" y="163" on="1"/>
        <pt x="111" y="40" on="1"/>
        <pt x="169" y="40" on="1"/>
        <pt x="169" y="0" on="1"/>
        <pt x="0" y="0" on="1"/>
        <pt x="0" y="40" on="1"/>
        <pt x="50" y="40" on="1"/>
        <pt x="237" y="660" on="1"/>
      </contour>
      <contour>
        <pt x="282" y="617" on="1"/>
        <pt x="161" y="208" on="1"/>
        <pt x="405" y="208" on="1"/>
      </contour>
    </TTGlyph>
    <TTGlyph name="AE" xMin="-20" yMin="0" xMax="862" yMax="700">
      <contour>
        <pt x="-20" y="0" on="1"/>
        <pt x="-20" y="40" on="1"/>
        <pt x="32" y="40" on="1"/>
        <pt x="245" y="660" on="1"/>
        <pt x="178" y="660" on="1"/>
        <pt x="178" y="700" on="1"/>
        <pt x="781" y="700" on="1"/>
        <pt x="803" y="700" on="0"/>
        <pt x="824" y="697" on="0"/>
        <pt x="842" y="678" on="0"/>
        <pt x="842" y="658" on="1"/>
        <pt x="815" y="490" on="1"/>
        <pt x="776" y="490" on="1"/>
        <pt x="756" y="589" on="1"/>
        <pt x="747" y="634" on="0"/>
        <pt x="698" y="660" on="0"/>
        <pt x="632" y="660" on="1"/>
        <pt x="562" y="660" on="1"/>
        <pt x="562" y="318" on="1"/>
        <pt x="792" y="318" on="1"/>
        <pt x="792" y="273" on="1"/>
        <pt x="562" y="273" on="1"/>
        <pt x="562" y="40" on="1"/>
        <pt x="652" y="40" on="1"/>
        <pt x="717" y="40" on="0"/>
        <pt x="766" y="66" on="0"/>
        <pt x="776" y="111" on="1"/>
        <pt x="796" y="200" on="1"/>
        <pt x="835" y="200" on="1"/>
        <pt x="862" y="42" on="1"/>
        <pt x="862" y="22" on="0"/>
        <pt x="844" y="3" on="0"/>
        <pt x="823" y="0" on="0"/>
        <pt x="801" y="0" on="1"/>
        <pt x="352" y="0" on="1"/>
        <pt x="352" y="40" on="1"/>
        <pt x="412" y="40" on="1"/>
        <pt x="412" y="273" on="1"/>
        <pt x="172" y="273" on="1"/>
        <pt x="92" y="40" on="1"/>
        <pt x="149" y="40" on="1"/>
        <pt x="149" y="0" on="1"/>
      </contour>
      <contour>
        <pt x="412" y="318" on="1"/>
        <pt x="412" y="660" on="1"/>
        <pt x="303" y="660" on="1"/>
        <pt x="187" y="318" on="1"/>
      </contour>
    </TTGlyph>
    <TTGlyph name="AEacute" xMin="-20" yMin="0" xMax="862" yMax="965">
      <contour>
        <pt x="-20" y="0" on="1"/>
        <pt x="-20" y="40" on="1"/>
        <pt x="32" y="40" on="1"/>
        <pt x="245" y="660" on="1"/>
        <pt x="178" y="660" on="1"/>
        <pt x="178" y="700" on="1"/>
        <pt x="781" y="700" on="1"/>
        <pt x="803" y="700" on="0"/>
        <pt x="824" y="697" on="0"/>
        <pt x="842" y="678" on="0"/>
        <pt x="842" y="658" on="1"/>
        <pt x="815" y="490" on="1"/>
        <pt x="776" y="490" on="1"/>
        <pt x="756" y="589" on="1"/>
        <pt x="747" y="634" on="0"/>
        <pt x="698" y="660" on="0"/>
        <pt x="632" y="660" on="1"/>
        <pt x="562" y="660" on="1"/>
        <pt x="562" y="318" on="1"/>
        <pt x="792" y="318" on="1"/>
        <pt x="792" y="273" on="1"/>
        <pt x="562" y="273" on="1"/>
        <pt x="562" y="40" on="1"/>
        <pt x="652" y="40" on="1"/>
        <pt x="717" y="40" on="0"/>
        <pt x="766" y="66" on="0"/>
        <pt x="776" y="111" on="1"/>
        <pt x="796" y="200" on="1"/>
        <pt x="835" y="200" on="1"/>
        <pt x="862" y="42" on="1"/>
        <pt x="862" y="22" on="0"/>
        <pt x="844" y="3" on="0"/>
        <pt x="823" y="0" on="0"/>
        <pt x="801" y="0" on="1"/>
        <pt x="352" y="0" on="1"/>
        <pt x="352" y="40" on="1"/>
        <pt x="412" y="40" on="1"/>
        <pt x="412" y="273" on="1"/>
        <pt x="172" y="273" on="1"/>
        <pt x="92" y="40" on="1"/>
        <pt x="149" y="40" on="1"/>
        <pt x="149" y="0" on="1"/>
      </contour>
      <contour>
        <pt x="412" y="318" on="1"/>
        <pt x="412" y="660" on="1"/>
        <pt x="303" y="660" on="1"/>
        <pt x="187" y="318" on="1"/>
      </contour>
      <contour>
        <pt x="558" y="951" on="0"/>
        <pt x="585" y="965" on="0"/>
        <pt x="624" y="965" on="0"/>
        <pt x="657" y="936" on="0"/>
        <pt x="657" y="890" on="0"/>
        <pt x="621" y="855" on="0"/>
        <pt x="574" y="832" on="1"/>
        <pt x="426" y="759" on="1"/>
        <pt x="405" y="783" on="1"/>
        <pt x="524" y="915" on="1"/>
        <pt x="541" y="934" on="0"/>
      </contour>
    </TTGlyph>
    <TTGlyph name="Aacute" xMin="0" yMin="0" xMax="656" yMax="965">
      <contour>
        <pt x="169" y="660" on="1"/>
        <pt x="169" y="700" on="1"/>
        <pt x="407" y="700" on="1"/>
        <pt x="606" y="40" on="1"/>
        <pt x="656" y="40" on="1"/>
        <pt x="656" y="0" on="1"/>
        <pt x="398" y="0" on="1"/>
        <pt x="398" y="40" on="1"/>
        <pt x="456" y="40" on="1"/>
        <pt x="419" y="163" on="1"/>
        <pt x="147" y="163" on="1"/>
        <pt x="111" y="40" on="1"/>
        <pt x="169" y="40" on="1"/>
        <pt x="169" y="0" on="1"/>
        <pt x="0" y="0" on="1"/>
        <pt x="0" y="40" on="1"/>
        <pt x="50" y="40" on="1"/>
        <pt x="237" y="660" on="1"/>
      </contour>
      <contour>
        <pt x="282" y="617" on="1"/>
        <pt x="161" y="208" on="1"/>
        <pt x="405" y="208" on="1"/>
      </contour>
      <contour>
        <pt x="366" y="951" on="0"/>
        <pt x="393" y="965" on="0"/>
        <pt x="432" y="965" on="0"/>
        <pt x="465" y="936" on="0"/>
        <pt x="465" y="890" on="0"/>
        <pt x="429" y="855" on="0"/>
        <pt x="382" y="832" on="1"/>
        <pt x="234" y="759" on="1"/>
        <pt x="213" y="783" on="1"/>
        <pt x="332" y="915" on="1"/>
        <pt x="349" y="934" on="0"/>
      </contour>
    </TTGlyph>
    <TTGlyph name="Abreve" xMin="0" yMin="0" xMax="656" yMax="960">
      <contour>
        <pt x="169" y="660" on="1"/>
        <pt x="169" y="700" on="1"/>
        <pt x="407" y="700" on="1"/>
        <pt x="606" y="40" on="1"/>
        <pt x="656" y="40" on="1"/>
        <pt x="656" y="0" on="1"/>
        <pt x="398" y="0" on="1"/>
        <pt x="398" y="40" on="1"/>
        <pt x="456" y="40" on="1"/>
        <pt x="419" y="163" on="1"/>
        <pt x="147" y="163" on="1"/>
        <pt x="111" y="40" on="1"/>
        <pt x="169" y="40" on="1"/>
        <pt x="169" y="0" on="1"/>
        <pt x="0" y="0" on="1"/>
        <pt x="0" y="40" on="1"/>
        <pt x="50" y="40" on="1"/>
        <pt x="237" y="660" on="1"/>
      </contour>
      <contour>
        <pt x="282" y="617" on="1"/>
        <pt x="161" y="208" on="1"/>
        <pt x="405" y="208" on="1"/>
      </contour>
      <contour>
        <pt x="288" y="878" on="1"/>
        <pt x="307" y="870" on="0"/>
        <pt x="354" y="870" on="0"/>
        <pt x="407" y="906" on="0"/>
        <pt x="431" y="935" on="0"/>
        <pt x="449" y="960" on="1"/>
        <pt x="494" y="931" on="1"/>
        <pt x="444" y="840" on="0"/>
        <pt x="370" y="769" on="0"/>
        <pt x="286" y="769" on="0"/>
        <pt x="212" y="840" on="0"/>
        <pt x="162" y="931" on="1"/>
        <pt x="206" y="960" on="1"/>
        <pt x="255" y="893" on="0"/>
      </contour>
    </TTGlyph>
    <TTGlyph name="Acircumflex" xMin="0" yMin="0" xMax="656" yMax="965">
      <contour>
        <pt x="169" y="660" on="1"/>
        <pt x="169" y="700" on="1"/>
        <pt x="407" y="700" on="1"/>
        <pt x="606" y="40" on="1"/>
        <pt x="656" y="40" on="1"/>
        <pt x="656" y="0" on="1"/>
        <pt x="398" y="0" on="1"/>
        <pt x="398" y="40" on="1"/>
        <pt x="456" y="40" on="1"/>
        <pt x="419" y="163" on="1"/>
        <pt x="147" y="163" on="1"/>
        <pt x="111" y="40" on="1"/>
        <pt x="169" y="40" on="1"/>
        <pt x="169" y="0" on="1"/>
        <pt x="0" y="0" on="1"/>
        <pt x="0" y="40" on="1"/>
        <pt x="50" y="40" on="1"/>
        <pt x="237" y="660" on="1"/>
      </contour>
      <contour>
        <pt x="282" y="617" on="1"/>
        <pt x="161" y="208" on="1"/>
        <pt x="405" y="208" on="1"/>
      </contour>
      <contour>
        <pt x="278" y="965" on="0"/>
        <pt x="338" y="965" on="0"/>
        <pt x="366" y="927" on="1"/>
        <pt x="474" y="783" on="1"/>
        <pt x="453" y="759" on="1"/>
        <pt x="312" y="854" on="1"/>
        <pt x="304" y="854" on="1"/>
        <pt x="163" y="759" on="1"/>
        <pt x="142" y="783" on="1"/>
        <pt x="250" y="927" on="1"/>
      </contour>
    </TTGlyph>
    <TTGlyph name="Adieresis" xMin="0" yMin="0" xMax="656" yMax="946">
      <contour>
        <pt x="169" y="660" on="1"/>
        <pt x="169" y="700" on="1"/>
        <pt x="407" y="700" on="1"/>
        <pt x="606" y="40" on="1"/>
        <pt x="656" y="40" on="1"/>
        <pt x="656" y="0" on="1"/>
        <pt x="398" y="0" on="1"/>
        <pt x="398" y="40" on="1"/>
        <pt x="456" y="40" on="1"/>
        <pt x="419" y="163" on="1"/>
        <pt x="147" y="163" on="1"/>
        <pt x="111" y="40" on="1"/>
        <pt x="169" y="40" on="1"/>
        <pt x="169" y="0" on="1"/>
        <pt x="0" y="0" on="1"/>
        <pt x="0" y="40" on="1"/>
        <pt x="50" y="40" on="1"/>
        <pt x="237" y="660" on="1"/>
      </contour>
      <contour>
        <pt x="282" y="617" on="1"/>
        <pt x="161" y="208" on="1"/>
        <pt x="405" y="208" on="1"/>
      </contour>
      <contour>
        <pt x="128" y="838" on="0"/>
        <pt x="128" y="902" on="0"/>
        <pt x="172" y="946" on="0"/>
        <pt x="236" y="946" on="0"/>
        <pt x="280" y="902" on="0"/>
        <pt x="280" y="838" on="0"/>
        <pt x="236" y="794" on="0"/>
        <pt x="172" y="794" on="0"/>
      </contour>
      <contour>
        <pt x="358" y="838" on="0"/>
        <pt x="358" y="902" on="0"/>
        <pt x="402" y="946" on="0"/>
        <pt x="466" y="946" on="0"/>
        <pt x="510" y="902" on="0"/>
        <pt x="510" y="838" on="0"/>
        <pt x="466" y="794" on="0"/>
        <pt x="402" y="794" on="0"/>
      </contour>
    </TTGlyph>
    <TTGlyph name="Agrave" xMin="0" yMin="0" xMax="656" yMax="965">
      <contour>
        <pt x="169" y="660" on="1"/>
        <pt x="169" y="700" on="1"/>
        <pt x="407" y="700" on="1"/>
        <pt x="606" y="40" on="1"/>
        <pt x="656" y="40" on="1"/>
        <pt x="656" y="0" on="1"/>
        <pt x="398" y="0" on="1"/>
        <pt x="398" y="40" on="1"/>
        <pt x="456" y="40" on="1"/>
        <pt x="419" y="163" on="1"/>
        <pt x="147" y="163" on="1"/>
        <pt x="111" y="40" on="1"/>
        <pt x="169" y="40" on="1"/>
        <pt x="169" y="0" on="1"/>
        <pt x="0" y="0" on="1"/>
        <pt x="0" y="40" on="1"/>
        <pt x="50" y="40" on="1"/>
        <pt x="237" y="660" on="1"/>
      </contour>
      <contour>
        <pt x="282" y="617" on="1"/>
        <pt x="161" y="208" on="1"/>
        <pt x="405" y="208" on="1"/>
      </contour>
      <contour>
        <pt x="182" y="936" on="0"/>
        <pt x="215" y="965" on="0"/>
        <pt x="254" y="965" on="0"/>
        <pt x="281" y="951" on="0"/>
        <pt x="298" y="934" on="0"/>
        <pt x="315" y="915" on="1"/>
        <pt x="434" y="783" on="1"/>
        <pt x="413" y="759" on="1"/>
        <pt x="265" y="832" on="1"/>
        <pt x="218" y="855" on="0"/>
        <pt x="182" y="890" on="0"/>
      </contour>
    </TTGlyph>
    <TTGlyph name="Amacron" xMin="0" yMin="0" xMax="656" yMax="900">
      <contour>
        <pt x="169" y="660" on="1"/>
        <pt x="169" y="700" on="1"/>
        <pt x="407" y="700" on="1"/>
        <pt x="606" y="40" on="1"/>
        <pt x="656" y="40" on="1"/>
        <pt x="656" y="0" on="1"/>
        <pt x="398" y="0" on="1"/>
        <pt x="398" y="40" on="1"/>
        <pt x="456" y="40" on="1"/>
        <pt x="419" y="163" on="1"/>
        <pt x="147" y="163" on="1"/>
        <pt x="111" y="40" on="1"/>
        <pt x="169" y="40" on="1"/>
        <pt x="169" y="0" on="1"/>
        <pt x="0" y="0" on="1"/>
        <pt x="0" y="40" on="1"/>
        <pt x="50" y="40" on="1"/>
        <pt x="237" y="660" on="1"/>
      </contour>
      <contour>
        <pt x="282" y="617" on="1"/>
        <pt x="161" y="208" on="1"/>
        <pt x="405" y="208" on="1"/>
      </contour>
      <contour>
        <pt x="181" y="900" on="1"/>
        <pt x="475" y="900" on="1"/>
        <pt x="475" y="812" on="1"/>
        <pt x="181" y="812" on="1"/>
      </contour>
    </TTGlyph>
    <TTGlyph name="Aogonek" xMin="0" yMin="-238" xMax="680" yMax="700">
      <contour>
        <pt x="398" y="0" on="1"/>
        <pt x="398" y="40" on="1"/>
        <pt x="456" y="40" on="1"/>
        <pt x="419" y="163" on="1"/>
        <pt x="147" y="163" on="1"/>
        <pt x="111" y="40" on="1"/>
        <pt x="169" y="40" on="1"/>
        <pt x="169" y="0" on="1"/>
        <pt x="0" y="0" on="1"/>
        <pt x="0" y="40" on="1"/>
        <pt x="50" y="40" on="1"/>
        <pt x="237" y="660" on="1"/>
        <pt x="169" y="660" on="1"/>
        <pt x="169" y="700" on="1"/>
        <pt x="407" y="700" on="1"/>
        <pt x="606" y="40" on="1"/>
        <pt x="656" y="40" on="1"/>
        <pt x="656" y="0" on="1"/>
        <pt x="608" y="0" on="1"/>
        <pt x="600" y="-8" on="1"/>
        <pt x="562" y="-46" on="0"/>
        <pt x="538" y="-95" on="0"/>
        <pt x="538" y="-150" on="0"/>
        <pt x="571" y="-179" on="0"/>
        <pt x="633" y="-179" on="0"/>
        <pt x="663" y="-151" on="1"/>
        <pt x="680" y="-180" on="1"/>
        <pt x="632" y="-238" on="0"/>
        <pt x="556" y="-238" on="1"/>
        <pt x="509" y="-238" on="0"/>
        <pt x="447" y="-191" on="0"/>
        <pt x="447" y="-143" on="1"/>
        <pt x="447" y="-119" on="0"/>
        <pt x="477" y="-70" on="0"/>
        <pt x="507" y="-43" on="0"/>
        <pt x="534" y="-21" on="1"/>
        <pt x="560" y="0" on="1"/>
      </contour>
      <contour>
        <pt x="282" y="617" on="1"/>
        <pt x="161" y="208" on="1"/>
        <pt x="405" y="208" on="1"/>
      </contour>
    </TTGlyph>
    <TTGlyph name="Aring" xMin="0" yMin="0" xMax="656" yMax="987">
      <contour>
        <pt x="169" y="660" on="1"/>
        <pt x="169" y="700" on="1"/>
        <pt x="407" y="700" on="1"/>
        <pt x="606" y="40" on="1"/>
        <pt x="656" y="40" on="1"/>
        <pt x="656" y="0" on="1"/>
        <pt x="398" y="0" on="1"/>
        <pt x="398" y="40" on="1"/>
        <pt x="456" y="40" on="1"/>
        <pt x="419" y="163" on="1"/>
        <pt x="147" y="163" on="1"/>
        <pt x="111" y="40" on="1"/>
        <pt x="169" y="40" on="1"/>
        <pt x="169" y="0" on="1"/>
        <pt x="0" y="0" on="1"/>
        <pt x="0" y="40" on="1"/>
        <pt x="50" y="40" on="1"/>
        <pt x="237" y="660" on="1"/>
      </contour>
      <contour>
        <pt x="282" y="617" on="1"/>
        <pt x="161" y="208" on="1"/>
        <pt x="405" y="208" on="1"/>
      </contour>
      <contour>
        <pt x="253" y="753" on="0"/>
        <pt x="179" y="817" on="0"/>
        <pt x="179" y="922" on="0"/>
        <pt x="253" y="987" on="0"/>
        <pt x="363" y="987" on="0"/>
        <pt x="437" y="922" on="0"/>
        <pt x="437" y="817" on="0"/>
        <pt x="363" y="753" on="0"/>
      </contour>
      <contour>
        <pt x="263" y="952" on="0"/>
        <pt x="263" y="786" on="0"/>
        <pt x="352" y="786" on="0"/>
        <pt x="352" y="952" on="0"/>
      </contour>
    </TTGlyph>
    <TTGlyph name="Aringacute" xMin="0" yMin="0" xMax="656" yMax="1071">
      <contour>
        <pt x="169" y="660" on="1"/>
        <pt x="169" y="700" on="1"/>
        <pt x="407" y="700" on="1"/>
        <pt x="606" y="40" on="1"/>
        <pt x="656" y="40" on="1"/>
        <pt x="656" y="0" on="1"/>
        <pt x="398" y="0" on="1"/>
        <pt x="398" y="40" on="1"/>
        <pt x="456" y="40" on="1"/>
        <pt x="419" y="163" on="1"/>
        <pt x="147" y="163" on="1"/>
        <pt x="111" y="40" on="1"/>
        <pt x="169" y="40" on="1"/>
        <pt x="169" y="0" on="1"/>
        <pt x="0" y="0" on="1"/>
        <pt x="0" y="40" on="1"/>
        <pt x="50" y="40" on="1"/>
        <pt x="237" y="660" on="1"/>
      </contour>
      <contour>
        <pt x="282" y="617" on="1"/>
        <pt x="161" y="208" on="1"/>
        <pt x="405" y="208" on="1"/>
      </contour>
      <contour>
        <pt x="269" y="753" on="0"/>
        <pt x="195" y="817" on="0"/>
        <pt x="195" y="922" on="0"/>
        <pt x="269" y="987" on="0"/>
        <pt x="371" y="987" on="0"/>
        <pt x="400" y="965" on="1"/>
        <pt x="425" y="1013" on="1"/>
        <pt x="442" y="1046" on="0"/>
        <pt x="468" y="1071" on="0"/>
        <pt x="506" y="1071" on="0"/>
        <pt x="533" y="1049" on="0"/>
        <pt x="533" y="1013" on="0"/>
        <pt x="508" y="981" on="0"/>
        <pt x="473" y="959" on="1"/>
        <pt x="434" y="934" on="1"/>
        <pt x="453" y="905" on="0"/>
        <pt x="453" y="870" on="1"/>
        <pt x="453" y="817" on="0"/>
        <pt x="379" y="753" on="0"/>
      </contour>
      <contour>
        <pt x="279" y="952" on="0"/>
        <pt x="279" y="786" on="0"/>
        <pt x="368" y="786" on="0"/>
        <pt x="368" y="952" on="0"/>
      </contour>
    </TTGlyph>
    <TTGlyph name="Atilde" xMin="0" yMin="0" xMax="656" yMax="962">
      <contour>
        <pt x="169" y="660" on="1"/>
        <pt x="169" y="700" on="1"/>
        <pt x="407" y="700" on="1"/>
        <pt x="606" y="40" on="1"/>
        <pt x="656" y="40" on="1"/>
        <pt x="656" y="0" on="1"/>
        <pt x="398" y="0" on="1"/>
        <pt x="398" y="40" on="1"/>
        <pt x="456" y="40" on="1"/>
        <pt x="419" y="163" on="1"/>
        <pt x="147" y="163" on="1"/>
        <pt x="111" y="40" on="1"/>
        <pt x="169" y="40" on="1"/>
        <pt x="169" y="0" on="1"/>
        <pt x="0" y="0" on="1"/>
        <pt x="0" y="40" on="1"/>
        <pt x="50" y="40" on="1"/>
        <pt x="237" y="660" on="1"/>
      </contour>
      <contour>
        <pt x="282" y="617" on="1"/>
        <pt x="161" y="208" on="1"/>
        <pt x="405" y="208" on="1"/>
      </contour>
      <contour>
        <pt x="452" y="809" on="1"/>
        <pt x="452" y="824" on="1"/>
        <pt x="452" y="863" on="0"/>
        <pt x="424" y="863" on="1"/>
        <pt x="412" y="863" on="0"/>
        <pt x="401" y="856" on="1"/>
        <pt x="316" y="808" on="1"/>
        <pt x="284" y="789" on="0"/>
        <pt x="228" y="789" on="0"/>
        <pt x="183" y="841" on="0"/>
        <pt x="183" y="910" on="0"/>
        <pt x="191" y="942" on="1"/>
        <pt x="227" y="942" on="1"/>
        <pt x="227" y="927" on="1"/>
        <pt x="227" y="888" on="0"/>
        <pt x="255" y="888" on="1"/>
        <pt x="267" y="888" on="0"/>
        <pt x="278" y="895" on="1"/>
        <pt x="363" y="943" on="1"/>
        <pt x="395" y="962" on="0"/>
        <pt x="451" y="962" on="0"/>
        <pt x="496" y="910" on="0"/>
        <pt x="496" y="841" on="0"/>
        <pt x="488" y="809" on="1"/>
      </contour>
    </TTGlyph>
    <TTGlyph name="B" xMin="70" yMin="0" xMax="653" yMax="700">
      <contour>
        <pt x="70" y="660" on="1"/>
        <pt x="70" y="700" on="1"/>
        <pt x="310" y="700" on="1"/>
        <pt x="623" y="700" on="0"/>
        <pt x="623" y="510" on="1"/>
        <pt x="623" y="378" on="0"/>
        <pt x="468" y="338" on="1"/>
        <pt x="468" y="331" on="1"/>
        <pt x="653" y="303" on="0"/>
        <pt x="653" y="179" on="1"/>
        <pt x="653" y="89" on="0"/>
        <pt x="489" y="0" on="0"/>
        <pt x="340" y="0" on="1"/>
        <pt x="70" y="0" on="1"/>
        <pt x="70" y="40" on="1"/>
        <pt x="130" y="40" on="1"/>
        <pt x="130" y="660" on="1"/>
      </contour>
      <contour>
        <pt x="330" y="313" on="1"/>
        <pt x="280" y="313" on="1"/>
        <pt x="280" y="40" on="1"/>
        <pt x="330" y="40" on="1"/>
        <pt x="402" y="40" on="0"/>
        <pt x="498" y="112" on="0"/>
        <pt x="498" y="241" on="0"/>
        <pt x="402" y="313" on="0"/>
      </contour>
      <contour>
        <pt x="309" y="660" on="1"/>
        <pt x="280" y="660" on="1"/>
        <pt x="280" y="351" on="1"/>
        <pt x="309" y="351" on="1"/>
        <pt x="380" y="351" on="0"/>
        <pt x="473" y="435" on="0"/>
        <pt x="473" y="581" on="0"/>
        <pt x="380" y="660" on="0"/>
      </contour>
    </TTGlyph>
    <TTGlyph name="C" xMin="50" yMin="-15" xMax="625" yMax="715">
      <contour>
        <pt x="382" y="668" on="1"/>
        <pt x="295" y="668" on="0"/>
        <pt x="205" y="489" on="0"/>
        <pt x="205" y="221" on="0"/>
        <pt x="300" y="51" on="0"/>
        <pt x="389" y="51" on="1"/>
        <pt x="439" y="51" on="0"/>
        <pt x="523" y="93" on="0"/>
        <pt x="566" y="139" on="0"/>
        <pt x="590" y="174" on="1"/>
        <pt x="625" y="149" on="1"/>
        <pt x="577" y="72" on="0"/>
        <pt x="458" y="-15" on="0"/>
        <pt x="365" y="-15" on="1"/>
        <pt x="226" y="-15" on="0"/>
        <pt x="50" y="195" on="0"/>
        <pt x="50" y="507" on="0"/>
        <pt x="226" y="715" on="0"/>
        <pt x="382" y="715" on="1"/>
        <pt x="463" y="715" on="0"/>
        <pt x="613" y="651" on="0"/>
        <pt x="613" y="607" on="1"/>
        <pt x="613" y="590" on="0"/>
        <pt x="602" y="568" on="1"/>
        <pt x="542" y="452" on="1"/>
        <pt x="506" y="463" on="1"/>
        <pt x="515" y="525" on="1"/>
        <pt x="519" y="549" on="0"/>
        <pt x="519" y="571" on="1"/>
        <pt x="519" y="610" on="0"/>
        <pt x="443" y="668" on="0"/>
      </contour>
    </TTGlyph>
    <TTGlyph name="Cacute" xMin="50" yMin="-15" xMax="625" yMax="965">
      <contour>
        <pt x="382" y="668" on="1"/>
        <pt x="295" y="668" on="0"/>
        <pt x="205" y="489" on="0"/>
        <pt x="205" y="221" on="0"/>
        <pt x="300" y="51" on="0"/>
        <pt x="389" y="51" on="1"/>
        <pt x="439" y="51" on="0"/>
        <pt x="523" y="93" on="0"/>
        <pt x="566" y="139" on="0"/>
        <pt x="590" y="174" on="1"/>
        <pt x="625" y="149" on="1"/>
        <pt x="577" y="72" on="0"/>
        <pt x="458" y="-15" on="0"/>
        <pt x="365" y="-15" on="1"/>
        <pt x="226" y="-15" on="0"/>
        <pt x="50" y="195" on="0"/>
        <pt x="50" y="507" on="0"/>
        <pt x="226" y="715" on="0"/>
        <pt x="382" y="715" on="1"/>
        <pt x="463" y="715" on="0"/>
        <pt x="613" y="651" on="0"/>
        <pt x="613" y="607" on="1"/>
        <pt x="613" y="590" on="0"/>
        <pt x="602" y="568" on="1"/>
        <pt x="542" y="452" on="1"/>
        <pt x="506" y="463" on="1"/>
        <pt x="515" y="525" on="1"/>
        <pt x="519" y="549" on="0"/>
        <pt x="519" y="571" on="1"/>
        <pt x="519" y="610" on="0"/>
        <pt x="443" y="668" on="0"/>
      </contour>
      <contour>
        <pt x="402" y="951" on="0"/>
        <pt x="429" y="965" on="0"/>
        <pt x="468" y="965" on="0"/>
        <pt x="501" y="936" on="0"/>
        <pt x="501" y="890" on="0"/>
        <pt x="465" y="855" on="0"/>
        <pt x="418" y="832" on="1"/>
        <pt x="270" y="759" on="1"/>
        <pt x="249" y="783" on="1"/>
        <pt x="368" y="915" on="1"/>
        <pt x="385" y="934" on="0"/>
      </contour>
    </TTGlyph>
    <TTGlyph name="Ccaron" xMin="50" yMin="-15" xMax="625" yMax="965">
      <contour>
        <pt x="382" y="668" on="1"/>
        <pt x="295" y="668" on="0"/>
        <pt x="205" y="489" on="0"/>
        <pt x="205" y="221" on="0"/>
        <pt x="300" y="51" on="0"/>
        <pt x="389" y="51" on="1"/>
        <pt x="439" y="51" on="0"/>
        <pt x="523" y="93" on="0"/>
        <pt x="566" y="139" on="0"/>
        <pt x="590" y="174" on="1"/>
        <pt x="625" y="149" on="1"/>
        <pt x="577" y="72" on="0"/>
        <pt x="458" y="-15" on="0"/>
        <pt x="365" y="-15" on="1"/>
        <pt x="226" y="-15" on="0"/>
        <pt x="50" y="195" on="0"/>
        <pt x="50" y="507" on="0"/>
        <pt x="226" y="715" on="0"/>
        <pt x="382" y="715" on="1"/>
        <pt x="463" y="715" on="0"/>
        <pt x="613" y="651" on="0"/>
        <pt x="613" y="607" on="1"/>
        <pt x="613" y="590" on="0"/>
        <pt x="602" y="568" on="1"/>
        <pt x="542" y="452" on="1"/>
        <pt x="506" y="463" on="1"/>
        <pt x="515" y="525" on="1"/>
        <pt x="519" y="549" on="0"/>
        <pt x="519" y="571" on="1"/>
        <pt x="519" y="610" on="0"/>
        <pt x="443" y="668" on="0"/>
      </contour>
      <contour>
        <pt x="405" y="759" on="0"/>
        <pt x="345" y="759" on="0"/>
        <pt x="317" y="797" on="1"/>
        <pt x="209" y="941" on="1"/>
        <pt x="230" y="965" on="1"/>
        <pt x="371" y="870" on="1"/>
        <pt x="379" y="870" on="1"/>
        <pt x="520" y="965" on="1"/>
        <pt x="541" y="941" on="1"/>
        <pt x="433" y="797" on="1"/>
      </contour>
    </TTGlyph>
    <TTGlyph name="Ccedilla" xMin="50" yMin="-265" xMax="625" yMax="715">
      <contour>
        <pt x="382" y="668" on="1"/>
        <pt x="295" y="668" on="0"/>
        <pt x="205" y="489" on="0"/>
        <pt x="205" y="221" on="0"/>
        <pt x="300" y="51" on="0"/>
        <pt x="389" y="51" on="1"/>
        <pt x="439" y="51" on="0"/>
        <pt x="523" y="93" on="0"/>
        <pt x="566" y="139" on="0"/>
        <pt x="590" y="174" on="1"/>
        <pt x="625" y="149" on="1"/>
        <pt x="577" y="72" on="0"/>
        <pt x="458" y="-15" on="0"/>
        <pt x="365" y="-15" on="1"/>
        <pt x="351" y="-15" on="0"/>
        <pt x="345" y="-14" on="1"/>
        <pt x="314" y="-77" on="1"/>
        <pt x="331" y="-70" on="0"/>
        <pt x="355" y="-70" on="1"/>
        <pt x="402" y="-70" on="0"/>
        <pt x="460" y="-124" on="0"/>
        <pt x="460" y="-206" on="0"/>
        <pt x="391" y="-265" on="0"/>
        <pt x="293" y="-265" on="0"/>
        <pt x="230" y="-229" on="0"/>
        <pt x="230" y="-196" on="1"/>
        <pt x="230" y="-179" on="0"/>
        <pt x="254" y="-155" on="0"/>
        <pt x="287" y="-155" on="0"/>
        <pt x="312" y="-180" on="0"/>
        <pt x="312" y="-218" on="0"/>
        <pt x="294" y="-231" on="1"/>
        <pt x="302" y="-233" on="0"/>
        <pt x="309" y="-233" on="1"/>
        <pt x="338" y="-233" on="0"/>
        <pt x="373" y="-197" on="0"/>
        <pt x="373" y="-148" on="0"/>
        <pt x="335" y="-110" on="0"/>
        <pt x="300" y="-110" on="1"/>
        <pt x="278" y="-93" on="1"/>
        <pt x="316" y="-11" on="1"/>
        <pt x="197" y="8" on="0"/>
        <pt x="50" y="210" on="0"/>
        <pt x="50" y="507" on="0"/>
        <pt x="226" y="715" on="0"/>
        <pt x="382" y="715" on="1"/>
        <pt x="463" y="715" on="0"/>
        <pt x="613" y="651" on="0"/>
        <pt x="613" y="607" on="1"/>
        <pt x="613" y="590" on="0"/>
        <pt x="602" y="568" on="1"/>
        <pt x="542" y="452" on="1"/>
        <pt x="506" y="463" on="1"/>
        <pt x="515" y="525" on="1"/>
        <pt x="519" y="549" on="0"/>
        <pt x="519" y="571" on="1"/>
        <pt x="519" y="610" on="0"/>
        <pt x="443" y="668" on="0"/>
      </contour>
    </TTGlyph>
    <TTGlyph name="Ccircumflex" xMin="50" yMin="-15" xMax="625" yMax="965">
      <contour>
        <pt x="382" y="668" on="1"/>
        <pt x="295" y="668" on="0"/>
        <pt x="205" y="489" on="0"/>
        <pt x="205" y="221" on="0"/>
        <pt x="300" y="51" on="0"/>
        <pt x="389" y="51" on="1"/>
        <pt x="439" y="51" on="0"/>
        <pt x="523" y="93" on="0"/>
        <pt x="566" y="139" on="0"/>
        <pt x="590" y="174" on="1"/>
        <pt x="625" y="149" on="1"/>
        <pt x="577" y="72" on="0"/>
        <pt x="458" y="-15" on="0"/>
        <pt x="365" y="-15" on="1"/>
        <pt x="226" y="-15" on="0"/>
        <pt x="50" y="195" on="0"/>
        <pt x="50" y="507" on="0"/>
        <pt x="226" y="715" on="0"/>
        <pt x="382" y="715" on="1"/>
        <pt x="463" y="715" on="0"/>
        <pt x="613" y="651" on="0"/>
        <pt x="613" y="607" on="1"/>
        <pt x="613" y="590" on="0"/>
        <pt x="602" y="568" on="1"/>
        <pt x="542" y="452" on="1"/>
        <pt x="506" y="463" on="1"/>
        <pt x="515" y="525" on="1"/>
        <pt x="519" y="549" on="0"/>
        <pt x="519" y="571" on="1"/>
        <pt x="519" y="610" on="0"/>
        <pt x="443" y="668" on="0"/>
      </contour>
      <contour>
        <pt x="345" y="965" on="0"/>
        <pt x="405" y="965" on="0"/>
        <pt x="433" y="927" on="1"/>
        <pt x="541" y="783" on="1"/>
        <pt x="520" y="759" on="1"/>
        <pt x="379" y="854" on="1"/>
        <pt x="371" y="854" on="1"/>
        <pt x="230" y="759" on="1"/>
        <pt x="209" y="783" on="1"/>
        <pt x="317" y="927" on="1"/>
      </contour>
    </TTGlyph>
    <TTGlyph name="Cdotaccent" xMin="50" yMin="-15" xMax="625" yMax="950">
      <contour>
        <pt x="382" y="668" on="1"/>
        <pt x="295" y="668" on="0"/>
        <pt x="205" y="489" on="0"/>
        <pt x="205" y="221" on="0"/>
        <pt x="300" y="51" on="0"/>
        <pt x="389" y="51" on="1"/>
        <pt x="439" y="51" on="0"/>
        <pt x="523" y="93" on="0"/>
        <pt x="566" y="139" on="0"/>
        <pt x="590" y="174" on="1"/>
        <pt x="625" y="149" on="1"/>
        <pt x="577" y="72" on="0"/>
        <pt x="458" y="-15" on="0"/>
        <pt x="365" y="-15" on="1"/>
        <pt x="226" y="-15" on="0"/>
        <pt x="50" y="195" on="0"/>
        <pt x="50" y="507" on="0"/>
        <pt x="226" y="715" on="0"/>
        <pt x="382" y="715" on="1"/>
        <pt x="463" y="715" on="0"/>
        <pt x="613" y="651" on="0"/>
        <pt x="613" y="607" on="1"/>
        <pt x="613" y="590" on="0"/>
        <pt x="602" y="568" on="1"/>
        <pt x="542" y="452" on="1"/>
        <pt x="506" y="463" on="1"/>
        <pt x="515" y="525" on="1"/>
        <pt x="519" y="549" on="0"/>
        <pt x="519" y="571" on="1"/>
        <pt x="519" y="610" on="0"/>
        <pt x="443" y="668" on="0"/>
      </contour>
      <contour>
        <pt x="295" y="837" on="0"/>
        <pt x="295" y="903" on="0"/>
        <pt x="342" y="950" on="0"/>
        <pt x="408" y="950" on="0"/>
        <pt x="455" y="903" on="0"/>
        <pt x="455" y="837" on="0"/>
        <pt x="408" y="790" on="0"/>
        <pt x="342" y="790" on="0"/>
      </contour>
    </TTGlyph>
    <TTGlyph name="D" xMin="70" yMin="0" xMax="742" yMax="700">
      <contour>
        <pt x="70" y="700" on="1"/>
        <pt x="340" y="700" on="1"/>
        <pt x="520" y="700" on="0"/>
        <pt x="742" y="505" on="0"/>
        <pt x="742" y="196" on="0"/>
        <pt x="520" y="0" on="0"/>
        <pt x="340" y="0" on="1"/>
        <pt x="70" y="0" on="1"/>
        <pt x="70" y="40" on="1"/>
        <pt x="150" y="40" on="1"/>
        <pt x="150" y="660" on="1"/>
        <pt x="70" y="660" on="1"/>
      </contour>
      <contour>
        <pt x="340" y="660" on="1"/>
        <pt x="300" y="660" on="1"/>
        <pt x="300" y="40" on="1"/>
        <pt x="340" y="40" on="1"/>
        <pt x="456" y="40" on="0"/>
        <pt x="587" y="207" on="0"/>
        <pt x="587" y="493" on="0"/>
        <pt x="456" y="660" on="0"/>
      </contour>
    </TTGlyph>
    <TTGlyph name="Dcaron" xMin="70" yMin="0" xMax="742" yMax="965">
      <contour>
        <pt x="70" y="700" on="1"/>
        <pt x="340" y="700" on="1"/>
        <pt x="520" y="700" on="0"/>
        <pt x="742" y="505" on="0"/>
        <pt x="742" y="196" on="0"/>
        <pt x="520" y="0" on="0"/>
        <pt x="340" y="0" on="1"/>
        <pt x="70" y="0" on="1"/>
        <pt x="70" y="40" on="1"/>
        <pt x="150" y="40" on="1"/>
        <pt x="150" y="660" on="1"/>
        <pt x="70" y="660" on="1"/>
      </contour>
      <contour>
        <pt x="340" y="660" on="1"/>
        <pt x="300" y="660" on="1"/>
        <pt x="300" y="40" on="1"/>
        <pt x="340" y="40" on="1"/>
        <pt x="456" y="40" on="0"/>
        <pt x="587" y="207" on="0"/>
        <pt x="587" y="493" on="0"/>
        <pt x="456" y="660" on="0"/>
      </contour>
      <contour>
        <pt x="421" y="759" on="0"/>
        <pt x="361" y="759" on="0"/>
        <pt x="333" y="797" on="1"/>
        <pt x="225" y="941" on="1"/>
        <pt x="246" y="965" on="1"/>
        <pt x="387" y="870" on="1"/>
        <pt x="395" y="870" on="1"/>
        <pt x="536" y="965" on="1"/>
        <pt x="557" y="941" on="1"/>
        <pt x="449" y="797" on="1"/>
      </contour>
    </TTGlyph>
    <TTGlyph name="Dcroat" xMin="70" yMin="0" xMax="742" yMax="700">
      <contour>
        <pt x="70" y="273" on="1"/>
        <pt x="70" y="318" on="1"/>
        <pt x="150" y="318" on="1"/>
        <pt x="150" y="660" on="1"/>
        <pt x="70" y="660" on="1"/>
        <pt x="70" y="700" on="1"/>
        <pt x="340" y="700" on="1"/>
        <pt x="520" y="700" on="0"/>
        <pt x="742" y="505" on="0"/>
        <pt x="742" y="196" on="0"/>
        <pt x="520" y="0" on="0"/>
        <pt x="340" y="0" on="1"/>
        <pt x="70" y="0" on="1"/>
        <pt x="70" y="40" on="1"/>
        <pt x="150" y="40" on="1"/>
        <pt x="150" y="273" on="1"/>
      </contour>
      <contour>
        <pt x="340" y="660" on="1"/>
        <pt x="300" y="660" on="1"/>
        <pt x="300" y="318" on="1"/>
        <pt x="450" y="318" on="1"/>
        <pt x="450" y="273" on="1"/>
        <pt x="300" y="273" on="1"/>
        <pt x="300" y="40" on="1"/>
        <pt x="340" y="40" on="1"/>
        <pt x="456" y="40" on="0"/>
        <pt x="587" y="207" on="0"/>
        <pt x="587" y="493" on="0"/>
        <pt x="456" y="660" on="0"/>
      </contour>
    </TTGlyph>
    <TTGlyph name="Delta" xMin="38" yMin="0" xMax="618" yMax="700">
      <contour>
        <pt x="249" y="700" on="1"/>
        <pt x="407" y="700" on="1"/>
        <pt x="618" y="0" on="1"/>
        <pt x="38" y="0" on="1"/>
      </contour>
      <contour>
        <pt x="282" y="617" on="1"/>
        <pt x="126" y="92" on="1"/>
        <pt x="440" y="92" on="1"/>
      </contour>
    </TTGlyph>
    <TTGlyph name="E" xMin="70" yMin="0" xMax="580" yMax="700">
      <contour>
        <pt x="519" y="0" on="1"/>
        <pt x="70" y="0" on="1"/>
        <pt x="70" y="40" on="1"/>
        <pt x="130" y="40" on="1"/>
        <pt x="130" y="660" on="1"/>
        <pt x="70" y="660" on="1"/>
        <pt x="70" y="700" on="1"/>
        <pt x="499" y="700" on="1"/>
        <pt x="521" y="700" on="0"/>
        <pt x="542" y="697" on="0"/>
        <pt x="560" y="678" on="0"/>
        <pt x="560" y="658" on="1"/>
        <pt x="533" y="490" on="1"/>
        <pt x="494" y="490" on="1"/>
        <pt x="474" y="589" on="1"/>
        <pt x="465" y="634" on="0"/>
        <pt x="416" y="660" on="0"/>
        <pt x="350" y="660" on="1"/>
        <pt x="280" y="660" on="1"/>
        <pt x="280" y="318" on="1"/>
        <pt x="510" y="318" on="1"/>
        <pt x="510" y="273" on="1"/>
        <pt x="280" y="273" on="1"/>
        <pt x="280" y="40" on="1"/>
        <pt x="370" y="40" on="1"/>
        <pt x="435" y="40" on="0"/>
        <pt x="484" y="66" on="0"/>
        <pt x="494" y="111" on="1"/>
        <pt x="514" y="200" on="1"/>
        <pt x="553" y="200" on="1"/>
        <pt x="580" y="42" on="1"/>
        <pt x="580" y="22" on="0"/>
        <pt x="562" y="3" on="0"/>
        <pt x="541" y="0" on="0"/>
      </contour>
    </TTGlyph>
    <TTGlyph name="Eacute" xMin="70" yMin="0" xMax="580" yMax="965">
      <contour>
        <pt x="519" y="0" on="1"/>
        <pt x="70" y="0" on="1"/>
        <pt x="70" y="40" on="1"/>
        <pt x="130" y="40" on="1"/>
        <pt x="130" y="660" on="1"/>
        <pt x="70" y="660" on="1"/>
        <pt x="70" y="700" on="1"/>
        <pt x="499" y="700" on="1"/>
        <pt x="521" y="700" on="0"/>
        <pt x="542" y="697" on="0"/>
        <pt x="560" y="678" on="0"/>
        <pt x="560" y="658" on="1"/>
        <pt x="533" y="490" on="1"/>
        <pt x="494" y="490" on="1"/>
        <pt x="474" y="589" on="1"/>
        <pt x="465" y="634" on="0"/>
        <pt x="416" y="660" on="0"/>
        <pt x="350" y="660" on="1"/>
        <pt x="280" y="660" on="1"/>
        <pt x="280" y="318" on="1"/>
        <pt x="510" y="318" on="1"/>
        <pt x="510" y="273" on="1"/>
        <pt x="280" y="273" on="1"/>
        <pt x="280" y="40" on="1"/>
        <pt x="370" y="40" on="1"/>
        <pt x="435" y="40" on="0"/>
        <pt x="484" y="66" on="0"/>
        <pt x="494" y="111" on="1"/>
        <pt x="514" y="200" on="1"/>
        <pt x="553" y="200" on="1"/>
        <pt x="580" y="42" on="1"/>
        <pt x="580" y="22" on="0"/>
        <pt x="562" y="3" on="0"/>
        <pt x="541" y="0" on="0"/>
      </contour>
      <contour>
        <pt x="342" y="951" on="0"/>
        <pt x="369" y="965" on="0"/>
        <pt x="408" y="965" on="0"/>
        <pt x="441" y="936" on="0"/>
        <pt x="441" y="890" on="0"/>
        <pt x="405" y="855" on="0"/>
        <pt x="358" y="832" on="1"/>
        <pt x="210" y="759" on="1"/>
        <pt x="189" y="783" on="1"/>
        <pt x="308" y="915" on="1"/>
        <pt x="325" y="934" on="0"/>
      </contour>
    </TTGlyph>
    <TTGlyph name="Ebreve" xMin="70" yMin="0" xMax="580" yMax="960">
      <contour>
        <pt x="519" y="0" on="1"/>
        <pt x="70" y="0" on="1"/>
        <pt x="70" y="40" on="1"/>
        <pt x="130" y="40" on="1"/>
        <pt x="130" y="660" on="1"/>
        <pt x="70" y="660" on="1"/>
        <pt x="70" y="700" on="1"/>
        <pt x="499" y="700" on="1"/>
        <pt x="521" y="700" on="0"/>
        <pt x="542" y="697" on="0"/>
        <pt x="560" y="678" on="0"/>
        <pt x="560" y="658" on="1"/>
        <pt x="533" y="490" on="1"/>
        <pt x="494" y="490" on="1"/>
        <pt x="474" y="589" on="1"/>
        <pt x="465" y="634" on="0"/>
        <pt x="416" y="660" on="0"/>
        <pt x="350" y="660" on="1"/>
        <pt x="280" y="660" on="1"/>
        <pt x="280" y="318" on="1"/>
        <pt x="510" y="318" on="1"/>
        <pt x="510" y="273" on="1"/>
        <pt x="280" y="273" on="1"/>
        <pt x="280" y="40" on="1"/>
        <pt x="370" y="40" on="1"/>
        <pt x="435" y="40" on="0"/>
        <pt x="484" y="66" on="0"/>
        <pt x="494" y="111" on="1"/>
        <pt x="514" y="200" on="1"/>
        <pt x="553" y="200" on="1"/>
        <pt x="580" y="42" on="1"/>
        <pt x="580" y="22" on="0"/>
        <pt x="562" y="3" on="0"/>
        <pt x="541" y="0" on="0"/>
      </contour>
      <contour>
        <pt x="295" y="878" on="1"/>
        <pt x="314" y="870" on="0"/>
        <pt x="361" y="870" on="0"/>
        <pt x="414" y="906" on="0"/>
        <pt x="438" y="935" on="0"/>
        <pt x="456" y="960" on="1"/>
        <pt x="501" y="931" on="1"/>
        <pt x="451" y="840" on="0"/>
        <pt x="377" y="769" on="0"/>
        <pt x="293" y="769" on="0"/>
        <pt x="219" y="840" on="0"/>
        <pt x="169" y="931" on="1"/>
        <pt x="213" y="960" on="1"/>
        <pt x="262" y="893" on="0"/>
      </contour>
    </TTGlyph>
    <TTGlyph name="Ecaron" xMin="70" yMin="0" xMax="580" yMax="965">
      <contour>
        <pt x="519" y="0" on="1"/>
        <pt x="70" y="0" on="1"/>
        <pt x="70" y="40" on="1"/>
        <pt x="130" y="40" on="1"/>
        <pt x="130" y="660" on="1"/>
        <pt x="70" y="660" on="1"/>
        <pt x="70" y="700" on="1"/>
        <pt x="499" y="700" on="1"/>
        <pt x="521" y="700" on="0"/>
        <pt x="542" y="697" on="0"/>
        <pt x="560" y="678" on="0"/>
        <pt x="560" y="658" on="1"/>
        <pt x="533" y="490" on="1"/>
        <pt x="494" y="490" on="1"/>
        <pt x="474" y="589" on="1"/>
        <pt x="465" y="634" on="0"/>
        <pt x="416" y="660" on="0"/>
        <pt x="350" y="660" on="1"/>
        <pt x="280" y="660" on="1"/>
        <pt x="280" y="318" on="1"/>
        <pt x="510" y="318" on="1"/>
        <pt x="510" y="273" on="1"/>
        <pt x="280" y="273" on="1"/>
        <pt x="280" y="40" on="1"/>
        <pt x="370" y="40" on="1"/>
        <pt x="435" y="40" on="0"/>
        <pt x="484" y="66" on="0"/>
        <pt x="494" y="111" on="1"/>
        <pt x="514" y="200" on="1"/>
        <pt x="553" y="200" on="1"/>
        <pt x="580" y="42" on="1"/>
        <pt x="580" y="22" on="0"/>
        <pt x="562" y="3" on="0"/>
        <pt x="541" y="0" on="0"/>
      </contour>
      <contour>
        <pt x="365" y="759" on="0"/>
        <pt x="305" y="759" on="0"/>
        <pt x="277" y="797" on="1"/>
        <pt x="169" y="941" on="1"/>
        <pt x="190" y="965" on="1"/>
        <pt x="331" y="870" on="1"/>
        <pt x="339" y="870" on="1"/>
        <pt x="480" y="965" on="1"/>
        <pt x="501" y="941" on="1"/>
        <pt x="393" y="797" on="1"/>
      </contour>
    </TTGlyph>
    <TTGlyph name="Ecircumflex" xMin="70" yMin="0" xMax="580" yMax="965">
      <contour>
        <pt x="519" y="0" on="1"/>
        <pt x="70" y="0" on="1"/>
        <pt x="70" y="40" on="1"/>
        <pt x="130" y="40" on="1"/>
        <pt x="130" y="660" on="1"/>
        <pt x="70" y="660" on="1"/>
        <pt x="70" y="700" on="1"/>
        <pt x="499" y="700" on="1"/>
        <pt x="521" y="700" on="0"/>
        <pt x="542" y="697" on="0"/>
        <pt x="560" y="678" on="0"/>
        <pt x="560" y="658" on="1"/>
        <pt x="533" y="490" on="1"/>
        <pt x="494" y="490" on="1"/>
        <pt x="474" y="589" on="1"/>
        <pt x="465" y="634" on="0"/>
        <pt x="416" y="660" on="0"/>
        <pt x="350" y="660" on="1"/>
        <pt x="280" y="660" on="1"/>
        <pt x="280" y="318" on="1"/>
        <pt x="510" y="318" on="1"/>
        <pt x="510" y="273" on="1"/>
        <pt x="280" y="273" on="1"/>
        <pt x="280" y="40" on="1"/>
        <pt x="370" y="40" on="1"/>
        <pt x="435" y="40" on="0"/>
        <pt x="484" y="66" on="0"/>
        <pt x="494" y="111" on="1"/>
        <pt x="514" y="200" on="1"/>
        <pt x="553" y="200" on="1"/>
        <pt x="580" y="42" on="1"/>
        <pt x="580" y="22" on="0"/>
        <pt x="562" y="3" on="0"/>
        <pt x="541" y="0" on="0"/>
      </contour>
      <contour>
        <pt x="305" y="965" on="0"/>
        <pt x="365" y="965" on="0"/>
        <pt x="393" y="927" on="1"/>
        <pt x="501" y="783" on="1"/>
        <pt x="480" y="759" on="1"/>
        <pt x="339" y="854" on="1"/>
        <pt x="331" y="854" on="1"/>
        <pt x="190" y="759" on="1"/>
        <pt x="169" y="783" on="1"/>
        <pt x="277" y="927" on="1"/>
      </contour>
    </TTGlyph>
    <TTGlyph name="Edieresis" xMin="70" yMin="0" xMax="580" yMax="946">
      <contour>
        <pt x="519" y="0" on="1"/>
        <pt x="70" y="0" on="1"/>
        <pt x="70" y="40" on="1"/>
        <pt x="130" y="40" on="1"/>
        <pt x="130" y="660" on="1"/>
        <pt x="70" y="660" on="1"/>
        <pt x="70" y="700" on="1"/>
        <pt x="499" y="700" on="1"/>
        <pt x="521" y="700" on="0"/>
        <pt x="542" y="697" on="0"/>
        <pt x="560" y="678" on="0"/>
        <pt x="560" y="658" on="1"/>
        <pt x="533" y="490" on="1"/>
        <pt x="494" y="490" on="1"/>
        <pt x="474" y="589" on="1"/>
        <pt x="465" y="634" on="0"/>
        <pt x="416" y="660" on="0"/>
        <pt x="350" y="660" on="1"/>
        <pt x="280" y="660" on="1"/>
        <pt x="280" y="318" on="1"/>
        <pt x="510" y="318" on="1"/>
        <pt x="510" y="273" on="1"/>
        <pt x="280" y="273" on="1"/>
        <pt x="280" y="40" on="1"/>
        <pt x="370" y="40" on="1"/>
        <pt x="435" y="40" on="0"/>
        <pt x="484" y="66" on="0"/>
        <pt x="494" y="111" on="1"/>
        <pt x="514" y="200" on="1"/>
        <pt x="553" y="200" on="1"/>
        <pt x="580" y="42" on="1"/>
        <pt x="580" y="22" on="0"/>
        <pt x="562" y="3" on="0"/>
        <pt x="541" y="0" on="0"/>
      </contour>
      <contour>
        <pt x="124" y="838" on="0"/>
        <pt x="124" y="902" on="0"/>
        <pt x="168" y="946" on="0"/>
        <pt x="232" y="946" on="0"/>
        <pt x="276" y="902" on="0"/>
        <pt x="276" y="838" on="0"/>
        <pt x="232" y="794" on="0"/>
        <pt x="168" y="794" on="0"/>
      </contour>
      <contour>
        <pt x="354" y="838" on="0"/>
        <pt x="354" y="902" on="0"/>
        <pt x="398" y="946" on="0"/>
        <pt x="462" y="946" on="0"/>
        <pt x="506" y="902" on="0"/>
        <pt x="506" y="838" on="0"/>
        <pt x="462" y="794" on="0"/>
        <pt x="398" y="794" on="0"/>
      </contour>
    </TTGlyph>
    <TTGlyph name="Edotaccent" xMin="70" yMin="0" xMax="580" yMax="950">
      <contour>
        <pt x="519" y="0" on="1"/>
        <pt x="70" y="0" on="1"/>
        <pt x="70" y="40" on="1"/>
        <pt x="130" y="40" on="1"/>
        <pt x="130" y="660" on="1"/>
        <pt x="70" y="660" on="1"/>
        <pt x="70" y="700" on="1"/>
        <pt x="499" y="700" on="1"/>
        <pt x="521" y="700" on="0"/>
        <pt x="542" y="697" on="0"/>
        <pt x="560" y="678" on="0"/>
        <pt x="560" y="658" on="1"/>
        <pt x="533" y="490" on="1"/>
        <pt x="494" y="490" on="1"/>
        <pt x="474" y="589" on="1"/>
        <pt x="465" y="634" on="0"/>
        <pt x="416" y="660" on="0"/>
        <pt x="350" y="660" on="1"/>
        <pt x="280" y="660" on="1"/>
        <pt x="280" y="318" on="1"/>
        <pt x="510" y="318" on="1"/>
        <pt x="510" y="273" on="1"/>
        <pt x="280" y="273" on="1"/>
        <pt x="280" y="40" on="1"/>
        <pt x="370" y="40" on="1"/>
        <pt x="435" y="40" on="0"/>
        <pt x="484" y="66" on="0"/>
        <pt x="494" y="111" on="1"/>
        <pt x="514" y="200" on="1"/>
        <pt x="553" y="200" on="1"/>
        <pt x="580" y="42" on="1"/>
        <pt x="580" y="22" on="0"/>
        <pt x="562" y="3" on="0"/>
        <pt x="541" y="0" on="0"/>
      </contour>
      <contour>
        <pt x="255" y="837" on="0"/>
        <pt x="255" y="903" on="0"/>
        <pt x="302" y="950" on="0"/>
        <pt x="368" y="950" on="0"/>
        <pt x="415" y="903" on="0"/>
        <pt x="415" y="837" on="0"/>
        <pt x="368" y="790" on="0"/>
        <pt x="302" y="790" on="0"/>
      </contour>
    </TTGlyph>
    <TTGlyph name="Egrave" xMin="70" yMin="0" xMax="580" yMax="965">
      <contour>
        <pt x="519" y="0" on="1"/>
        <pt x="70" y="0" on="1"/>
        <pt x="70" y="40" on="1"/>
        <pt x="130" y="40" on="1"/>
        <pt x="130" y="660" on="1"/>
        <pt x="70" y="660" on="1"/>
        <pt x="70" y="700" on="1"/>
        <pt x="499" y="700" on="1"/>
        <pt x="521" y="700" on="0"/>
        <pt x="542" y="697" on="0"/>
        <pt x="560" y="678" on="0"/>
        <pt x="560" y="658" on="1"/>
        <pt x="533" y="490" on="1"/>
        <pt x="494" y="490" on="1"/>
        <pt x="474" y="589" on="1"/>
        <pt x="465" y="634" on="0"/>
        <pt x="416" y="660" on="0"/>
        <pt x="350" y="660" on="1"/>
        <pt x="280" y="660" on="1"/>
        <pt x="280" y="318" on="1"/>
        <pt x="510" y="318" on="1"/>
        <pt x="510" y="273" on="1"/>
        <pt x="280" y="273" on="1"/>
        <pt x="280" y="40" on="1"/>
        <pt x="370" y="40" on="1"/>
        <pt x="435" y="40" on="0"/>
        <pt x="484" y="66" on="0"/>
        <pt x="494" y="111" on="1"/>
        <pt x="514" y="200" on="1"/>
        <pt x="553" y="200" on="1"/>
        <pt x="580" y="42" on="1"/>
        <pt x="580" y="22" on="0"/>
        <pt x="562" y="3" on="0"/>
        <pt x="541" y="0" on="0"/>
      </contour>
      <contour>
        <pt x="189" y="936" on="0"/>
        <pt x="222" y="965" on="0"/>
        <pt x="261" y="965" on="0"/>
        <pt x="288" y="951" on="0"/>
        <pt x="305" y="934" on="0"/>
        <pt x="322" y="915" on="1"/>
        <pt x="441" y="783" on="1"/>
        <pt x="420" y="759" on="1"/>
        <pt x="272" y="832" on="1"/>
        <pt x="225" y="855" on="0"/>
        <pt x="189" y="890" on="0"/>
      </contour>
    </TTGlyph>
    <TTGlyph name="Emacron" xMin="70" yMin="0" xMax="580" yMax="900">
      <contour>
        <pt x="519" y="0" on="1"/>
        <pt x="70" y="0" on="1"/>
        <pt x="70" y="40" on="1"/>
        <pt x="130" y="40" on="1"/>
        <pt x="130" y="660" on="1"/>
        <pt x="70" y="660" on="1"/>
        <pt x="70" y="700" on="1"/>
        <pt x="499" y="700" on="1"/>
        <pt x="521" y="700" on="0"/>
        <pt x="542" y="697" on="0"/>
        <pt x="560" y="678" on="0"/>
        <pt x="560" y="658" on="1"/>
        <pt x="533" y="490" on="1"/>
        <pt x="494" y="490" on="1"/>
        <pt x="474" y="589" on="1"/>
        <pt x="465" y="634" on="0"/>
        <pt x="416" y="660" on="0"/>
        <pt x="350" y="660" on="1"/>
        <pt x="280" y="660" on="1"/>
        <pt x="280" y="318" on="1"/>
        <pt x="510" y="318" on="1"/>
        <pt x="510" y="273" on="1"/>
        <pt x="280" y="273" on="1"/>
        <pt x="280" y="40" on="1"/>
        <pt x="370" y="40" on="1"/>
        <pt x="435" y="40" on="0"/>
        <pt x="484" y="66" on="0"/>
        <pt x="494" y="111" on="1"/>
        <pt x="514" y="200" on="1"/>
        <pt x="553" y="200" on="1"/>
        <pt x="580" y="42" on="1"/>
        <pt x="580" y="22" on="0"/>
        <pt x="562" y="3" on="0"/>
        <pt x="541" y="0" on="0"/>
      </contour>
      <contour>
        <pt x="188" y="900" on="1"/>
        <pt x="482" y="900" on="1"/>
        <pt x="482" y="812" on="1"/>
        <pt x="188" y="812" on="1"/>
      </contour>
    </TTGlyph>
    <TTGlyph name="Eng" xMin="60" yMin="-265" xMax="710" yMax="700">
      <contour>
        <pt x="60" y="0" on="1"/>
        <pt x="60" y="40" on="1"/>
        <pt x="120" y="40" on="1"/>
        <pt x="120" y="660" on="1"/>
        <pt x="60" y="660" on="1"/>
        <pt x="60" y="700" on="1"/>
        <pt x="294" y="700" on="1"/>
        <pt x="580" y="137" on="1"/>
        <pt x="580" y="660" on="1"/>
        <pt x="520" y="660" on="1"/>
        <pt x="520" y="700" on="1"/>
        <pt x="710" y="700" on="1"/>
        <pt x="710" y="660" on="1"/>
        <pt x="650" y="660" on="1"/>
        <pt x="650" y="-87" on="1"/>
        <pt x="650" y="-166" on="0"/>
        <pt x="560" y="-265" on="0"/>
        <pt x="460" y="-265" on="1"/>
        <pt x="411" y="-265" on="0"/>
        <pt x="322" y="-229" on="0"/>
        <pt x="293" y="-199" on="1"/>
        <pt x="315" y="-168" on="1"/>
        <pt x="358" y="-205" on="0"/>
        <pt x="416" y="-205" on="1"/>
        <pt x="519" y="-205" on="0"/>
        <pt x="519" y="-106" on="1"/>
        <pt x="519" y="-54" on="0"/>
        <pt x="492" y="0" on="1"/>
        <pt x="190" y="592" on="1"/>
        <pt x="190" y="40" on="1"/>
        <pt x="250" y="40" on="1"/>
        <pt x="250" y="0" on="1"/>
      </contour>
    </TTGlyph>
    <TTGlyph name="Eogonek" xMin="70" yMin="-238" xMax="580" yMax="700">
      <contour>
        <pt x="519" y="0" on="1"/>
        <pt x="508" y="0" on="1"/>
        <pt x="500" y="-8" on="1"/>
        <pt x="462" y="-46" on="0"/>
        <pt x="438" y="-95" on="0"/>
        <pt x="438" y="-150" on="0"/>
        <pt x="471" y="-179" on="0"/>
        <pt x="533" y="-179" on="0"/>
        <pt x="563" y="-151" on="1"/>
        <pt x="580" y="-180" on="1"/>
        <pt x="532" y="-238" on="0"/>
        <pt x="456" y="-238" on="1"/>
        <pt x="409" y="-238" on="0"/>
        <pt x="347" y="-191" on="0"/>
        <pt x="347" y="-108" on="0"/>
        <pt x="388" y="-51" on="0"/>
        <pt x="424" y="-21" on="1"/>
        <pt x="449" y="0" on="1"/>
        <pt x="70" y="0" on="1"/>
        <pt x="70" y="40" on="1"/>
        <pt x="130" y="40" on="1"/>
        <pt x="130" y="660" on="1"/>
        <pt x="70" y="660" on="1"/>
        <pt x="70" y="700" on="1"/>
        <pt x="499" y="700" on="1"/>
        <pt x="521" y="700" on="0"/>
        <pt x="542" y="697" on="0"/>
        <pt x="560" y="678" on="0"/>
        <pt x="560" y="658" on="1"/>
        <pt x="533" y="490" on="1"/>
        <pt x="494" y="490" on="1"/>
        <pt x="474" y="589" on="1"/>
        <pt x="465" y="634" on="0"/>
        <pt x="416" y="660" on="0"/>
        <pt x="350" y="660" on="1"/>
        <pt x="280" y="660" on="1"/>
        <pt x="280" y="318" on="1"/>
        <pt x="510" y="318" on="1"/>
        <pt x="510" y="273" on="1"/>
        <pt x="280" y="273" on="1"/>
        <pt x="280" y="40" on="1"/>
        <pt x="370" y="40" on="1"/>
        <pt x="435" y="40" on="0"/>
        <pt x="484" y="66" on="0"/>
        <pt x="494" y="111" on="1"/>
        <pt x="514" y="200" on="1"/>
        <pt x="553" y="200" on="1"/>
        <pt x="580" y="42" on="1"/>
        <pt x="580" y="22" on="0"/>
        <pt x="562" y="3" on="0"/>
        <pt x="541" y="0" on="0"/>
      </contour>
    </TTGlyph>
    <TTGlyph name="Eth" xMin="70" yMin="0" xMax="742" yMax="700">
      <contour>
        <pt x="70" y="273" on="1"/>
        <pt x="70" y="318" on="1"/>
        <pt x="150" y="318" on="1"/>
        <pt x="150" y="660" on="1"/>
        <pt x="70" y="660" on="1"/>
        <pt x="70" y="700" on="1"/>
        <pt x="340" y="700" on="1"/>
        <pt x="520" y="700" on="0"/>
        <pt x="742" y="505" on="0"/>
        <pt x="742" y="196" on="0"/>
        <pt x="520" y="0" on="0"/>
        <pt x="340" y="0" on="1"/>
        <pt x="70" y="0" on="1"/>
        <pt x="70" y="40" on="1"/>
        <pt x="150" y="40" on="1"/>
        <pt x="150" y="273" on="1"/>
      </contour>
      <contour>
        <pt x="340" y="660" on="1"/>
        <pt x="300" y="660" on="1"/>
        <pt x="300" y="318" on="1"/>
        <pt x="450" y="318" on="1"/>
        <pt x="450" y="273" on="1"/>
        <pt x="300" y="273" on="1"/>
        <pt x="300" y="40" on="1"/>
        <pt x="340" y="40" on="1"/>
        <pt x="456" y="40" on="0"/>
        <pt x="587" y="207" on="0"/>
        <pt x="587" y="493" on="0"/>
        <pt x="456" y="660" on="0"/>
      </contour>
    </TTGlyph>
    <TTGlyph name="Euro" xMin="35" yMin="-15" xMax="620" yMax="715">
      <contour>
        <pt x="437" y="668" on="1"/>
        <pt x="272" y="668" on="0"/>
        <pt x="252" y="424" on="1"/>
        <pt x="455" y="424" on="1"/>
        <pt x="455" y="379" on="1"/>
        <pt x="250" y="379" on="1"/>
        <pt x="250" y="354" on="1"/>
        <pt x="250" y="306" on="0"/>
        <pt x="252" y="284" on="1"/>
        <pt x="455" y="284" on="1"/>
        <pt x="455" y="239" on="1"/>
        <pt x="258" y="239" on="1"/>
        <pt x="288" y="51" on="0"/>
        <pt x="414" y="51" on="1"/>
        <pt x="475" y="51" on="0"/>
        <pt x="553" y="102" on="0"/>
        <pt x="585" y="144" on="1"/>
        <pt x="620" y="119" on="1"/>
        <pt x="577" y="56" on="0"/>
        <pt x="473" y="-15" on="0"/>
        <pt x="390" y="-15" on="1"/>
        <pt x="280" y="-15" on="0"/>
        <pt x="132" y="125" on="0"/>
        <pt x="107" y="239" on="1"/>
        <pt x="35" y="239" on="1"/>
        <pt x="35" y="284" on="1"/>
        <pt x="99" y="284" on="1"/>
        <pt x="95" y="312" on="0"/>
        <pt x="95" y="349" on="1"/>
        <pt x="95" y="379" on="1"/>
        <pt x="35" y="379" on="1"/>
        <pt x="35" y="424" on="1"/>
        <pt x="100" y="424" on="1"/>
        <pt x="117" y="555" on="0"/>
        <pt x="274" y="715" on="0"/>
        <pt x="407" y="715" on="1"/>
        <pt x="485" y="715" on="0"/>
        <pt x="609" y="633" on="0"/>
        <pt x="609" y="574" on="1"/>
        <pt x="609" y="541" on="0"/>
        <pt x="563" y="494" on="0"/>
        <pt x="497" y="494" on="0"/>
        <pt x="449" y="542" on="0"/>
        <pt x="449" y="603" on="0"/>
        <pt x="483" y="646" on="0"/>
        <pt x="510" y="652" on="1"/>
        <pt x="476" y="668" on="0"/>
      </contour>
    </TTGlyph>
    <TTGlyph name="F" xMin="70" yMin="0" xMax="560" yMax="700">
      <contour>
        <pt x="350" y="660" on="1"/>
        <pt x="280" y="660" on="1"/>
        <pt x="280" y="318" on="1"/>
        <pt x="490" y="318" on="1"/>
        <pt x="490" y="273" on="1"/>
        <pt x="280" y="273" on="1"/>
        <pt x="280" y="40" on="1"/>
        <pt x="390" y="40" on="1"/>
        <pt x="390" y="0" on="1"/>
        <pt x="70" y="0" on="1"/>
        <pt x="70" y="40" on="1"/>
        <pt x="130" y="40" on="1"/>
        <pt x="130" y="660" on="1"/>
        <pt x="70" y="660" on="1"/>
        <pt x="70" y="700" on="1"/>
        <pt x="499" y="700" on="1"/>
        <pt x="521" y="700" on="0"/>
        <pt x="542" y="697" on="0"/>
        <pt x="560" y="678" on="0"/>
        <pt x="560" y="658" on="1"/>
        <pt x="533" y="490" on="1"/>
        <pt x="494" y="490" on="1"/>
        <pt x="474" y="589" on="1"/>
        <pt x="465" y="634" on="0"/>
        <pt x="416" y="660" on="0"/>
      </contour>
    </TTGlyph>
    <TTGlyph name="G" xMin="50" yMin="-237" xMax="635" yMax="715">
      <contour>
        <pt x="350" y="273" on="1"/>
        <pt x="350" y="318" on="1"/>
        <pt x="635" y="318" on="1"/>
        <pt x="635" y="-22" on="1"/>
        <pt x="635" y="-132" on="0"/>
        <pt x="503" y="-237" on="0"/>
        <pt x="391" y="-237" on="1"/>
        <pt x="325" y="-237" on="0"/>
        <pt x="204" y="-170" on="0"/>
        <pt x="204" y="-112" on="1"/>
        <pt x="204" y="-101" on="0"/>
        <pt x="211" y="-80" on="1"/>
        <pt x="245" y="8" on="1"/>
        <pt x="157" y="47" on="0"/>
        <pt x="50" y="233" on="0"/>
        <pt x="50" y="349" on="1"/>
        <pt x="50" y="507" on="0"/>
        <pt x="231" y="715" on="0"/>
        <pt x="392" y="715" on="1"/>
        <pt x="473" y="715" on="0"/>
        <pt x="623" y="651" on="0"/>
        <pt x="623" y="607" on="1"/>
        <pt x="623" y="590" on="0"/>
        <pt x="612" y="568" on="1"/>
        <pt x="556" y="476" on="1"/>
        <pt x="520" y="488" on="1"/>
        <pt x="525" y="525" on="1"/>
        <pt x="529" y="549" on="0"/>
        <pt x="529" y="571" on="1"/>
        <pt x="529" y="610" on="0"/>
        <pt x="453" y="668" on="0"/>
        <pt x="392" y="668" on="1"/>
        <pt x="300" y="668" on="0"/>
        <pt x="205" y="489" on="0"/>
        <pt x="205" y="220" on="0"/>
        <pt x="308" y="51" on="0"/>
        <pt x="407" y="51" on="1"/>
        <pt x="447" y="51" on="0"/>
        <pt x="485" y="67" on="1"/>
        <pt x="485" y="273" on="1"/>
      </contour>
      <contour>
        <pt x="355" y="-15" on="1"/>
        <pt x="320" y="-15" on="0"/>
        <pt x="288" y="-6" on="1"/>
        <pt x="288" y="-37" on="1"/>
        <pt x="288" y="-151" on="0"/>
        <pt x="336" y="-178" on="1"/>
        <pt x="358" y="-190" on="0"/>
        <pt x="435" y="-190" on="0"/>
        <pt x="485" y="-135" on="0"/>
        <pt x="485" y="-80" on="1"/>
        <pt x="485" y="11" on="1"/>
        <pt x="425" y="-15" on="0"/>
      </contour>
    </TTGlyph>
    <TTGlyph name="G.alt" xMin="50" yMin="-15" xMax="635" yMax="715">
      <contour>
        <pt x="350" y="273" on="1"/>
        <pt x="350" y="318" on="1"/>
        <pt x="635" y="318" on="1"/>
        <pt x="635" y="0" on="1"/>
        <pt x="580" y="0" on="1"/>
        <pt x="544" y="49" on="1"/>
        <pt x="469" y="-15" on="0"/>
        <pt x="355" y="-15" on="1"/>
        <pt x="225" y="-15" on="0"/>
        <pt x="50" y="197" on="0"/>
        <pt x="50" y="507" on="0"/>
        <pt x="231" y="715" on="0"/>
        <pt x="392" y="715" on="1"/>
        <pt x="473" y="715" on="0"/>
        <pt x="623" y="651" on="0"/>
        <pt x="623" y="607" on="1"/>
        <pt x="623" y="590" on="0"/>
        <pt x="612" y="568" on="1"/>
        <pt x="556" y="476" on="1"/>
        <pt x="520" y="488" on="1"/>
        <pt x="525" y="525" on="1"/>
        <pt x="529" y="549" on="0"/>
        <pt x="529" y="571" on="1"/>
        <pt x="529" y="610" on="0"/>
        <pt x="453" y="668" on="0"/>
        <pt x="392" y="668" on="1"/>
        <pt x="300" y="668" on="0"/>
        <pt x="205" y="489" on="0"/>
        <pt x="205" y="220" on="0"/>
        <pt x="308" y="51" on="0"/>
        <pt x="407" y="51" on="1"/>
        <pt x="447" y="51" on="0"/>
        <pt x="485" y="67" on="1"/>
        <pt x="485" y="273" on="1"/>
      </contour>
    </TTGlyph>
    <TTGlyph name="Gbreve" xMin="50" yMin="-237" xMax="635" yMax="960">
      <contour>
        <pt x="350" y="273" on="1"/>
        <pt x="350" y="318" on="1"/>
        <pt x="635" y="318" on="1"/>
        <pt x="635" y="-22" on="1"/>
        <pt x="635" y="-132" on="0"/>
        <pt x="503" y="-237" on="0"/>
        <pt x="391" y="-237" on="1"/>
        <pt x="325" y="-237" on="0"/>
        <pt x="204" y="-170" on="0"/>
        <pt x="204" y="-112" on="1"/>
        <pt x="204" y="-101" on="0"/>
        <pt x="211" y="-80" on="1"/>
        <pt x="245" y="8" on="1"/>
        <pt x="157" y="47" on="0"/>
        <pt x="50" y="233" on="0"/>
        <pt x="50" y="349" on="1"/>
        <pt x="50" y="507" on="0"/>
        <pt x="231" y="715" on="0"/>
        <pt x="392" y="715" on="1"/>
        <pt x="473" y="715" on="0"/>
        <pt x="623" y="651" on="0"/>
        <pt x="623" y="607" on="1"/>
        <pt x="623" y="590" on="0"/>
        <pt x="612" y="568" on="1"/>
        <pt x="556" y="476" on="1"/>
        <pt x="520" y="488" on="1"/>
        <pt x="525" y="525" on="1"/>
        <pt x="529" y="549" on="0"/>
        <pt x="529" y="571" on="1"/>
        <pt x="529" y="610" on="0"/>
        <pt x="453" y="668" on="0"/>
        <pt x="392" y="668" on="1"/>
        <pt x="300" y="668" on="0"/>
        <pt x="205" y="489" on="0"/>
        <pt x="205" y="220" on="0"/>
        <pt x="308" y="51" on="0"/>
        <pt x="407" y="51" on="1"/>
        <pt x="447" y="51" on="0"/>
        <pt x="485" y="67" on="1"/>
        <pt x="485" y="273" on="1"/>
      </contour>
      <contour>
        <pt x="355" y="-15" on="1"/>
        <pt x="320" y="-15" on="0"/>
        <pt x="288" y="-6" on="1"/>
        <pt x="288" y="-37" on="1"/>
        <pt x="288" y="-151" on="0"/>
        <pt x="336" y="-178" on="1"/>
        <pt x="358" y="-190" on="0"/>
        <pt x="435" y="-190" on="0"/>
        <pt x="485" y="-135" on="0"/>
        <pt x="485" y="-80" on="1"/>
        <pt x="485" y="11" on="1"/>
        <pt x="425" y="-15" on="0"/>
      </contour>
      <contour>
        <pt x="340" y="878" on="1"/>
        <pt x="359" y="870" on="0"/>
        <pt x="406" y="870" on="0"/>
        <pt x="459" y="906" on="0"/>
        <pt x="483" y="935" on="0"/>
        <pt x="501" y="960" on="1"/>
        <pt x="546" y="931" on="1"/>
        <pt x="496" y="840" on="0"/>
        <pt x="422" y="769" on="0"/>
        <pt x="338" y="769" on="0"/>
        <pt x="264" y="840" on="0"/>
        <pt x="214" y="931" on="1"/>
        <pt x="258" y="960" on="1"/>
        <pt x="307" y="893" on="0"/>
      </contour>
    </TTGlyph>
    <TTGlyph name="Gcircumflex" xMin="50" yMin="-237" xMax="635" yMax="965">
      <contour>
        <pt x="350" y="273" on="1"/>
        <pt x="350" y="318" on="1"/>
        <pt x="635" y="318" on="1"/>
        <pt x="635" y="-22" on="1"/>
        <pt x="635" y="-132" on="0"/>
        <pt x="503" y="-237" on="0"/>
        <pt x="391" y="-237" on="1"/>
        <pt x="325" y="-237" on="0"/>
        <pt x="204" y="-170" on="0"/>
        <pt x="204" y="-112" on="1"/>
        <pt x="204" y="-101" on="0"/>
        <pt x="211" y="-80" on="1"/>
        <pt x="245" y="8" on="1"/>
        <pt x="157" y="47" on="0"/>
        <pt x="50" y="233" on="0"/>
        <pt x="50" y="349" on="1"/>
        <pt x="50" y="507" on="0"/>
        <pt x="231" y="715" on="0"/>
        <pt x="392" y="715" on="1"/>
        <pt x="473" y="715" on="0"/>
        <pt x="623" y="651" on="0"/>
        <pt x="623" y="607" on="1"/>
        <pt x="623" y="590" on="0"/>
        <pt x="612" y="568" on="1"/>
        <pt x="556" y="476" on="1"/>
        <pt x="520" y="488" on="1"/>
        <pt x="525" y="525" on="1"/>
        <pt x="529" y="549" on="0"/>
        <pt x="529" y="571" on="1"/>
        <pt x="529" y="610" on="0"/>
        <pt x="453" y="668" on="0"/>
        <pt x="392" y="668" on="1"/>
        <pt x="300" y="668" on="0"/>
        <pt x="205" y="489" on="0"/>
        <pt x="205" y="220" on="0"/>
        <pt x="308" y="51" on="0"/>
        <pt x="407" y="51" on="1"/>
        <pt x="447" y="51" on="0"/>
        <pt x="485" y="67" on="1"/>
        <pt x="485" y="273" on="1"/>
      </contour>
      <contour>
        <pt x="355" y="-15" on="1"/>
        <pt x="320" y="-15" on="0"/>
        <pt x="288" y="-6" on="1"/>
        <pt x="288" y="-37" on="1"/>
        <pt x="288" y="-151" on="0"/>
        <pt x="336" y="-178" on="1"/>
        <pt x="358" y="-190" on="0"/>
        <pt x="435" y="-190" on="0"/>
        <pt x="485" y="-135" on="0"/>
        <pt x="485" y="-80" on="1"/>
        <pt x="485" y="11" on="1"/>
        <pt x="425" y="-15" on="0"/>
      </contour>
      <contour>
        <pt x="350" y="965" on="0"/>
        <pt x="410" y="965" on="0"/>
        <pt x="438" y="927" on="1"/>
        <pt x="546" y="783" on="1"/>
        <pt x="525" y="759" on="1"/>
        <pt x="384" y="854" on="1"/>
        <pt x="376" y="854" on="1"/>
        <pt x="235" y="759" on="1"/>
        <pt x="214" y="783" on="1"/>
        <pt x="322" y="927" on="1"/>
      </contour>
    </TTGlyph>
    <TTGlyph name="Gdotaccent" xMin="50" yMin="-237" xMax="635" yMax="950">
      <contour>
        <pt x="350" y="273" on="1"/>
        <pt x="350" y="318" on="1"/>
        <pt x="635" y="318" on="1"/>
        <pt x="635" y="-22" on="1"/>
        <pt x="635" y="-132" on="0"/>
        <pt x="503" y="-237" on="0"/>
        <pt x="391" y="-237" on="1"/>
        <pt x="325" y="-237" on="0"/>
        <pt x="204" y="-170" on="0"/>
        <pt x="204" y="-112" on="1"/>
        <pt x="204" y="-101" on="0"/>
        <pt x="211" y="-80" on="1"/>
        <pt x="245" y="8" on="1"/>
        <pt x="157" y="47" on="0"/>
        <pt x="50" y="233" on="0"/>
        <pt x="50" y="349" on="1"/>
        <pt x="50" y="507" on="0"/>
        <pt x="231" y="715" on="0"/>
        <pt x="392" y="715" on="1"/>
        <pt x="473" y="715" on="0"/>
        <pt x="623" y="651" on="0"/>
        <pt x="623" y="607" on="1"/>
        <pt x="623" y="590" on="0"/>
        <pt x="612" y="568" on="1"/>
        <pt x="556" y="476" on="1"/>
        <pt x="520" y="488" on="1"/>
        <pt x="525" y="525" on="1"/>
        <pt x="529" y="549" on="0"/>
        <pt x="529" y="571" on="1"/>
        <pt x="529" y="610" on="0"/>
        <pt x="453" y="668" on="0"/>
        <pt x="392" y="668" on="1"/>
        <pt x="300" y="668" on="0"/>
        <pt x="205" y="489" on="0"/>
        <pt x="205" y="220" on="0"/>
        <pt x="308" y="51" on="0"/>
        <pt x="407" y="51" on="1"/>
        <pt x="447" y="51" on="0"/>
        <pt x="485" y="67" on="1"/>
        <pt x="485" y="273" on="1"/>
      </contour>
      <contour>
        <pt x="355" y="-15" on="1"/>
        <pt x="320" y="-15" on="0"/>
        <pt x="288" y="-6" on="1"/>
        <pt x="288" y="-37" on="1"/>
        <pt x="288" y="-151" on="0"/>
        <pt x="336" y="-178" on="1"/>
        <pt x="358" y="-190" on="0"/>
        <pt x="435" y="-190" on="0"/>
        <pt x="485" y="-135" on="0"/>
        <pt x="485" y="-80" on="1"/>
        <pt x="485" y="11" on="1"/>
        <pt x="425" y="-15" on="0"/>
      </contour>
      <contour>
        <pt x="300" y="837" on="0"/>
        <pt x="300" y="903" on="0"/>
        <pt x="347" y="950" on="0"/>
        <pt x="413" y="950" on="0"/>
        <pt x="460" y="903" on="0"/>
        <pt x="460" y="837" on="0"/>
        <pt x="413" y="790" on="0"/>
        <pt x="347" y="790" on="0"/>
      </contour>
    </TTGlyph>
    <TTGlyph name="H" xMin="70" yMin="0" xMax="740" yMax="700">
      <contour>
        <pt x="680" y="660" on="1"/>
        <pt x="680" y="40" on="1"/>
        <pt x="740" y="40" on="1"/>
        <pt x="740" y="0" on="1"/>
        <pt x="470" y="0" on="1"/>
        <pt x="470" y="40" on="1"/>
        <pt x="530" y="40" on="1"/>
        <pt x="530" y="273" on="1"/>
        <pt x="280" y="273" on="1"/>
        <pt x="280" y="40" on="1"/>
        <pt x="340" y="40" on="1"/>
        <pt x="340" y="0" on="1"/>
        <pt x="70" y="0" on="1"/>
        <pt x="70" y="40" on="1"/>
        <pt x="130" y="40" on="1"/>
        <pt x="130" y="660" on="1"/>
        <pt x="70" y="660" on="1"/>
        <pt x="70" y="700" on="1"/>
        <pt x="340" y="700" on="1"/>
        <pt x="340" y="660" on="1"/>
        <pt x="280" y="660" on="1"/>
        <pt x="280" y="318" on="1"/>
        <pt x="530" y="318" on="1"/>
        <pt x="530" y="660" on="1"/>
        <pt x="470" y="660" on="1"/>
        <pt x="470" y="700" on="1"/>
        <pt x="740" y="700" on="1"/>
        <pt x="740" y="660" on="1"/>
      </contour>
    </TTGlyph>
    <TTGlyph name="Hbar" xMin="25" yMin="0" xMax="775" yMax="700">
      <contour>
        <pt x="25" y="455" on="1"/>
        <pt x="25" y="500" on="1"/>
        <pt x="130" y="500" on="1"/>
        <pt x="130" y="660" on="1"/>
        <pt x="70" y="660" on="1"/>
        <pt x="70" y="700" on="1"/>
        <pt x="340" y="700" on="1"/>
        <pt x="340" y="660" on="1"/>
        <pt x="280" y="660" on="1"/>
        <pt x="280" y="500" on="1"/>
        <pt x="530" y="500" on="1"/>
        <pt x="530" y="660" on="1"/>
        <pt x="470" y="660" on="1"/>
        <pt x="470" y="700" on="1"/>
        <pt x="740" y="700" on="1"/>
        <pt x="740" y="660" on="1"/>
        <pt x="680" y="660" on="1"/>
        <pt x="680" y="500" on="1"/>
        <pt x="775" y="500" on="1"/>
        <pt x="775" y="455" on="1"/>
        <pt x="680" y="455" on="1"/>
        <pt x="680" y="40" on="1"/>
        <pt x="740" y="40" on="1"/>
        <pt x="740" y="0" on="1"/>
        <pt x="470" y="0" on="1"/>
        <pt x="470" y="40" on="1"/>
        <pt x="530" y="40" on="1"/>
        <pt x="530" y="273" on="1"/>
        <pt x="280" y="273" on="1"/>
        <pt x="280" y="40" on="1"/>
        <pt x="340" y="40" on="1"/>
        <pt x="340" y="0" on="1"/>
        <pt x="70" y="0" on="1"/>
        <pt x="70" y="40" on="1"/>
        <pt x="130" y="40" on="1"/>
        <pt x="130" y="455" on="1"/>
      </contour>
      <contour>
        <pt x="280" y="318" on="1"/>
        <pt x="530" y="318" on="1"/>
        <pt x="530" y="455" on="1"/>
        <pt x="280" y="455" on="1"/>
      </contour>
    </TTGlyph>
    <TTGlyph name="Hcircumflex" xMin="70" yMin="0" xMax="740" yMax="965">
      <contour>
        <pt x="680" y="660" on="1"/>
        <pt x="680" y="40" on="1"/>
        <pt x="740" y="40" on="1"/>
        <pt x="740" y="0" on="1"/>
        <pt x="470" y="0" on="1"/>
        <pt x="470" y="40" on="1"/>
        <pt x="530" y="40" on="1"/>
        <pt x="530" y="273" on="1"/>
        <pt x="280" y="273" on="1"/>
        <pt x="280" y="40" on="1"/>
        <pt x="340" y="40" on="1"/>
        <pt x="340" y="0" on="1"/>
        <pt x="70" y="0" on="1"/>
        <pt x="70" y="40" on="1"/>
        <pt x="130" y="40" on="1"/>
        <pt x="130" y="660" on="1"/>
        <pt x="70" y="660" on="1"/>
        <pt x="70" y="700" on="1"/>
        <pt x="340" y="700" on="1"/>
        <pt x="340" y="660" on="1"/>
        <pt x="280" y="660" on="1"/>
        <pt x="280" y="318" on="1"/>
        <pt x="530" y="318" on="1"/>
        <pt x="530" y="660" on="1"/>
        <pt x="470" y="660" on="1"/>
        <pt x="470" y="700" on="1"/>
        <pt x="740" y="700" on="1"/>
        <pt x="740" y="660" on="1"/>
      </contour>
      <contour>
        <pt x="375" y="965" on="0"/>
        <pt x="435" y="965" on="0"/>
        <pt x="463" y="927" on="1"/>
        <pt x="571" y="783" on="1"/>
        <pt x="550" y="759" on="1"/>
        <pt x="409" y="854" on="1"/>
        <pt x="401" y="854" on="1"/>
        <pt x="260" y="759" on="1"/>
        <pt x="239" y="783" on="1"/>
        <pt x="347" y="927" on="1"/>
      </contour>
    </TTGlyph>
    <TTGlyph name="I" xMin="60" yMin="0" xMax="350" yMax="700">
      <contour>
        <pt x="60" y="660" on="1"/>
        <pt x="60" y="700" on="1"/>
        <pt x="350" y="700" on="1"/>
        <pt x="350" y="660" on="1"/>
        <pt x="280" y="660" on="1"/>
        <pt x="280" y="40" on="1"/>
        <pt x="350" y="40" on="1"/>
        <pt x="350" y="0" on="1"/>
        <pt x="60" y="0" on="1"/>
        <pt x="60" y="40" on="1"/>
        <pt x="130" y="40" on="1"/>
        <pt x="130" y="660" on="1"/>
      </contour>
    </TTGlyph>
    <TTGlyph name="IJ" xMin="60" yMin="-15" xMax="885" yMax="700">
      <contour>
        <pt x="60" y="660" on="1"/>
        <pt x="60" y="700" on="1"/>
        <pt x="350" y="700" on="1"/>
        <pt x="350" y="660" on="1"/>
        <pt x="280" y="660" on="1"/>
        <pt x="280" y="40" on="1"/>
        <pt x="350" y="40" on="1"/>
        <pt x="350" y="0" on="1"/>
        <pt x="60" y="0" on="1"/>
        <pt x="60" y="40" on="1"/>
        <pt x="130" y="40" on="1"/>
        <pt x="130" y="660" on="1"/>
      </contour>
      <contour>
        <pt x="825" y="660" on="1"/>
        <pt x="825" y="190" on="1"/>
        <pt x="825" y="85" on="0"/>
        <pt x="698" y="-15" on="0"/>
        <pt x="591" y="-15" on="1"/>
        <pt x="530" y="-15" on="0"/>
        <pt x="420" y="49" on="0"/>
        <pt x="420" y="93" on="1"/>
        <pt x="420" y="110" on="0"/>
        <pt x="431" y="132" on="1"/>
        <pt x="491" y="248" on="1"/>
        <pt x="527" y="237" on="1"/>
        <pt x="518" y="175" on="1"/>
        <pt x="514" y="140" on="0"/>
        <pt x="514" y="78" on="0"/>
        <pt x="557" y="32" on="0"/>
        <pt x="630" y="32" on="0"/>
        <pt x="675" y="82" on="0"/>
        <pt x="675" y="132" on="1"/>
        <pt x="675" y="660" on="1"/>
        <pt x="580" y="660" on="1"/>
        <pt x="580" y="700" on="1"/>
        <pt x="885" y="700" on="1"/>
        <pt x="885" y="660" on="1"/>
      </contour>
    </TTGlyph>
    <TTGlyph name="Iacute" xMin="60" yMin="0" xMax="351" yMax="965">
      <contour>
        <pt x="60" y="660" on="1"/>
        <pt x="60" y="700" on="1"/>
        <pt x="350" y="700" on="1"/>
        <pt x="350" y="660" on="1"/>
        <pt x="280" y="660" on="1"/>
        <pt x="280" y="40" on="1"/>
        <pt x="350" y="40" on="1"/>
        <pt x="350" y="0" on="1"/>
        <pt x="60" y="0" on="1"/>
        <pt x="60" y="40" on="1"/>
        <pt x="130" y="40" on="1"/>
        <pt x="130" y="660" on="1"/>
      </contour>
      <contour>
        <pt x="252" y="951" on="0"/>
        <pt x="279" y="965" on="0"/>
        <pt x="318" y="965" on="0"/>
        <pt x="351" y="936" on="0"/>
        <pt x="351" y="890" on="0"/>
        <pt x="315" y="855" on="0"/>
        <pt x="268" y="832" on="1"/>
        <pt x="120" y="759" on="1"/>
        <pt x="99" y="783" on="1"/>
        <pt x="218" y="915" on="1"/>
        <pt x="235" y="934" on="0"/>
      </contour>
    </TTGlyph>
    <TTGlyph name="Ibreve" xMin="39" yMin="0" xMax="371" yMax="960">
      <contour>
        <pt x="60" y="660" on="1"/>
        <pt x="60" y="700" on="1"/>
        <pt x="350" y="700" on="1"/>
        <pt x="350" y="660" on="1"/>
        <pt x="280" y="660" on="1"/>
        <pt x="280" y="40" on="1"/>
        <pt x="350" y="40" on="1"/>
        <pt x="350" y="0" on="1"/>
        <pt x="60" y="0" on="1"/>
        <pt x="60" y="40" on="1"/>
        <pt x="130" y="40" on="1"/>
        <pt x="130" y="660" on="1"/>
      </contour>
      <contour>
        <pt x="165" y="878" on="1"/>
        <pt x="184" y="870" on="0"/>
        <pt x="231" y="870" on="0"/>
        <pt x="284" y="906" on="0"/>
        <pt x="308" y="935" on="0"/>
        <pt x="326" y="960" on="1"/>
        <pt x="371" y="931" on="1"/>
        <pt x="321" y="840" on="0"/>
        <pt x="247" y="769" on="0"/>
        <pt x="163" y="769" on="0"/>
        <pt x="89" y="840" on="0"/>
        <pt x="39" y="931" on="1"/>
        <pt x="83" y="960" on="1"/>
        <pt x="132" y="893" on="0"/>
      </contour>
    </TTGlyph>
    <TTGlyph name="Icircumflex" xMin="39" yMin="0" xMax="371" yMax="965">
      <contour>
        <pt x="60" y="660" on="1"/>
        <pt x="60" y="700" on="1"/>
        <pt x="350" y="700" on="1"/>
        <pt x="350" y="660" on="1"/>
        <pt x="280" y="660" on="1"/>
        <pt x="280" y="40" on="1"/>
        <pt x="350" y="40" on="1"/>
        <pt x="350" y="0" on="1"/>
        <pt x="60" y="0" on="1"/>
        <pt x="60" y="40" on="1"/>
        <pt x="130" y="40" on="1"/>
        <pt x="130" y="660" on="1"/>
      </contour>
      <contour>
        <pt x="175" y="965" on="0"/>
        <pt x="235" y="965" on="0"/>
        <pt x="263" y="927" on="1"/>
        <pt x="371" y="783" on="1"/>
        <pt x="350" y="759" on="1"/>
        <pt x="209" y="854" on="1"/>
        <pt x="201" y="854" on="1"/>
        <pt x="60" y="759" on="1"/>
        <pt x="39" y="783" on="1"/>
        <pt x="147" y="927" on="1"/>
      </contour>
    </TTGlyph>
    <TTGlyph name="Idieresis" xMin="4" yMin="0" xMax="386" yMax="946">
      <contour>
        <pt x="60" y="660" on="1"/>
        <pt x="60" y="700" on="1"/>
        <pt x="350" y="700" on="1"/>
        <pt x="350" y="660" on="1"/>
        <pt x="280" y="660" on="1"/>
        <pt x="280" y="40" on="1"/>
        <pt x="350" y="40" on="1"/>
        <pt x="350" y="0" on="1"/>
        <pt x="60" y="0" on="1"/>
        <pt x="60" y="40" on="1"/>
        <pt x="130" y="40" on="1"/>
        <pt x="130" y="660" on="1"/>
      </contour>
      <contour>
        <pt x="4" y="838" on="0"/>
        <pt x="4" y="902" on="0"/>
        <pt x="48" y="946" on="0"/>
        <pt x="112" y="946" on="0"/>
        <pt x="156" y="902" on="0"/>
        <pt x="156" y="838" on="0"/>
        <pt x="112" y="794" on="0"/>
        <pt x="48" y="794" on="0"/>
      </contour>
      <contour>
        <pt x="234" y="838" on="0"/>
        <pt x="234" y="902" on="0"/>
        <pt x="278" y="946" on="0"/>
        <pt x="342" y="946" on="0"/>
        <pt x="386" y="902" on="0"/>
        <pt x="386" y="838" on="0"/>
        <pt x="342" y="794" on="0"/>
        <pt x="278" y="794" on="0"/>
      </contour>
    </TTGlyph>
    <TTGlyph name="Idotaccent" xMin="60" yMin="0" xMax="350" yMax="950">
      <contour>
        <pt x="60" y="660" on="1"/>
        <pt x="60" y="700" on="1"/>
        <pt x="350" y="700" on="1"/>
        <pt x="350" y="660" on="1"/>
        <pt x="280" y="660" on="1"/>
        <pt x="280" y="40" on="1"/>
        <pt x="350" y="40" on="1"/>
        <pt x="350" y="0" on="1"/>
        <pt x="60" y="0" on="1"/>
        <pt x="60" y="40" on="1"/>
        <pt x="130" y="40" on="1"/>
        <pt x="130" y="660" on="1"/>
      </contour>
      <contour>
        <pt x="125" y="837" on="0"/>
        <pt x="125" y="903" on="0"/>
        <pt x="172" y="950" on="0"/>
        <pt x="238" y="950" on="0"/>
        <pt x="285" y="903" on="0"/>
        <pt x="285" y="837" on="0"/>
        <pt x="238" y="790" on="0"/>
        <pt x="172" y="790" on="0"/>
      </contour>
    </TTGlyph>
    <TTGlyph name="Igrave" xMin="60" yMin="0" xMax="350" yMax="965">
      <contour>
        <pt x="60" y="660" on="1"/>
        <pt x="60" y="700" on="1"/>
        <pt x="350" y="700" on="1"/>
        <pt x="350" y="660" on="1"/>
        <pt x="280" y="660" on="1"/>
        <pt x="280" y="40" on="1"/>
        <pt x="350" y="40" on="1"/>
        <pt x="350" y="0" on="1"/>
        <pt x="60" y="0" on="1"/>
        <pt x="60" y="40" on="1"/>
        <pt x="130" y="40" on="1"/>
        <pt x="130" y="660" on="1"/>
      </contour>
      <contour>
        <pt x="79" y="936" on="0"/>
        <pt x="112" y="965" on="0"/>
        <pt x="151" y="965" on="0"/>
        <pt x="178" y="951" on="0"/>
        <pt x="195" y="934" on="0"/>
        <pt x="212" y="915" on="1"/>
        <pt x="331" y="783" on="1"/>
        <pt x="310" y="759" on="1"/>
        <pt x="162" y="832" on="1"/>
        <pt x="115" y="855" on="0"/>
        <pt x="79" y="890" on="0"/>
      </contour>
    </TTGlyph>
    <TTGlyph name="Imacron" xMin="58" yMin="0" xMax="352" yMax="900">
      <contour>
        <pt x="60" y="660" on="1"/>
        <pt x="60" y="700" on="1"/>
        <pt x="350" y="700" on="1"/>
        <pt x="350" y="660" on="1"/>
        <pt x="280" y="660" on="1"/>
        <pt x="280" y="40" on="1"/>
        <pt x="350" y="40" on="1"/>
        <pt x="350" y="0" on="1"/>
        <pt x="60" y="0" on="1"/>
        <pt x="60" y="40" on="1"/>
        <pt x="130" y="40" on="1"/>
        <pt x="130" y="660" on="1"/>
      </contour>
      <contour>
        <pt x="58" y="900" on="1"/>
        <pt x="352" y="900" on="1"/>
        <pt x="352" y="812" on="1"/>
        <pt x="58" y="812" on="1"/>
      </contour>
    </TTGlyph>
    <TTGlyph name="Iogonek" xMin="60" yMin="-238" xMax="350" yMax="700">
      <contour>
        <pt x="60" y="0" on="1"/>
        <pt x="60" y="40" on="1"/>
        <pt x="130" y="40" on="1"/>
        <pt x="130" y="660" on="1"/>
        <pt x="60" y="660" on="1"/>
        <pt x="60" y="700" on="1"/>
        <pt x="350" y="700" on="1"/>
        <pt x="350" y="660" on="1"/>
        <pt x="280" y="660" on="1"/>
        <pt x="280" y="40" on="1"/>
        <pt x="350" y="40" on="1"/>
        <pt x="350" y="0" on="1"/>
        <pt x="261" y="0" on="1"/>
        <pt x="253" y="-8" on="1"/>
        <pt x="215" y="-46" on="0"/>
        <pt x="191" y="-95" on="0"/>
        <pt x="191" y="-150" on="0"/>
        <pt x="224" y="-179" on="0"/>
        <pt x="286" y="-179" on="0"/>
        <pt x="316" y="-151" on="1"/>
        <pt x="333" y="-180" on="1"/>
        <pt x="285" y="-238" on="0"/>
        <pt x="209" y="-238" on="1"/>
        <pt x="162" y="-238" on="0"/>
        <pt x="100" y="-191" on="0"/>
        <pt x="100" y="-143" on="1"/>
        <pt x="100" y="-119" on="0"/>
        <pt x="130" y="-70" on="0"/>
        <pt x="160" y="-43" on="0"/>
        <pt x="187" y="-21" on="1"/>
        <pt x="213" y="0" on="1"/>
      </contour>
    </TTGlyph>
    <TTGlyph name="Itilde" xMin="49" yMin="0" xMax="362" yMax="962">
      <contour>
        <pt x="60" y="660" on="1"/>
        <pt x="60" y="700" on="1"/>
        <pt x="350" y="700" on="1"/>
        <pt x="350" y="660" on="1"/>
        <pt x="280" y="660" on="1"/>
        <pt x="280" y="40" on="1"/>
        <pt x="350" y="40" on="1"/>
        <pt x="350" y="0" on="1"/>
        <pt x="60" y="0" on="1"/>
        <pt x="60" y="40" on="1"/>
        <pt x="130" y="40" on="1"/>
        <pt x="130" y="660" on="1"/>
      </contour>
      <contour>
        <pt x="318" y="809" on="1"/>
        <pt x="318" y="824" on="1"/>
        <pt x="318" y="863" on="0"/>
        <pt x="290" y="863" on="1"/>
        <pt x="278" y="863" on="0"/>
        <pt x="267" y="856" on="1"/>
        <pt x="182" y="808" on="1"/>
        <pt x="150" y="789" on="0"/>
        <pt x="94" y="789" on="0"/>
        <pt x="49" y="841" on="0"/>
        <pt x="49" y="910" on="0"/>
        <pt x="57" y="942" on="1"/>
        <pt x="93" y="942" on="1"/>
        <pt x="93" y="927" on="1"/>
        <pt x="93" y="888" on="0"/>
        <pt x="121" y="888" on="1"/>
        <pt x="133" y="888" on="0"/>
        <pt x="144" y="895" on="1"/>
        <pt x="229" y="943" on="1"/>
        <pt x="261" y="962" on="0"/>
        <pt x="317" y="962" on="0"/>
        <pt x="362" y="910" on="0"/>
        <pt x="362" y="841" on="0"/>
        <pt x="354" y="809" on="1"/>
      </contour>
    </TTGlyph>
    <TTGlyph name="J" xMin="10" yMin="-15" xMax="475" yMax="700">
      <contour>
        <pt x="415" y="660" on="1"/>
        <pt x="415" y="190" on="1"/>
        <pt x="415" y="85" on="0"/>
        <pt x="288" y="-15" on="0"/>
        <pt x="181" y="-15" on="1"/>
        <pt x="120" y="-15" on="0"/>
        <pt x="10" y="49" on="0"/>
        <pt x="10" y="93" on="1"/>
        <pt x="10" y="110" on="0"/>
        <pt x="21" y="132" on="1"/>
        <pt x="81" y="248" on="1"/>
        <pt x="117" y="237" on="1"/>
        <pt x="108" y="175" on="1"/>
        <pt x="104" y="140" on="0"/>
        <pt x="104" y="78" on="0"/>
        <pt x="147" y="32" on="0"/>
        <pt x="220" y="32" on="0"/>
        <pt x="265" y="82" on="0"/>
        <pt x="265" y="132" on="1"/>
        <pt x="265" y="660" on="1"/>
        <pt x="170" y="660" on="1"/>
        <pt x="170" y="700" on="1"/>
        <pt x="475" y="700" on="1"/>
        <pt x="475" y="660" on="1"/>
      </contour>
    </TTGlyph>
    <TTGlyph name="Jcircumflex" xMin="10" yMin="-15" xMax="489" yMax="965">
      <contour>
        <pt x="415" y="660" on="1"/>
        <pt x="415" y="190" on="1"/>
        <pt x="415" y="85" on="0"/>
        <pt x="288" y="-15" on="0"/>
        <pt x="181" y="-15" on="1"/>
        <pt x="120" y="-15" on="0"/>
        <pt x="10" y="49" on="0"/>
        <pt x="10" y="93" on="1"/>
        <pt x="10" y="110" on="0"/>
        <pt x="21" y="132" on="1"/>
        <pt x="81" y="248" on="1"/>
        <pt x="117" y="237" on="1"/>
        <pt x="108" y="175" on="1"/>
        <pt x="104" y="140" on="0"/>
        <pt x="104" y="78" on="0"/>
        <pt x="147" y="32" on="0"/>
        <pt x="220" y="32" on="0"/>
        <pt x="265" y="82" on="0"/>
        <pt x="265" y="132" on="1"/>
        <pt x="265" y="660" on="1"/>
        <pt x="170" y="660" on="1"/>
        <pt x="170" y="700" on="1"/>
        <pt x="475" y="700" on="1"/>
        <pt x="475" y="660" on="1"/>
      </contour>
      <contour>
        <pt x="293" y="965" on="0"/>
        <pt x="353" y="965" on="0"/>
        <pt x="381" y="927" on="1"/>
        <pt x="489" y="783" on="1"/>
        <pt x="468" y="759" on="1"/>
        <pt x="327" y="854" on="1"/>
        <pt x="319" y="854" on="1"/>
        <pt x="178" y="759" on="1"/>
        <pt x="157" y="783" on="1"/>
        <pt x="265" y="927" on="1"/>
      </contour>
    </TTGlyph>
    <TTGlyph name="K" xMin="70" yMin="-15" xMax="705" yMax="700">
      <contour>
        <pt x="70" y="660" on="1"/>
        <pt x="70" y="700" on="1"/>
        <pt x="340" y="700" on="1"/>
        <pt x="340" y="660" on="1"/>
        <pt x="280" y="660" on="1"/>
        <pt x="280" y="355" on="1"/>
        <pt x="493" y="700" on="1"/>
        <pt x="652" y="700" on="1"/>
        <pt x="652" y="660" on="1"/>
        <pt x="597" y="660" on="1"/>
        <pt x="307" y="335" on="1"/>
        <pt x="372" y="335" on="1"/>
        <pt x="500" y="335" on="0"/>
        <pt x="529" y="238" on="1"/>
        <pt x="571" y="98" on="1"/>
        <pt x="578" y="73" on="0"/>
        <pt x="600" y="53" on="0"/>
        <pt x="652" y="53" on="0"/>
        <pt x="687" y="82" on="1"/>
        <pt x="705" y="58" on="1"/>
        <pt x="625" y="-15" on="0"/>
        <pt x="535" y="-15" on="1"/>
        <pt x="489" y="-15" on="0"/>
        <pt x="433" y="17" on="0"/>
        <pt x="421" y="57" on="1"/>
        <pt x="362" y="251" on="1"/>
        <pt x="354" y="279" on="0"/>
        <pt x="320" y="301" on="0"/>
        <pt x="280" y="303" on="1"/>
        <pt x="280" y="40" on="1"/>
        <pt x="340" y="40" on="1"/>
        <pt x="340" y="0" on="1"/>
        <pt x="70" y="0" on="1"/>
        <pt x="70" y="40" on="1"/>
        <pt x="130" y="40" on="1"/>
        <pt x="130" y="660" on="1"/>
      </contour>
    </TTGlyph>
    <TTGlyph name="L" xMin="70" yMin="0" xMax="560" yMax="700">
      <contour>
        <pt x="70" y="660" on="1"/>
        <pt x="70" y="700" on="1"/>
        <pt x="340" y="700" on="1"/>
        <pt x="340" y="660" on="1"/>
        <pt x="280" y="660" on="1"/>
        <pt x="280" y="40" on="1"/>
        <pt x="350" y="40" on="1"/>
        <pt x="416" y="40" on="0"/>
        <pt x="465" y="66" on="0"/>
        <pt x="474" y="111" on="1"/>
        <pt x="494" y="210" on="1"/>
        <pt x="533" y="210" on="1"/>
        <pt x="560" y="42" on="1"/>
        <pt x="560" y="22" on="0"/>
        <pt x="542" y="3" on="0"/>
        <pt x="521" y="0" on="0"/>
        <pt x="499" y="0" on="1"/>
        <pt x="70" y="0" on="1"/>
        <pt x="70" y="40" on="1"/>
        <pt x="130" y="40" on="1"/>
        <pt x="130" y="660" on="1"/>
      </contour>
    </TTGlyph>
    <TTGlyph name="Lacute" xMin="70" yMin="0" xMax="560" yMax="965">
      <contour>
        <pt x="70" y="660" on="1"/>
        <pt x="70" y="700" on="1"/>
        <pt x="340" y="700" on="1"/>
        <pt x="340" y="660" on="1"/>
        <pt x="280" y="660" on="1"/>
        <pt x="280" y="40" on="1"/>
        <pt x="350" y="40" on="1"/>
        <pt x="416" y="40" on="0"/>
        <pt x="465" y="66" on="0"/>
        <pt x="474" y="111" on="1"/>
        <pt x="494" y="210" on="1"/>
        <pt x="533" y="210" on="1"/>
        <pt x="560" y="42" on="1"/>
        <pt x="560" y="22" on="0"/>
        <pt x="542" y="3" on="0"/>
        <pt x="521" y="0" on="0"/>
        <pt x="499" y="0" on="1"/>
        <pt x="70" y="0" on="1"/>
        <pt x="70" y="40" on="1"/>
        <pt x="130" y="40" on="1"/>
        <pt x="130" y="660" on="1"/>
      </contour>
      <contour>
        <pt x="241" y="951" on="0"/>
        <pt x="268" y="965" on="0"/>
        <pt x="307" y="965" on="0"/>
        <pt x="340" y="936" on="0"/>
        <pt x="340" y="890" on="0"/>
        <pt x="304" y="855" on="0"/>
        <pt x="257" y="832" on="1"/>
        <pt x="109" y="759" on="1"/>
        <pt x="88" y="783" on="1"/>
        <pt x="207" y="915" on="1"/>
        <pt x="224" y="934" on="0"/>
      </contour>
    </TTGlyph>
    <TTGlyph name="Lcaron" xMin="70" yMin="0" xMax="560" yMax="790">
      <contour>
        <pt x="70" y="660" on="1"/>
        <pt x="70" y="700" on="1"/>
        <pt x="340" y="700" on="1"/>
        <pt x="340" y="660" on="1"/>
        <pt x="280" y="660" on="1"/>
        <pt x="280" y="40" on="1"/>
        <pt x="350" y="40" on="1"/>
        <pt x="416" y="40" on="0"/>
        <pt x="465" y="66" on="0"/>
        <pt x="474" y="111" on="1"/>
        <pt x="494" y="210" on="1"/>
        <pt x="533" y="210" on="1"/>
        <pt x="560" y="42" on="1"/>
        <pt x="560" y="22" on="0"/>
        <pt x="542" y="3" on="0"/>
        <pt x="521" y="0" on="0"/>
        <pt x="499" y="0" on="1"/>
        <pt x="70" y="0" on="1"/>
        <pt x="70" y="40" on="1"/>
        <pt x="130" y="40" on="1"/>
        <pt x="130" y="660" on="1"/>
      </contour>
      <contour>
        <pt x="437" y="635" on="0"/>
        <pt x="386" y="694" on="0"/>
        <pt x="386" y="751" on="0"/>
        <pt x="425" y="790" on="0"/>
        <pt x="482" y="790" on="0"/>
        <pt x="520" y="746" on="0"/>
        <pt x="520" y="656" on="0"/>
        <pt x="465" y="545" on="0"/>
        <pt x="415" y="500" on="1"/>
        <pt x="393" y="522" on="1"/>
        <pt x="437" y="573" on="0"/>
        <pt x="437" y="612" on="1"/>
      </contour>
    </TTGlyph>
    <TTGlyph name="Ldot" xMin="70" yMin="0" xMax="560" yMax="700">
      <contour>
        <pt x="70" y="660" on="1"/>
        <pt x="70" y="700" on="1"/>
        <pt x="340" y="700" on="1"/>
        <pt x="340" y="660" on="1"/>
        <pt x="280" y="660" on="1"/>
        <pt x="280" y="40" on="1"/>
        <pt x="350" y="40" on="1"/>
        <pt x="416" y="40" on="0"/>
        <pt x="465" y="66" on="0"/>
        <pt x="474" y="111" on="1"/>
        <pt x="494" y="210" on="1"/>
        <pt x="533" y="210" on="1"/>
        <pt x="560" y="42" on="1"/>
        <pt x="560" y="22" on="0"/>
        <pt x="542" y="3" on="0"/>
        <pt x="521" y="0" on="0"/>
        <pt x="499" y="0" on="1"/>
        <pt x="70" y="0" on="1"/>
        <pt x="70" y="40" on="1"/>
        <pt x="130" y="40" on="1"/>
        <pt x="130" y="660" on="1"/>
      </contour>
      <contour>
        <pt x="354" y="380" on="0"/>
        <pt x="354" y="444" on="0"/>
        <pt x="399" y="489" on="0"/>
        <pt x="463" y="489" on="0"/>
        <pt x="508" y="444" on="0"/>
        <pt x="508" y="380" on="0"/>
        <pt x="463" y="335" on="0"/>
        <pt x="399" y="335" on="0"/>
      </contour>
    </TTGlyph>
    <TTGlyph name="Lslash" xMin="34" yMin="0" xMax="560" yMax="700">
      <contour>
        <pt x="130" y="660" on="1"/>
        <pt x="70" y="660" on="1"/>
        <pt x="70" y="700" on="1"/>
        <pt x="340" y="700" on="1"/>
        <pt x="340" y="660" on="1"/>
        <pt x="280" y="660" on="1"/>
        <pt x="280" y="456" on="1"/>
        <pt x="358" y="496" on="1"/>
        <pt x="377" y="458" on="1"/>
        <pt x="280" y="408" on="1"/>
        <pt x="280" y="40" on="1"/>
        <pt x="350" y="40" on="1"/>
        <pt x="416" y="40" on="0"/>
        <pt x="465" y="66" on="0"/>
        <pt x="474" y="111" on="1"/>
        <pt x="494" y="210" on="1"/>
        <pt x="533" y="210" on="1"/>
        <pt x="560" y="42" on="1"/>
        <pt x="560" y="22" on="0"/>
        <pt x="542" y="3" on="0"/>
        <pt x="521" y="0" on="0"/>
        <pt x="499" y="0" on="1"/>
        <pt x="70" y="0" on="1"/>
        <pt x="70" y="40" on="1"/>
        <pt x="130" y="40" on="1"/>
        <pt x="130" y="332" on="1"/>
        <pt x="53" y="293" on="1"/>
        <pt x="34" y="331" on="1"/>
        <pt x="130" y="380" on="1"/>
      </contour>
    </TTGlyph>
    <TTGlyph name="M" xMin="20" yMin="0" xMax="878" yMax="700">
      <contour>
        <pt x="48" y="660" on="1"/>
        <pt x="48" y="700" on="1"/>
        <pt x="269" y="700" on="1"/>
        <pt x="451" y="101" on="1"/>
        <pt x="623" y="700" on="1"/>
        <pt x="850" y="700" on="1"/>
        <pt x="850" y="660" on="1"/>
        <pt x="782" y="660" on="1"/>
        <pt x="818" y="40" on="1"/>
        <pt x="878" y="40" on="1"/>
        <pt x="878" y="0" on="1"/>
        <pt x="610" y="0" on="1"/>
        <pt x="610" y="40" on="1"/>
        <pt x="667" y="40" on="1"/>
        <pt x="636" y="535" on="1"/>
        <pt x="482" y="0" on="1"/>
        <pt x="331" y="0" on="1"/>
        <pt x="168" y="534" on="1"/>
        <pt x="140" y="40" on="1"/>
        <pt x="198" y="40" on="1"/>
        <pt x="198" y="0" on="1"/>
        <pt x="20" y="0" on="1"/>
        <pt x="20" y="40" on="1"/>
        <pt x="80" y="40" on="1"/>
        <pt x="115" y="660" on="1"/>
      </contour>
    </TTGlyph>
    <TTGlyph name="N" xMin="60" yMin="0" xMax="710" yMax="700">
      <contour>
        <pt x="60" y="0" on="1"/>
        <pt x="60" y="40" on="1"/>
        <pt x="120" y="40" on="1"/>
        <pt x="120" y="660" on="1"/>
        <pt x="60" y="660" on="1"/>
        <pt x="60" y="700" on="1"/>
        <pt x="294" y="700" on="1"/>
        <pt x="580" y="137" on="1"/>
        <pt x="580" y="660" on="1"/>
        <pt x="520" y="660" on="1"/>
        <pt x="520" y="700" on="1"/>
        <pt x="710" y="700" on="1"/>
        <pt x="710" y="660" on="1"/>
        <pt x="650" y="660" on="1"/>
        <pt x="650" y="0" on="1"/>
        <pt x="491" y="0" on="1"/>
        <pt x="190" y="592" on="1"/>
        <pt x="190" y="40" on="1"/>
        <pt x="250" y="40" on="1"/>
        <pt x="250" y="0" on="1"/>
      </contour>
    </TTGlyph>
    <TTGlyph name="Nacute" xMin="60" yMin="0" xMax="710" yMax="965">
      <contour>
        <pt x="60" y="0" on="1"/>
        <pt x="60" y="40" on="1"/>
        <pt x="120" y="40" on="1"/>
        <pt x="120" y="660" on="1"/>
        <pt x="60" y="660" on="1"/>
        <pt x="60" y="700" on="1"/>
        <pt x="294" y="700" on="1"/>
        <pt x="580" y="137" on="1"/>
        <pt x="580" y="660" on="1"/>
        <pt x="520" y="660" on="1"/>
        <pt x="520" y="700" on="1"/>
        <pt x="710" y="700" on="1"/>
        <pt x="710" y="660" on="1"/>
        <pt x="650" y="660" on="1"/>
        <pt x="650" y="0" on="1"/>
        <pt x="491" y="0" on="1"/>
        <pt x="190" y="592" on="1"/>
        <pt x="190" y="40" on="1"/>
        <pt x="250" y="40" on="1"/>
        <pt x="250" y="0" on="1"/>
      </contour>
      <contour>
        <pt x="462" y="951" on="0"/>
        <pt x="489" y="965" on="0"/>
        <pt x="528" y="965" on="0"/>
        <pt x="561" y="936" on="0"/>
        <pt x="561" y="890" on="0"/>
        <pt x="525" y="855" on="0"/>
        <pt x="478" y="832" on="1"/>
        <pt x="330" y="759" on="1"/>
        <pt x="309" y="783" on="1"/>
        <pt x="428" y="915" on="1"/>
        <pt x="445" y="934" on="0"/>
      </contour>
    </TTGlyph>
    <TTGlyph name="Ncaron" xMin="60" yMin="0" xMax="710" yMax="965">
      <contour>
        <pt x="60" y="0" on="1"/>
        <pt x="60" y="40" on="1"/>
        <pt x="120" y="40" on="1"/>
        <pt x="120" y="660" on="1"/>
        <pt x="60" y="660" on="1"/>
        <pt x="60" y="700" on="1"/>
        <pt x="294" y="700" on="1"/>
        <pt x="580" y="137" on="1"/>
        <pt x="580" y="660" on="1"/>
        <pt x="520" y="660" on="1"/>
        <pt x="520" y="700" on="1"/>
        <pt x="710" y="700" on="1"/>
        <pt x="710" y="660" on="1"/>
        <pt x="650" y="660" on="1"/>
        <pt x="650" y="0" on="1"/>
        <pt x="491" y="0" on="1"/>
        <pt x="190" y="592" on="1"/>
        <pt x="190" y="40" on="1"/>
        <pt x="250" y="40" on="1"/>
        <pt x="250" y="0" on="1"/>
      </contour>
      <contour>
        <pt x="431" y="759" on="0"/>
        <pt x="371" y="759" on="0"/>
        <pt x="343" y="797" on="1"/>
        <pt x="235" y="941" on="1"/>
        <pt x="256" y="965" on="1"/>
        <pt x="397" y="870" on="1"/>
        <pt x="405" y="870" on="1"/>
        <pt x="546" y="965" on="1"/>
        <pt x="567" y="941" on="1"/>
        <pt x="459" y="797" on="1"/>
      </contour>
    </TTGlyph>
    <TTGlyph name="Ntilde" xMin="60" yMin="0" xMax="710" yMax="962">
      <contour>
        <pt x="60" y="0" on="1"/>
        <pt x="60" y="40" on="1"/>
        <pt x="120" y="40" on="1"/>
        <pt x="120" y="660" on="1"/>
        <pt x="60" y="660" on="1"/>
        <pt x="60" y="700" on="1"/>
        <pt x="294" y="700" on="1"/>
        <pt x="580" y="137" on="1"/>
        <pt x="580" y="660" on="1"/>
        <pt x="520" y="660" on="1"/>
        <pt x="520" y="700" on="1"/>
        <pt x="710" y="700" on="1"/>
        <pt x="710" y="660" on="1"/>
        <pt x="650" y="660" on="1"/>
        <pt x="650" y="0" on="1"/>
        <pt x="491" y="0" on="1"/>
        <pt x="190" y="592" on="1"/>
        <pt x="190" y="40" on="1"/>
        <pt x="250" y="40" on="1"/>
        <pt x="250" y="0" on="1"/>
      </contour>
      <contour>
        <pt x="510" y="809" on="1"/>
        <pt x="510" y="824" on="1"/>
        <pt x="510" y="863" on="0"/>
        <pt x="482" y="863" on="1"/>
        <pt x="470" y="863" on="0"/>
        <pt x="459" y="856" on="1"/>
        <pt x="374" y="808" on="1"/>
        <pt x="342" y="789" on="0"/>
        <pt x="286" y="789" on="0"/>
        <pt x="241" y="841" on="0"/>
        <pt x="241" y="910" on="0"/>
        <pt x="249" y="942" on="1"/>
        <pt x="285" y="942" on="1"/>
        <pt x="285" y="927" on="1"/>
        <pt x="285" y="888" on="0"/>
        <pt x="313" y="888" on="1"/>
        <pt x="325" y="888" on="0"/>
        <pt x="336" y="895" on="1"/>
        <pt x="421" y="943" on="1"/>
        <pt x="453" y="962" on="0"/>
        <pt x="509" y="962" on="0"/>
        <pt x="554" y="910" on="0"/>
        <pt x="554" y="841" on="0"/>
        <pt x="546" y="809" on="1"/>
      </contour>
    </TTGlyph>
    <TTGlyph name="O" xMin="50" yMin="-15" xMax="718" yMax="715">
      <contour>
        <pt x="50" y="508" on="0"/>
        <pt x="223" y="715" on="0"/>
        <pt x="544" y="715" on="0"/>
        <pt x="718" y="509" on="0"/>
        <pt x="718" y="190" on="0"/>
        <pt x="544" y="-15" on="0"/>
        <pt x="223" y="-15" on="0"/>
        <pt x="50" y="190" on="0"/>
      </contour>
      <contour>
        <pt x="384" y="668" on="1"/>
        <pt x="325" y="668" on="0"/>
        <pt x="284" y="622" on="1"/>
        <pt x="205" y="536" on="0"/>
        <pt x="205" y="349" on="1"/>
        <pt x="205" y="163" on="0"/>
        <pt x="284" y="78" on="1"/>
        <pt x="326" y="32" on="0"/>
        <pt x="384" y="32" on="1"/>
        <pt x="470" y="32" on="0"/>
        <pt x="563" y="216" on="0"/>
        <pt x="563" y="483" on="0"/>
        <pt x="470" y="668" on="0"/>
      </contour>
    </TTGlyph>
    <TTGlyph name="OE" xMin="50" yMin="0" xMax="923" yMax="700">
      <contour>
        <pt x="623" y="273" on="1"/>
        <pt x="623" y="40" on="1"/>
        <pt x="713" y="40" on="1"/>
        <pt x="778" y="40" on="0"/>
        <pt x="827" y="66" on="0"/>
        <pt x="837" y="111" on="1"/>
        <pt x="857" y="200" on="1"/>
        <pt x="896" y="200" on="1"/>
        <pt x="923" y="42" on="1"/>
        <pt x="923" y="22" on="0"/>
        <pt x="905" y="3" on="0"/>
        <pt x="884" y="0" on="0"/>
        <pt x="862" y="0" on="1"/>
        <pt x="413" y="0" on="1"/>
        <pt x="238" y="0" on="0"/>
        <pt x="50" y="197" on="0"/>
        <pt x="50" y="502" on="0"/>
        <pt x="238" y="700" on="0"/>
        <pt x="413" y="700" on="1"/>
        <pt x="842" y="700" on="1"/>
        <pt x="864" y="700" on="0"/>
        <pt x="885" y="697" on="0"/>
        <pt x="903" y="678" on="0"/>
        <pt x="903" y="658" on="1"/>
        <pt x="876" y="490" on="1"/>
        <pt x="837" y="490" on="1"/>
        <pt x="817" y="589" on="1"/>
        <pt x="808" y="634" on="0"/>
        <pt x="759" y="660" on="0"/>
        <pt x="693" y="660" on="1"/>
        <pt x="623" y="660" on="1"/>
        <pt x="623" y="318" on="1"/>
        <pt x="853" y="318" on="1"/>
        <pt x="853" y="273" on="1"/>
      </contour>
      <contour>
        <pt x="413" y="40" on="1"/>
        <pt x="473" y="40" on="1"/>
        <pt x="473" y="660" on="1"/>
        <pt x="413" y="660" on="1"/>
        <pt x="311" y="660" on="0"/>
        <pt x="205" y="483" on="0"/>
        <pt x="205" y="349" on="1"/>
        <pt x="205" y="166" on="0"/>
        <pt x="296" y="84" on="1"/>
        <pt x="344" y="40" on="0"/>
      </contour>
    </TTGlyph>
    <TTGlyph name="Oacute" xMin="50" yMin="-15" xMax="718" yMax="965">
      <contour>
        <pt x="50" y="508" on="0"/>
        <pt x="223" y="715" on="0"/>
        <pt x="544" y="715" on="0"/>
        <pt x="718" y="509" on="0"/>
        <pt x="718" y="190" on="0"/>
        <pt x="544" y="-15" on="0"/>
        <pt x="223" y="-15" on="0"/>
        <pt x="50" y="190" on="0"/>
      </contour>
      <contour>
        <pt x="384" y="668" on="1"/>
        <pt x="325" y="668" on="0"/>
        <pt x="284" y="622" on="1"/>
        <pt x="205" y="536" on="0"/>
        <pt x="205" y="349" on="1"/>
        <pt x="205" y="163" on="0"/>
        <pt x="284" y="78" on="1"/>
        <pt x="326" y="32" on="0"/>
        <pt x="384" y="32" on="1"/>
        <pt x="470" y="32" on="0"/>
        <pt x="563" y="216" on="0"/>
        <pt x="563" y="483" on="0"/>
        <pt x="470" y="668" on="0"/>
      </contour>
      <contour>
        <pt x="411" y="951" on="0"/>
        <pt x="438" y="965" on="0"/>
        <pt x="477" y="965" on="0"/>
        <pt x="510" y="936" on="0"/>
        <pt x="510" y="890" on="0"/>
        <pt x="474" y="855" on="0"/>
        <pt x="427" y="832" on="1"/>
        <pt x="279" y="759" on="1"/>
        <pt x="258" y="783" on="1"/>
        <pt x="377" y="915" on="1"/>
        <pt x="394" y="934" on="0"/>
      </contour>
    </TTGlyph>
    <TTGlyph name="Obreve" xMin="50" yMin="-15" xMax="718" yMax="960">
      <contour>
        <pt x="50" y="508" on="0"/>
        <pt x="223" y="715" on="0"/>
        <pt x="544" y="715" on="0"/>
        <pt x="718" y="509" on="0"/>
        <pt x="718" y="190" on="0"/>
        <pt x="544" y="-15" on="0"/>
        <pt x="223" y="-15" on="0"/>
        <pt x="50" y="190" on="0"/>
      </contour>
      <contour>
        <pt x="384" y="668" on="1"/>
        <pt x="325" y="668" on="0"/>
        <pt x="284" y="622" on="1"/>
        <pt x="205" y="536" on="0"/>
        <pt x="205" y="349" on="1"/>
        <pt x="205" y="163" on="0"/>
        <pt x="284" y="78" on="1"/>
        <pt x="326" y="32" on="0"/>
        <pt x="384" y="32" on="1"/>
        <pt x="470" y="32" on="0"/>
        <pt x="563" y="216" on="0"/>
        <pt x="563" y="483" on="0"/>
        <pt x="470" y="668" on="0"/>
      </contour>
      <contour>
        <pt x="344" y="878" on="1"/>
        <pt x="363" y="870" on="0"/>
        <pt x="410" y="870" on="0"/>
        <pt x="463" y="906" on="0"/>
        <pt x="487" y="935" on="0"/>
        <pt x="505" y="960" on="1"/>
        <pt x="550" y="931" on="1"/>
        <pt x="500" y="840" on="0"/>
        <pt x="426" y="769" on="0"/>
        <pt x="342" y="769" on="0"/>
        <pt x="268" y="840" on="0"/>
        <pt x="218" y="931" on="1"/>
        <pt x="262" y="960" on="1"/>
        <pt x="311" y="893" on="0"/>
      </contour>
    </TTGlyph>
    <TTGlyph name="Ocircumflex" xMin="50" yMin="-15" xMax="718" yMax="965">
      <contour>
        <pt x="50" y="508" on="0"/>
        <pt x="223" y="715" on="0"/>
        <pt x="544" y="715" on="0"/>
        <pt x="718" y="509" on="0"/>
        <pt x="718" y="190" on="0"/>
        <pt x="544" y="-15" on="0"/>
        <pt x="223" y="-15" on="0"/>
        <pt x="50" y="190" on="0"/>
      </contour>
      <contour>
        <pt x="384" y="668" on="1"/>
        <pt x="325" y="668" on="0"/>
        <pt x="284" y="622" on="1"/>
        <pt x="205" y="536" on="0"/>
        <pt x="205" y="349" on="1"/>
        <pt x="205" y="163" on="0"/>
        <pt x="284" y="78" on="1"/>
        <pt x="326" y="32" on="0"/>
        <pt x="384" y="32" on="1"/>
        <pt x="470" y="32" on="0"/>
        <pt x="563" y="216" on="0"/>
        <pt x="563" y="483" on="0"/>
        <pt x="470" y="668" on="0"/>
      </contour>
      <contour>
        <pt x="354" y="965" on="0"/>
        <pt x="414" y="965" on="0"/>
        <pt x="442" y="927" on="1"/>
        <pt x="550" y="783" on="1"/>
        <pt x="529" y="759" on="1"/>
        <pt x="388" y="854" on="1"/>
        <pt x="380" y="854" on="1"/>
        <pt x="239" y="759" on="1"/>
        <pt x="218" y="783" on="1"/>
        <pt x="326" y="927" on="1"/>
      </contour>
    </TTGlyph>
    <TTGlyph name="Odieresis" xMin="50" yMin="-15" xMax="718" yMax="946">
      <contour>
        <pt x="50" y="508" on="0"/>
        <pt x="223" y="715" on="0"/>
        <pt x="544" y="715" on="0"/>
        <pt x="718" y="509" on="0"/>
        <pt x="718" y="190" on="0"/>
        <pt x="544" y="-15" on="0"/>
        <pt x="223" y="-15" on="0"/>
        <pt x="50" y="190" on="0"/>
      </contour>
      <contour>
        <pt x="384" y="668" on="1"/>
        <pt x="325" y="668" on="0"/>
        <pt x="284" y="622" on="1"/>
        <pt x="205" y="536" on="0"/>
        <pt x="205" y="349" on="1"/>
        <pt x="205" y="163" on="0"/>
        <pt x="284" y="78" on="1"/>
        <pt x="326" y="32" on="0"/>
        <pt x="384" y="32" on="1"/>
        <pt x="470" y="32" on="0"/>
        <pt x="563" y="216" on="0"/>
        <pt x="563" y="483" on="0"/>
        <pt x="470" y="668" on="0"/>
      </contour>
      <contour>
        <pt x="193" y="838" on="0"/>
        <pt x="193" y="902" on="0"/>
        <pt x="238" y="946" on="0"/>
        <pt x="300" y="946" on="0"/>
        <pt x="345" y="902" on="0"/>
        <pt x="345" y="838" on="0"/>
        <pt x="300" y="794" on="0"/>
        <pt x="238" y="794" on="0"/>
      </contour>
      <contour>
        <pt x="423" y="838" on="0"/>
        <pt x="423" y="902" on="0"/>
        <pt x="468" y="946" on="0"/>
        <pt x="530" y="946" on="0"/>
        <pt x="575" y="902" on="0"/>
        <pt x="575" y="838" on="0"/>
        <pt x="530" y="794" on="0"/>
        <pt x="468" y="794" on="0"/>
      </contour>
    </TTGlyph>
    <TTGlyph name="Ograve" xMin="50" yMin="-15" xMax="718" yMax="965">
      <contour>
        <pt x="50" y="508" on="0"/>
        <pt x="223" y="715" on="0"/>
        <pt x="544" y="715" on="0"/>
        <pt x="718" y="509" on="0"/>
        <pt x="718" y="190" on="0"/>
        <pt x="544" y="-15" on="0"/>
        <pt x="223" y="-15" on="0"/>
        <pt x="50" y="190" on="0"/>
      </contour>
      <contour>
        <pt x="384" y="668" on="1"/>
        <pt x="325" y="668" on="0"/>
        <pt x="284" y="622" on="1"/>
        <pt x="205" y="536" on="0"/>
        <pt x="205" y="349" on="1"/>
        <pt x="205" y="163" on="0"/>
        <pt x="284" y="78" on="1"/>
        <pt x="326" y="32" on="0"/>
        <pt x="384" y="32" on="1"/>
        <pt x="470" y="32" on="0"/>
        <pt x="563" y="216" on="0"/>
        <pt x="563" y="483" on="0"/>
        <pt x="470" y="668" on="0"/>
      </contour>
      <contour>
        <pt x="238" y="936" on="0"/>
        <pt x="271" y="965" on="0"/>
        <pt x="310" y="965" on="0"/>
        <pt x="337" y="951" on="0"/>
        <pt x="354" y="934" on="0"/>
        <pt x="371" y="915" on="1"/>
        <pt x="490" y="783" on="1"/>
        <pt x="469" y="759" on="1"/>
        <pt x="321" y="832" on="1"/>
        <pt x="274" y="855" on="0"/>
        <pt x="238" y="890" on="0"/>
      </contour>
    </TTGlyph>
    <TTGlyph name="Ohungarumlaut" xMin="50" yMin="-15" xMax="718" yMax="965">
      <contour>
        <pt x="50" y="508" on="0"/>
        <pt x="223" y="715" on="0"/>
        <pt x="544" y="715" on="0"/>
        <pt x="718" y="509" on="0"/>
        <pt x="718" y="190" on="0"/>
        <pt x="544" y="-15" on="0"/>
        <pt x="223" y="-15" on="0"/>
        <pt x="50" y="190" on="0"/>
      </contour>
      <contour>
        <pt x="384" y="668" on="1"/>
        <pt x="325" y="668" on="0"/>
        <pt x="284" y="622" on="1"/>
        <pt x="205" y="536" on="0"/>
        <pt x="205" y="349" on="1"/>
        <pt x="205" y="163" on="0"/>
        <pt x="284" y="78" on="1"/>
        <pt x="326" y="32" on="0"/>
        <pt x="384" y="32" on="1"/>
        <pt x="470" y="32" on="0"/>
        <pt x="563" y="216" on="0"/>
        <pt x="563" y="483" on="0"/>
        <pt x="470" y="668" on="0"/>
      </contour>
      <contour>
        <pt x="321" y="941" on="0"/>
        <pt x="354" y="965" on="0"/>
        <pt x="398" y="965" on="0"/>
        <pt x="427" y="940" on="0"/>
        <pt x="427" y="919" on="1"/>
        <pt x="427" y="885" on="0"/>
        <pt x="379" y="850" on="1"/>
        <pt x="254" y="759" on="1"/>
        <pt x="230" y="782" on="1"/>
        <pt x="303" y="910" on="1"/>
      </contour>
      <contour>
        <pt x="511" y="941" on="0"/>
        <pt x="544" y="965" on="0"/>
        <pt x="588" y="965" on="0"/>
        <pt x="617" y="940" on="0"/>
        <pt x="617" y="919" on="1"/>
        <pt x="617" y="885" on="0"/>
        <pt x="569" y="850" on="1"/>
        <pt x="444" y="759" on="1"/>
        <pt x="420" y="782" on="1"/>
        <pt x="493" y="910" on="1"/>
      </contour>
    </TTGlyph>
    <TTGlyph name="Omacron" xMin="50" yMin="-15" xMax="718" yMax="900">
      <contour>
        <pt x="50" y="508" on="0"/>
        <pt x="223" y="715" on="0"/>
        <pt x="544" y="715" on="0"/>
        <pt x="718" y="509" on="0"/>
        <pt x="718" y="190" on="0"/>
        <pt x="544" y="-15" on="0"/>
        <pt x="223" y="-15" on="0"/>
        <pt x="50" y="190" on="0"/>
      </contour>
      <contour>
        <pt x="384" y="668" on="1"/>
        <pt x="325" y="668" on="0"/>
        <pt x="284" y="622" on="1"/>
        <pt x="205" y="536" on="0"/>
        <pt x="205" y="349" on="1"/>
        <pt x="205" y="163" on="0"/>
        <pt x="284" y="78" on="1"/>
        <pt x="326" y="32" on="0"/>
        <pt x="384" y="32" on="1"/>
        <pt x="470" y="32" on="0"/>
        <pt x="563" y="216" on="0"/>
        <pt x="563" y="483" on="0"/>
        <pt x="470" y="668" on="0"/>
      </contour>
      <contour>
        <pt x="237" y="900" on="1"/>
        <pt x="531" y="900" on="1"/>
        <pt x="531" y="812" on="1"/>
        <pt x="237" y="812" on="1"/>
      </contour>
    </TTGlyph>
    <TTGlyph name="Omega" xMin="70" yMin="0" xMax="736" yMax="715">
      <contour>
        <pt x="591" y="429" on="1"/>
        <pt x="591" y="531" on="0"/>
        <pt x="495" y="668" on="0"/>
        <pt x="312" y="668" on="0"/>
        <pt x="215" y="531" on="0"/>
        <pt x="215" y="429" on="1"/>
        <pt x="215" y="280" on="0"/>
        <pt x="306" y="215" on="1"/>
        <pt x="306" y="0" on="1"/>
        <pt x="142" y="0" on="1"/>
        <pt x="120" y="0" on="0"/>
        <pt x="99" y="3" on="0"/>
        <pt x="81" y="22" on="0"/>
        <pt x="81" y="42" on="1"/>
        <pt x="103" y="160" on="1"/>
        <pt x="143" y="160" on="1"/>
        <pt x="150" y="124" on="1"/>
        <pt x="156" y="92" on="0"/>
        <pt x="207" y="72" on="0"/>
        <pt x="271" y="72" on="1"/>
        <pt x="271" y="174" on="1"/>
        <pt x="173" y="203" on="0"/>
        <pt x="70" y="340" on="0"/>
        <pt x="70" y="429" on="1"/>
        <pt x="70" y="553" on="0"/>
        <pt x="243" y="715" on="0"/>
        <pt x="563" y="715" on="0"/>
        <pt x="736" y="553" on="0"/>
        <pt x="736" y="429" on="1"/>
        <pt x="736" y="341" on="0"/>
        <pt x="632" y="203" on="0"/>
        <pt x="535" y="174" on="1"/>
        <pt x="535" y="72" on="1"/>
        <pt x="599" y="72" on="0"/>
        <pt x="650" y="92" on="0"/>
        <pt x="656" y="124" on="1"/>
        <pt x="663" y="160" on="1"/>
        <pt x="703" y="160" on="1"/>
        <pt x="725" y="42" on="1"/>
        <pt x="725" y="22" on="0"/>
        <pt x="707" y="3" on="0"/>
        <pt x="686" y="0" on="0"/>
        <pt x="664" y="0" on="1"/>
        <pt x="500" y="0" on="1"/>
        <pt x="500" y="215" on="1"/>
        <pt x="591" y="280" on="0"/>
      </contour>
    </TTGlyph>
    <TTGlyph name="Oslash" xMin="50" yMin="-80" xMax="718" yMax="779">
      <contour>
        <pt x="718" y="349" on="1"/>
        <pt x="718" y="190" on="0"/>
        <pt x="544" y="-15" on="0"/>
        <pt x="383" y="-15" on="1"/>
        <pt x="351" y="-15" on="0"/>
        <pt x="311" y="-8" on="1"/>
        <pt x="292" y="-80" on="1"/>
        <pt x="243" y="-80" on="1"/>
        <pt x="265" y="3" on="1"/>
        <pt x="161" y="37" on="0"/>
        <pt x="50" y="224" on="0"/>
        <pt x="50" y="349" on="1"/>
        <pt x="50" y="508" on="0"/>
        <pt x="223" y="715" on="0"/>
        <pt x="383" y="715" on="1"/>
        <pt x="416" y="715" on="0"/>
        <pt x="456" y="708" on="1"/>
        <pt x="475" y="779" on="1"/>
        <pt x="525" y="779" on="1"/>
        <pt x="502" y="697" on="1"/>
        <pt x="607" y="662" on="0"/>
        <pt x="718" y="475" on="0"/>
      </contour>
      <contour>
        <pt x="563" y="349" on="1"/>
        <pt x="563" y="538" on="0"/>
        <pt x="482" y="624" on="1"/>
        <pt x="326" y="45" on="1"/>
        <pt x="351" y="32" on="0"/>
        <pt x="384" y="32" on="1"/>
        <pt x="470" y="32" on="0"/>
        <pt x="563" y="216" on="0"/>
      </contour>
      <contour>
        <pt x="384" y="668" on="1"/>
        <pt x="325" y="668" on="0"/>
        <pt x="284" y="622" on="1"/>
        <pt x="205" y="536" on="0"/>
        <pt x="205" y="160" on="0"/>
        <pt x="285" y="76" on="1"/>
        <pt x="441" y="655" on="1"/>
        <pt x="413" y="668" on="0"/>
      </contour>
    </TTGlyph>
    <TTGlyph name="Oslashacute" xMin="50" yMin="-80" xMax="718" yMax="965">
      <contour>
        <pt x="718" y="349" on="1"/>
        <pt x="718" y="190" on="0"/>
        <pt x="544" y="-15" on="0"/>
        <pt x="383" y="-15" on="1"/>
        <pt x="351" y="-15" on="0"/>
        <pt x="311" y="-8" on="1"/>
        <pt x="292" y="-80" on="1"/>
        <pt x="243" y="-80" on="1"/>
        <pt x="265" y="3" on="1"/>
        <pt x="161" y="37" on="0"/>
        <pt x="50" y="224" on="0"/>
        <pt x="50" y="349" on="1"/>
        <pt x="50" y="508" on="0"/>
        <pt x="223" y="715" on="0"/>
        <pt x="383" y="715" on="1"/>
        <pt x="416" y="715" on="0"/>
        <pt x="456" y="708" on="1"/>
        <pt x="475" y="779" on="1"/>
        <pt x="525" y="779" on="1"/>
        <pt x="502" y="697" on="1"/>
        <pt x="607" y="662" on="0"/>
        <pt x="718" y="475" on="0"/>
      </contour>
      <contour>
        <pt x="563" y="349" on="1"/>
        <pt x="563" y="538" on="0"/>
        <pt x="482" y="624" on="1"/>
        <pt x="326" y="45" on="1"/>
        <pt x="351" y="32" on="0"/>
        <pt x="384" y="32" on="1"/>
        <pt x="470" y="32" on="0"/>
        <pt x="563" y="216" on="0"/>
      </contour>
      <contour>
        <pt x="384" y="668" on="1"/>
        <pt x="325" y="668" on="0"/>
        <pt x="284" y="622" on="1"/>
        <pt x="205" y="536" on="0"/>
        <pt x="205" y="160" on="0"/>
        <pt x="285" y="76" on="1"/>
        <pt x="441" y="655" on="1"/>
        <pt x="413" y="668" on="0"/>
      </contour>
      <contour>
        <pt x="441" y="951" on="0"/>
        <pt x="468" y="965" on="0"/>
        <pt x="507" y="965" on="0"/>
        <pt x="540" y="936" on="0"/>
        <pt x="540" y="890" on="0"/>
        <pt x="504" y="855" on="0"/>
        <pt x="457" y="832" on="1"/>
        <pt x="309" y="759" on="1"/>
        <pt x="288" y="783" on="1"/>
        <pt x="407" y="915" on="1"/>
        <pt x="424" y="934" on="0"/>
      </contour>
    </TTGlyph>
    <TTGlyph name="Otilde" xMin="50" yMin="-15" xMax="718" yMax="962">
      <contour>
        <pt x="50" y="508" on="0"/>
        <pt x="223" y="715" on="0"/>
        <pt x="544" y="715" on="0"/>
        <pt x="718" y="509" on="0"/>
        <pt x="718" y="190" on="0"/>
        <pt x="544" y="-15" on="0"/>
        <pt x="223" y="-15" on="0"/>
        <pt x="50" y="190" on="0"/>
      </contour>
      <contour>
        <pt x="384" y="668" on="1"/>
        <pt x="325" y="668" on="0"/>
        <pt x="284" y="622" on="1"/>
        <pt x="205" y="536" on="0"/>
        <pt x="205" y="349" on="1"/>
        <pt x="205" y="163" on="0"/>
        <pt x="284" y="78" on="1"/>
        <pt x="326" y="32" on="0"/>
        <pt x="384" y="32" on="1"/>
        <pt x="470" y="32" on="0"/>
        <pt x="563" y="216" on="0"/>
        <pt x="563" y="483" on="0"/>
        <pt x="470" y="668" on="0"/>
      </contour>
      <contour>
        <pt x="496" y="809" on="1"/>
        <pt x="496" y="824" on="1"/>
        <pt x="496" y="863" on="0"/>
        <pt x="468" y="863" on="1"/>
        <pt x="456" y="863" on="0"/>
        <pt x="445" y="856" on="1"/>
        <pt x="360" y="808" on="1"/>
        <pt x="328" y="789" on="0"/>
        <pt x="272" y="789" on="0"/>
        <pt x="227" y="841" on="0"/>
        <pt x="227" y="910" on="0"/>
        <pt x="235" y="942" on="1"/>
        <pt x="271" y="942" on="1"/>
        <pt x="271" y="927" on="1"/>
        <pt x="271" y="888" on="0"/>
        <pt x="299" y="888" on="1"/>
        <pt x="311" y="888" on="0"/>
        <pt x="322" y="895" on="1"/>
        <pt x="407" y="943" on="1"/>
        <pt x="439" y="962" on="0"/>
        <pt x="495" y="962" on="0"/>
        <pt x="540" y="910" on="0"/>
        <pt x="540" y="841" on="0"/>
        <pt x="532" y="809" on="1"/>
      </contour>
    </TTGlyph>
    <TTGlyph name="P" xMin="70" yMin="0" xMax="623" yMax="700">
      <contour>
        <pt x="70" y="660" on="1"/>
        <pt x="70" y="700" on="1"/>
        <pt x="290" y="700" on="1"/>
        <pt x="536" y="700" on="0"/>
        <pt x="598" y="582" on="1"/>
        <pt x="623" y="536" on="0"/>
        <pt x="623" y="404" on="0"/>
        <pt x="574" y="312" on="0"/>
        <pt x="527" y="287" on="1"/>
        <pt x="439" y="240" on="0"/>
        <pt x="290" y="240" on="1"/>
        <pt x="280" y="240" on="1"/>
        <pt x="280" y="40" on="1"/>
        <pt x="360" y="40" on="1"/>
        <pt x="360" y="0" on="1"/>
        <pt x="70" y="0" on="1"/>
        <pt x="70" y="40" on="1"/>
        <pt x="130" y="40" on="1"/>
        <pt x="130" y="660" on="1"/>
      </contour>
      <contour>
        <pt x="290" y="660" on="1"/>
        <pt x="280" y="660" on="1"/>
        <pt x="280" y="280" on="1"/>
        <pt x="290" y="280" on="1"/>
        <pt x="369" y="280" on="0"/>
        <pt x="473" y="380" on="0"/>
        <pt x="473" y="560" on="0"/>
        <pt x="369" y="660" on="0"/>
      </contour>
    </TTGlyph>
    <TTGlyph name="Q" xMin="50" yMin="-197" xMax="718" yMax="715">
      <contour>
        <pt x="50" y="508" on="0"/>
        <pt x="223" y="715" on="0"/>
        <pt x="544" y="715" on="0"/>
        <pt x="718" y="509" on="0"/>
        <pt x="718" y="349" on="1"/>
        <pt x="718" y="219" on="0"/>
        <pt x="599" y="30" on="0"/>
        <pt x="488" y="-1" on="1"/>
        <pt x="501" y="-71" on="1"/>
        <pt x="511" y="-129" on="0"/>
        <pt x="561" y="-129" on="1"/>
        <pt x="588" y="-129" on="0"/>
        <pt x="631" y="-90" on="1"/>
        <pt x="658" y="-114" on="1"/>
        <pt x="635" y="-140" on="0"/>
        <pt x="601" y="-170" on="0"/>
        <pt x="544" y="-197" on="0"/>
        <pt x="514" y="-197" on="1"/>
        <pt x="392" y="-197" on="0"/>
        <pt x="365" y="-50" on="1"/>
        <pt x="358" y="-14" on="1"/>
        <pt x="210" y="-5" on="0"/>
        <pt x="50" y="197" on="0"/>
      </contour>
      <contour>
        <pt x="384" y="668" on="1"/>
        <pt x="325" y="668" on="0"/>
        <pt x="284" y="622" on="1"/>
        <pt x="205" y="536" on="0"/>
        <pt x="205" y="349" on="1"/>
        <pt x="205" y="275" on="0"/>
        <pt x="218" y="216" on="1"/>
        <pt x="272" y="261" on="0"/>
        <pt x="333" y="261" on="1"/>
        <pt x="440" y="261" on="0"/>
        <pt x="467" y="114" on="1"/>
        <pt x="475" y="69" on="1"/>
        <pt x="518" y="109" on="0"/>
        <pt x="563" y="259" on="0"/>
        <pt x="563" y="349" on="1"/>
        <pt x="563" y="483" on="0"/>
        <pt x="470" y="668" on="0"/>
      </contour>
      <contour>
        <pt x="295" y="193" on="0"/>
        <pt x="253" y="193" on="0"/>
        <pt x="229" y="175" on="1"/>
        <pt x="267" y="59" on="0"/>
        <pt x="349" y="36" on="1"/>
        <pt x="331" y="135" on="1"/>
        <pt x="327" y="162" on="0"/>
      </contour>
    </TTGlyph>
    <TTGlyph name="R" xMin="70" yMin="-15" xMax="705" yMax="700">
      <contour>
        <pt x="70" y="660" on="1"/>
        <pt x="70" y="700" on="1"/>
        <pt x="290" y="700" on="1"/>
        <pt x="533" y="700" on="0"/>
        <pt x="598" y="588" on="1"/>
        <pt x="623" y="544" on="0"/>
        <pt x="623" y="481" on="1"/>
        <pt x="623" y="335" on="0"/>
        <pt x="457" y="285" on="1"/>
        <pt x="520" y="264" on="0"/>
        <pt x="541" y="198" on="1"/>
        <pt x="571" y="98" on="1"/>
        <pt x="578" y="73" on="0"/>
        <pt x="600" y="53" on="0"/>
        <pt x="652" y="53" on="0"/>
        <pt x="687" y="82" on="1"/>
        <pt x="705" y="58" on="1"/>
        <pt x="625" y="-15" on="0"/>
        <pt x="535" y="-15" on="1"/>
        <pt x="489" y="-15" on="0"/>
        <pt x="433" y="17" on="0"/>
        <pt x="421" y="57" on="1"/>
        <pt x="374" y="211" on="1"/>
        <pt x="365" y="240" on="0"/>
        <pt x="327" y="262" on="0"/>
        <pt x="280" y="263" on="1"/>
        <pt x="280" y="40" on="1"/>
        <pt x="360" y="40" on="1"/>
        <pt x="360" y="0" on="1"/>
        <pt x="70" y="0" on="1"/>
        <pt x="70" y="40" on="1"/>
        <pt x="130" y="40" on="1"/>
        <pt x="130" y="660" on="1"/>
      </contour>
      <contour>
        <pt x="290" y="660" on="1"/>
        <pt x="280" y="660" on="1"/>
        <pt x="280" y="303" on="1"/>
        <pt x="290" y="303" on="1"/>
        <pt x="369" y="303" on="0"/>
        <pt x="473" y="396" on="0"/>
        <pt x="473" y="566" on="0"/>
        <pt x="369" y="660" on="0"/>
      </contour>
    </TTGlyph>
    <TTGlyph name="Racute" xMin="70" yMin="-15" xMax="705" yMax="965">
      <contour>
        <pt x="70" y="660" on="1"/>
        <pt x="70" y="700" on="1"/>
        <pt x="290" y="700" on="1"/>
        <pt x="533" y="700" on="0"/>
        <pt x="598" y="588" on="1"/>
        <pt x="623" y="544" on="0"/>
        <pt x="623" y="481" on="1"/>
        <pt x="623" y="335" on="0"/>
        <pt x="457" y="285" on="1"/>
        <pt x="520" y="264" on="0"/>
        <pt x="541" y="198" on="1"/>
        <pt x="571" y="98" on="1"/>
        <pt x="578" y="73" on="0"/>
        <pt x="600" y="53" on="0"/>
        <pt x="652" y="53" on="0"/>
        <pt x="687" y="82" on="1"/>
        <pt x="705" y="58" on="1"/>
        <pt x="625" y="-15" on="0"/>
        <pt x="535" y="-15" on="1"/>
        <pt x="489" y="-15" on="0"/>
        <pt x="433" y="17" on="0"/>
        <pt x="421" y="57" on="1"/>
        <pt x="374" y="211" on="1"/>
        <pt x="365" y="240" on="0"/>
        <pt x="327" y="262" on="0"/>
        <pt x="280" y="263" on="1"/>
        <pt x="280" y="40" on="1"/>
        <pt x="360" y="40" on="1"/>
        <pt x="360" y="0" on="1"/>
        <pt x="70" y="0" on="1"/>
        <pt x="70" y="40" on="1"/>
        <pt x="130" y="40" on="1"/>
        <pt x="130" y="660" on="1"/>
      </contour>
      <contour>
        <pt x="290" y="660" on="1"/>
        <pt x="280" y="660" on="1"/>
        <pt x="280" y="303" on="1"/>
        <pt x="290" y="303" on="1"/>
        <pt x="369" y="303" on="0"/>
        <pt x="473" y="396" on="0"/>
        <pt x="473" y="566" on="0"/>
        <pt x="369" y="660" on="0"/>
      </contour>
      <contour>
        <pt x="374" y="951" on="0"/>
        <pt x="401" y="965" on="0"/>
        <pt x="440" y="965" on="0"/>
        <pt x="473" y="936" on="0"/>
        <pt x="473" y="890" on="0"/>
        <pt x="437" y="855" on="0"/>
        <pt x="390" y="832" on="1"/>
        <pt x="242" y="759" on="1"/>
        <pt x="221" y="783" on="1"/>
        <pt x="340" y="915" on="1"/>
        <pt x="357" y="934" on="0"/>
      </contour>
    </TTGlyph>
    <TTGlyph name="Rcaron" xMin="70" yMin="-15" xMax="705" yMax="965">
      <contour>
        <pt x="70" y="660" on="1"/>
        <pt x="70" y="700" on="1"/>
        <pt x="290" y="700" on="1"/>
        <pt x="533" y="700" on="0"/>
        <pt x="598" y="588" on="1"/>
        <pt x="623" y="544" on="0"/>
        <pt x="623" y="481" on="1"/>
        <pt x="623" y="335" on="0"/>
        <pt x="457" y="285" on="1"/>
        <pt x="520" y="264" on="0"/>
        <pt x="541" y="198" on="1"/>
        <pt x="571" y="98" on="1"/>
        <pt x="578" y="73" on="0"/>
        <pt x="600" y="53" on="0"/>
        <pt x="652" y="53" on="0"/>
        <pt x="687" y="82" on="1"/>
        <pt x="705" y="58" on="1"/>
        <pt x="625" y="-15" on="0"/>
        <pt x="535" y="-15" on="1"/>
        <pt x="489" y="-15" on="0"/>
        <pt x="433" y="17" on="0"/>
        <pt x="421" y="57" on="1"/>
        <pt x="374" y="211" on="1"/>
        <pt x="365" y="240" on="0"/>
        <pt x="327" y="262" on="0"/>
        <pt x="280" y="263" on="1"/>
        <pt x="280" y="40" on="1"/>
        <pt x="360" y="40" on="1"/>
        <pt x="360" y="0" on="1"/>
        <pt x="70" y="0" on="1"/>
        <pt x="70" y="40" on="1"/>
        <pt x="130" y="40" on="1"/>
        <pt x="130" y="660" on="1"/>
      </contour>
      <contour>
        <pt x="290" y="660" on="1"/>
        <pt x="280" y="660" on="1"/>
        <pt x="280" y="303" on="1"/>
        <pt x="290" y="303" on="1"/>
        <pt x="369" y="303" on="0"/>
        <pt x="473" y="396" on="0"/>
        <pt x="473" y="566" on="0"/>
        <pt x="369" y="660" on="0"/>
      </contour>
      <contour>
        <pt x="377" y="759" on="0"/>
        <pt x="317" y="759" on="0"/>
        <pt x="289" y="797" on="1"/>
        <pt x="181" y="941" on="1"/>
        <pt x="202" y="965" on="1"/>
        <pt x="343" y="870" on="1"/>
        <pt x="351" y="870" on="1"/>
        <pt x="492" y="965" on="1"/>
        <pt x="513" y="941" on="1"/>
        <pt x="405" y="797" on="1"/>
      </contour>
    </TTGlyph>
    <TTGlyph name="S" xMin="45" yMin="-15" xMax="525" yMax="715">
      <contour>
        <pt x="139" y="129" on="1"/>
        <pt x="139" y="90" on="0"/>
        <pt x="215" y="32" on="0"/>
        <pt x="335" y="32" on="0"/>
        <pt x="405" y="90" on="0"/>
        <pt x="405" y="138" on="1"/>
        <pt x="405" y="199" on="0"/>
        <pt x="332" y="239" on="1"/>
        <pt x="184" y="318" on="1"/>
        <pt x="56" y="387" on="0"/>
        <pt x="56" y="515" on="1"/>
        <pt x="56" y="597" on="0"/>
        <pt x="176" y="715" on="0"/>
        <pt x="295" y="715" on="1"/>
        <pt x="375" y="715" on="0"/>
        <pt x="519" y="651" on="0"/>
        <pt x="519" y="607" on="1"/>
        <pt x="519" y="590" on="0"/>
        <pt x="508" y="568" on="1"/>
        <pt x="460" y="476" on="1"/>
        <pt x="425" y="487" on="1"/>
        <pt x="425" y="571" on="1"/>
        <pt x="425" y="616" on="0"/>
        <pt x="346" y="668" on="0"/>
        <pt x="237" y="668" on="0"/>
        <pt x="179" y="604" on="0"/>
        <pt x="179" y="563" on="1"/>
        <pt x="179" y="481" on="0"/>
        <pt x="253" y="442" on="1"/>
        <pt x="380" y="375" on="1"/>
        <pt x="525" y="299" on="0"/>
        <pt x="525" y="175" on="1"/>
        <pt x="525" y="81" on="0"/>
        <pt x="384" y="-15" on="0"/>
        <pt x="276" y="-15" on="1"/>
        <pt x="195" y="-15" on="0"/>
        <pt x="45" y="49" on="0"/>
        <pt x="45" y="93" on="1"/>
        <pt x="45" y="110" on="0"/>
        <pt x="56" y="132" on="1"/>
        <pt x="104" y="224" on="1"/>
        <pt x="139" y="213" on="1"/>
      </contour>
    </TTGlyph>
    <TTGlyph name="Sacute" xMin="45" yMin="-15" xMax="525" yMax="965">
      <contour>
        <pt x="139" y="129" on="1"/>
        <pt x="139" y="90" on="0"/>
        <pt x="215" y="32" on="0"/>
        <pt x="335" y="32" on="0"/>
        <pt x="405" y="90" on="0"/>
        <pt x="405" y="138" on="1"/>
        <pt x="405" y="199" on="0"/>
        <pt x="332" y="239" on="1"/>
        <pt x="184" y="318" on="1"/>
        <pt x="56" y="387" on="0"/>
        <pt x="56" y="515" on="1"/>
        <pt x="56" y="597" on="0"/>
        <pt x="176" y="715" on="0"/>
        <pt x="295" y="715" on="1"/>
        <pt x="375" y="715" on="0"/>
        <pt x="519" y="651" on="0"/>
        <pt x="519" y="607" on="1"/>
        <pt x="519" y="590" on="0"/>
        <pt x="508" y="568" on="1"/>
        <pt x="460" y="476" on="1"/>
        <pt x="425" y="487" on="1"/>
        <pt x="425" y="571" on="1"/>
        <pt x="425" y="616" on="0"/>
        <pt x="346" y="668" on="0"/>
        <pt x="237" y="668" on="0"/>
        <pt x="179" y="604" on="0"/>
        <pt x="179" y="563" on="1"/>
        <pt x="179" y="481" on="0"/>
        <pt x="253" y="442" on="1"/>
        <pt x="380" y="375" on="1"/>
        <pt x="525" y="299" on="0"/>
        <pt x="525" y="175" on="1"/>
        <pt x="525" y="81" on="0"/>
        <pt x="384" y="-15" on="0"/>
        <pt x="276" y="-15" on="1"/>
        <pt x="195" y="-15" on="0"/>
        <pt x="45" y="49" on="0"/>
        <pt x="45" y="93" on="1"/>
        <pt x="45" y="110" on="0"/>
        <pt x="56" y="132" on="1"/>
        <pt x="104" y="224" on="1"/>
        <pt x="139" y="213" on="1"/>
      </contour>
      <contour>
        <pt x="325" y="951" on="0"/>
        <pt x="352" y="965" on="0"/>
        <pt x="391" y="965" on="0"/>
        <pt x="424" y="936" on="0"/>
        <pt x="424" y="890" on="0"/>
        <pt x="388" y="855" on="0"/>
        <pt x="341" y="832" on="1"/>
        <pt x="193" y="759" on="1"/>
        <pt x="172" y="783" on="1"/>
        <pt x="291" y="915" on="1"/>
        <pt x="308" y="934" on="0"/>
      </contour>
    </TTGlyph>
    <TTGlyph name="Scaron" xMin="45" yMin="-15" xMax="525" yMax="965">
      <contour>
        <pt x="139" y="129" on="1"/>
        <pt x="139" y="90" on="0"/>
        <pt x="215" y="32" on="0"/>
        <pt x="335" y="32" on="0"/>
        <pt x="405" y="90" on="0"/>
        <pt x="405" y="138" on="1"/>
        <pt x="405" y="199" on="0"/>
        <pt x="332" y="239" on="1"/>
        <pt x="184" y="318" on="1"/>
        <pt x="56" y="387" on="0"/>
        <pt x="56" y="515" on="1"/>
        <pt x="56" y="597" on="0"/>
        <pt x="176" y="715" on="0"/>
        <pt x="295" y="715" on="1"/>
        <pt x="375" y="715" on="0"/>
        <pt x="519" y="651" on="0"/>
        <pt x="519" y="607" on="1"/>
        <pt x="519" y="590" on="0"/>
        <pt x="508" y="568" on="1"/>
        <pt x="460" y="476" on="1"/>
        <pt x="425" y="487" on="1"/>
        <pt x="425" y="571" on="1"/>
        <pt x="425" y="616" on="0"/>
        <pt x="346" y="668" on="0"/>
        <pt x="237" y="668" on="0"/>
        <pt x="179" y="604" on="0"/>
        <pt x="179" y="563" on="1"/>
        <pt x="179" y="481" on="0"/>
        <pt x="253" y="442" on="1"/>
        <pt x="380" y="375" on="1"/>
        <pt x="525" y="299" on="0"/>
        <pt x="525" y="175" on="1"/>
        <pt x="525" y="81" on="0"/>
        <pt x="384" y="-15" on="0"/>
        <pt x="276" y="-15" on="1"/>
        <pt x="195" y="-15" on="0"/>
        <pt x="45" y="49" on="0"/>
        <pt x="45" y="93" on="1"/>
        <pt x="45" y="110" on="0"/>
        <pt x="56" y="132" on="1"/>
        <pt x="104" y="224" on="1"/>
        <pt x="139" y="213" on="1"/>
      </contour>
      <contour>
        <pt x="315" y="759" on="0"/>
        <pt x="255" y="759" on="0"/>
        <pt x="227" y="797" on="1"/>
        <pt x="119" y="941" on="1"/>
        <pt x="140" y="965" on="1"/>
        <pt x="281" y="870" on="1"/>
        <pt x="289" y="870" on="1"/>
        <pt x="430" y="965" on="1"/>
        <pt x="451" y="941" on="1"/>
        <pt x="343" y="797" on="1"/>
      </contour>
    </TTGlyph>
    <TTGlyph name="Scedilla" xMin="45" yMin="-265" xMax="525" yMax="715">
      <contour>
        <pt x="139" y="129" on="1"/>
        <pt x="139" y="90" on="0"/>
        <pt x="215" y="32" on="0"/>
        <pt x="335" y="32" on="0"/>
        <pt x="405" y="90" on="0"/>
        <pt x="405" y="138" on="1"/>
        <pt x="405" y="199" on="0"/>
        <pt x="332" y="239" on="1"/>
        <pt x="184" y="318" on="1"/>
        <pt x="56" y="387" on="0"/>
        <pt x="56" y="515" on="1"/>
        <pt x="56" y="597" on="0"/>
        <pt x="176" y="715" on="0"/>
        <pt x="295" y="715" on="1"/>
        <pt x="375" y="715" on="0"/>
        <pt x="519" y="651" on="0"/>
        <pt x="519" y="607" on="1"/>
        <pt x="519" y="590" on="0"/>
        <pt x="508" y="568" on="1"/>
        <pt x="460" y="476" on="1"/>
        <pt x="425" y="487" on="1"/>
        <pt x="425" y="571" on="1"/>
        <pt x="425" y="616" on="0"/>
        <pt x="346" y="668" on="0"/>
        <pt x="237" y="668" on="0"/>
        <pt x="179" y="604" on="0"/>
        <pt x="179" y="563" on="1"/>
        <pt x="179" y="481" on="0"/>
        <pt x="253" y="442" on="1"/>
        <pt x="380" y="375" on="1"/>
        <pt x="525" y="299" on="0"/>
        <pt x="525" y="175" on="1"/>
        <pt x="525" y="83" on="0"/>
        <pt x="387" y="-13" on="0"/>
        <pt x="281" y="-15" on="1"/>
        <pt x="251" y="-77" on="1"/>
        <pt x="268" y="-70" on="0"/>
        <pt x="292" y="-70" on="1"/>
        <pt x="339" y="-70" on="0"/>
        <pt x="397" y="-124" on="0"/>
        <pt x="397" y="-206" on="0"/>
        <pt x="328" y="-265" on="0"/>
        <pt x="230" y="-265" on="0"/>
        <pt x="167" y="-229" on="0"/>
        <pt x="167" y="-196" on="1"/>
        <pt x="167" y="-179" on="0"/>
        <pt x="191" y="-155" on="0"/>
        <pt x="224" y="-155" on="0"/>
        <pt x="249" y="-180" on="0"/>
        <pt x="249" y="-218" on="0"/>
        <pt x="231" y="-231" on="1"/>
        <pt x="239" y="-233" on="0"/>
        <pt x="246" y="-233" on="1"/>
        <pt x="275" y="-233" on="0"/>
        <pt x="310" y="-197" on="0"/>
        <pt x="310" y="-148" on="0"/>
        <pt x="272" y="-110" on="0"/>
        <pt x="237" y="-110" on="1"/>
        <pt x="215" y="-93" on="1"/>
        <pt x="252" y="-14" on="1"/>
        <pt x="174" y="-8" on="0"/>
        <pt x="45" y="52" on="0"/>
        <pt x="45" y="93" on="1"/>
        <pt x="45" y="110" on="0"/>
        <pt x="56" y="132" on="1"/>
        <pt x="104" y="224" on="1"/>
        <pt x="139" y="213" on="1"/>
      </contour>
    </TTGlyph>
    <TTGlyph name="Scircumflex" xMin="45" yMin="-15" xMax="525" yMax="965">
      <contour>
        <pt x="139" y="129" on="1"/>
        <pt x="139" y="90" on="0"/>
        <pt x="215" y="32" on="0"/>
        <pt x="335" y="32" on="0"/>
        <pt x="405" y="90" on="0"/>
        <pt x="405" y="138" on="1"/>
        <pt x="405" y="199" on="0"/>
        <pt x="332" y="239" on="1"/>
        <pt x="184" y="318" on="1"/>
        <pt x="56" y="387" on="0"/>
        <pt x="56" y="515" on="1"/>
        <pt x="56" y="597" on="0"/>
        <pt x="176" y="715" on="0"/>
        <pt x="295" y="715" on="1"/>
        <pt x="375" y="715" on="0"/>
        <pt x="519" y="651" on="0"/>
        <pt x="519" y="607" on="1"/>
        <pt x="519" y="590" on="0"/>
        <pt x="508" y="568" on="1"/>
        <pt x="460" y="476" on="1"/>
        <pt x="425" y="487" on="1"/>
        <pt x="425" y="571" on="1"/>
        <pt x="425" y="616" on="0"/>
        <pt x="346" y="668" on="0"/>
        <pt x="237" y="668" on="0"/>
        <pt x="179" y="604" on="0"/>
        <pt x="179" y="563" on="1"/>
        <pt x="179" y="481" on="0"/>
        <pt x="253" y="442" on="1"/>
        <pt x="380" y="375" on="1"/>
        <pt x="525" y="299" on="0"/>
        <pt x="525" y="175" on="1"/>
        <pt x="525" y="81" on="0"/>
        <pt x="384" y="-15" on="0"/>
        <pt x="276" y="-15" on="1"/>
        <pt x="195" y="-15" on="0"/>
        <pt x="45" y="49" on="0"/>
        <pt x="45" y="93" on="1"/>
        <pt x="45" y="110" on="0"/>
        <pt x="56" y="132" on="1"/>
        <pt x="104" y="224" on="1"/>
        <pt x="139" y="213" on="1"/>
      </contour>
      <contour>
        <pt x="265" y="965" on="0"/>
        <pt x="325" y="965" on="0"/>
        <pt x="353" y="927" on="1"/>
        <pt x="461" y="783" on="1"/>
        <pt x="440" y="759" on="1"/>
        <pt x="299" y="854" on="1"/>
        <pt x="291" y="854" on="1"/>
        <pt x="150" y="759" on="1"/>
        <pt x="129" y="783" on="1"/>
        <pt x="237" y="927" on="1"/>
      </contour>
    </TTGlyph>
    <TTGlyph name="T" xMin="15" yMin="0" xMax="605" yMax="700">
      <contour>
        <pt x="395" y="660" on="1"/>
        <pt x="385" y="660" on="1"/>
        <pt x="385" y="40" on="1"/>
        <pt x="485" y="40" on="1"/>
        <pt x="485" y="0" on="1"/>
        <pt x="135" y="0" on="1"/>
        <pt x="135" y="40" on="1"/>
        <pt x="235" y="40" on="1"/>
        <pt x="235" y="660" on="1"/>
        <pt x="225" y="660" on="1"/>
        <pt x="159" y="660" on="0"/>
        <pt x="110" y="634" on="0"/>
        <pt x="101" y="589" on="1"/>
        <pt x="81" y="490" on="1"/>
        <pt x="42" y="490" on="1"/>
        <pt x="15" y="658" on="1"/>
        <pt x="15" y="678" on="0"/>
        <pt x="33" y="697" on="0"/>
        <pt x="54" y="700" on="0"/>
        <pt x="76" y="700" on="1"/>
        <pt x="544" y="700" on="1"/>
        <pt x="566" y="700" on="0"/>
        <pt x="587" y="697" on="0"/>
        <pt x="605" y="678" on="0"/>
        <pt x="605" y="658" on="1"/>
        <pt x="578" y="490" on="1"/>
        <pt x="539" y="490" on="1"/>
        <pt x="519" y="589" on="1"/>
        <pt x="510" y="634" on="0"/>
        <pt x="461" y="660" on="0"/>
      </contour>
    </TTGlyph>
    <TTGlyph name="Tbar" xMin="15" yMin="0" xMax="605" yMax="700">
      <contour>
        <pt x="123" y="302" on="1"/>
        <pt x="123" y="347" on="1"/>
        <pt x="235" y="347" on="1"/>
        <pt x="235" y="660" on="1"/>
        <pt x="225" y="660" on="1"/>
        <pt x="159" y="660" on="0"/>
        <pt x="110" y="634" on="0"/>
        <pt x="101" y="589" on="1"/>
        <pt x="81" y="490" on="1"/>
        <pt x="42" y="490" on="1"/>
        <pt x="15" y="658" on="1"/>
        <pt x="15" y="678" on="0"/>
        <pt x="33" y="697" on="0"/>
        <pt x="54" y="700" on="0"/>
        <pt x="76" y="700" on="1"/>
        <pt x="544" y="700" on="1"/>
        <pt x="566" y="700" on="0"/>
        <pt x="587" y="697" on="0"/>
        <pt x="605" y="678" on="0"/>
        <pt x="605" y="658" on="1"/>
        <pt x="578" y="490" on="1"/>
        <pt x="539" y="490" on="1"/>
        <pt x="519" y="589" on="1"/>
        <pt x="510" y="634" on="0"/>
        <pt x="461" y="660" on="0"/>
        <pt x="395" y="660" on="1"/>
        <pt x="385" y="660" on="1"/>
        <pt x="385" y="347" on="1"/>
        <pt x="498" y="347" on="1"/>
        <pt x="498" y="302" on="1"/>
        <pt x="385" y="302" on="1"/>
        <pt x="385" y="40" on="1"/>
        <pt x="485" y="40" on="1"/>
        <pt x="485" y="0" on="1"/>
        <pt x="135" y="0" on="1"/>
        <pt x="135" y="40" on="1"/>
        <pt x="235" y="40" on="1"/>
        <pt x="235" y="302" on="1"/>
      </contour>
    </TTGlyph>
    <TTGlyph name="Tcaron" xMin="15" yMin="0" xMax="605" yMax="965">
      <contour>
        <pt x="395" y="660" on="1"/>
        <pt x="385" y="660" on="1"/>
        <pt x="385" y="40" on="1"/>
        <pt x="485" y="40" on="1"/>
        <pt x="485" y="0" on="1"/>
        <pt x="135" y="0" on="1"/>
        <pt x="135" y="40" on="1"/>
        <pt x="235" y="40" on="1"/>
        <pt x="235" y="660" on="1"/>
        <pt x="225" y="660" on="1"/>
        <pt x="159" y="660" on="0"/>
        <pt x="110" y="634" on="0"/>
        <pt x="101" y="589" on="1"/>
        <pt x="81" y="490" on="1"/>
        <pt x="42" y="490" on="1"/>
        <pt x="15" y="658" on="1"/>
        <pt x="15" y="678" on="0"/>
        <pt x="33" y="697" on="0"/>
        <pt x="54" y="700" on="0"/>
        <pt x="76" y="700" on="1"/>
        <pt x="544" y="700" on="1"/>
        <pt x="566" y="700" on="0"/>
        <pt x="587" y="697" on="0"/>
        <pt x="605" y="678" on="0"/>
        <pt x="605" y="658" on="1"/>
        <pt x="578" y="490" on="1"/>
        <pt x="539" y="490" on="1"/>
        <pt x="519" y="589" on="1"/>
        <pt x="510" y="634" on="0"/>
        <pt x="461" y="660" on="0"/>
      </contour>
      <contour>
        <pt x="340" y="759" on="0"/>
        <pt x="280" y="759" on="0"/>
        <pt x="252" y="797" on="1"/>
        <pt x="144" y="941" on="1"/>
        <pt x="165" y="965" on="1"/>
        <pt x="306" y="870" on="1"/>
        <pt x="314" y="870" on="1"/>
        <pt x="455" y="965" on="1"/>
        <pt x="476" y="941" on="1"/>
        <pt x="368" y="797" on="1"/>
      </contour>
    </TTGlyph>
    <TTGlyph name="Thorn" xMin="70" yMin="0" xMax="623" yMax="700">
      <contour>
        <pt x="70" y="660" on="1"/>
        <pt x="70" y="700" on="1"/>
        <pt x="340" y="700" on="1"/>
        <pt x="340" y="660" on="1"/>
        <pt x="280" y="660" on="1"/>
        <pt x="280" y="570" on="1"/>
        <pt x="290" y="570" on="1"/>
        <pt x="536" y="570" on="0"/>
        <pt x="598" y="457" on="1"/>
        <pt x="623" y="413" on="0"/>
        <pt x="623" y="287" on="0"/>
        <pt x="574" y="199" on="0"/>
        <pt x="527" y="175" on="1"/>
        <pt x="439" y="130" on="0"/>
        <pt x="290" y="130" on="1"/>
        <pt x="280" y="130" on="1"/>
        <pt x="280" y="40" on="1"/>
        <pt x="340" y="40" on="1"/>
        <pt x="340" y="0" on="1"/>
        <pt x="70" y="0" on="1"/>
        <pt x="70" y="40" on="1"/>
        <pt x="130" y="40" on="1"/>
        <pt x="130" y="660" on="1"/>
      </contour>
      <contour>
        <pt x="290" y="530" on="1"/>
        <pt x="280" y="530" on="1"/>
        <pt x="280" y="170" on="1"/>
        <pt x="290" y="170" on="1"/>
        <pt x="369" y="170" on="0"/>
        <pt x="473" y="265" on="0"/>
        <pt x="473" y="435" on="0"/>
        <pt x="369" y="530" on="0"/>
      </contour>
    </TTGlyph>
    <TTGlyph name="U" xMin="35" yMin="-15" xMax="675" yMax="700">
      <contour>
        <pt x="485" y="660" on="1"/>
        <pt x="485" y="700" on="1"/>
        <pt x="675" y="700" on="1"/>
        <pt x="675" y="660" on="1"/>
        <pt x="615" y="660" on="1"/>
        <pt x="615" y="241" on="1"/>
        <pt x="615" y="169" on="0"/>
        <pt x="572" y="65" on="0"/>
        <pt x="534" y="37" on="1"/>
        <pt x="463" y="-15" on="0"/>
        <pt x="357" y="-15" on="1"/>
        <pt x="251" y="-15" on="0"/>
        <pt x="178" y="38" on="1"/>
        <pt x="139" y="65" on="0"/>
        <pt x="95" y="169" on="0"/>
        <pt x="95" y="242" on="1"/>
        <pt x="95" y="660" on="1"/>
        <pt x="35" y="660" on="1"/>
        <pt x="35" y="700" on="1"/>
        <pt x="305" y="700" on="1"/>
        <pt x="305" y="660" on="1"/>
        <pt x="245" y="660" on="1"/>
        <pt x="245" y="210" on="1"/>
        <pt x="245" y="132" on="0"/>
        <pt x="329" y="48" on="0"/>
        <pt x="452" y="48" on="0"/>
        <pt x="545" y="133" on="0"/>
        <pt x="545" y="210" on="1"/>
        <pt x="545" y="660" on="1"/>
      </contour>
    </TTGlyph>
    <TTGlyph name="Uacute" xMin="35" yMin="-15" xMax="675" yMax="965">
      <contour>
        <pt x="485" y="660" on="1"/>
        <pt x="485" y="700" on="1"/>
        <pt x="675" y="700" on="1"/>
        <pt x="675" y="660" on="1"/>
        <pt x="615" y="660" on="1"/>
        <pt x="615" y="241" on="1"/>
        <pt x="615" y="169" on="0"/>
        <pt x="572" y="65" on="0"/>
        <pt x="534" y="37" on="1"/>
        <pt x="463" y="-15" on="0"/>
        <pt x="357" y="-15" on="1"/>
        <pt x="251" y="-15" on="0"/>
        <pt x="178" y="38" on="1"/>
        <pt x="139" y="65" on="0"/>
        <pt x="95" y="169" on="0"/>
        <pt x="95" y="242" on="1"/>
        <pt x="95" y="660" on="1"/>
        <pt x="35" y="660" on="1"/>
        <pt x="35" y="700" on="1"/>
        <pt x="305" y="700" on="1"/>
        <pt x="305" y="660" on="1"/>
        <pt x="245" y="660" on="1"/>
        <pt x="245" y="210" on="1"/>
        <pt x="245" y="132" on="0"/>
        <pt x="329" y="48" on="0"/>
        <pt x="452" y="48" on="0"/>
        <pt x="545" y="133" on="0"/>
        <pt x="545" y="210" on="1"/>
        <pt x="545" y="660" on="1"/>
      </contour>
      <contour>
        <pt x="382" y="951" on="0"/>
        <pt x="409" y="965" on="0"/>
        <pt x="448" y="965" on="0"/>
        <pt x="481" y="936" on="0"/>
        <pt x="481" y="890" on="0"/>
        <pt x="445" y="855" on="0"/>
        <pt x="398" y="832" on="1"/>
        <pt x="250" y="759" on="1"/>
        <pt x="229" y="783" on="1"/>
        <pt x="348" y="915" on="1"/>
        <pt x="365" y="934" on="0"/>
      </contour>
    </TTGlyph>
    <TTGlyph name="Ubreve" xMin="35" yMin="-15" xMax="675" yMax="960">
      <contour>
        <pt x="485" y="660" on="1"/>
        <pt x="485" y="700" on="1"/>
        <pt x="675" y="700" on="1"/>
        <pt x="675" y="660" on="1"/>
        <pt x="615" y="660" on="1"/>
        <pt x="615" y="241" on="1"/>
        <pt x="615" y="169" on="0"/>
        <pt x="572" y="65" on="0"/>
        <pt x="534" y="37" on="1"/>
        <pt x="463" y="-15" on="0"/>
        <pt x="357" y="-15" on="1"/>
        <pt x="251" y="-15" on="0"/>
        <pt x="178" y="38" on="1"/>
        <pt x="139" y="65" on="0"/>
        <pt x="95" y="169" on="0"/>
        <pt x="95" y="242" on="1"/>
        <pt x="95" y="660" on="1"/>
        <pt x="35" y="660" on="1"/>
        <pt x="35" y="700" on="1"/>
        <pt x="305" y="700" on="1"/>
        <pt x="305" y="660" on="1"/>
        <pt x="245" y="660" on="1"/>
        <pt x="245" y="210" on="1"/>
        <pt x="245" y="132" on="0"/>
        <pt x="329" y="48" on="0"/>
        <pt x="452" y="48" on="0"/>
        <pt x="545" y="133" on="0"/>
        <pt x="545" y="210" on="1"/>
        <pt x="545" y="660" on="1"/>
      </contour>
      <contour>
        <pt x="350" y="878" on="1"/>
        <pt x="369" y="870" on="0"/>
        <pt x="416" y="870" on="0"/>
        <pt x="469" y="906" on="0"/>
        <pt x="493" y="935" on="0"/>
        <pt x="511" y="960" on="1"/>
        <pt x="556" y="931" on="1"/>
        <pt x="506" y="840" on="0"/>
        <pt x="432" y="769" on="0"/>
        <pt x="348" y="769" on="0"/>
        <pt x="274" y="840" on="0"/>
        <pt x="224" y="931" on="1"/>
        <pt x="268" y="960" on="1"/>
        <pt x="317" y="893" on="0"/>
      </contour>
    </TTGlyph>
    <TTGlyph name="Ucircumflex" xMin="35" yMin="-15" xMax="675" yMax="965">
      <contour>
        <pt x="485" y="660" on="1"/>
        <pt x="485" y="700" on="1"/>
        <pt x="675" y="700" on="1"/>
        <pt x="675" y="660" on="1"/>
        <pt x="615" y="660" on="1"/>
        <pt x="615" y="241" on="1"/>
        <pt x="615" y="169" on="0"/>
        <pt x="572" y="65" on="0"/>
        <pt x="534" y="37" on="1"/>
        <pt x="463" y="-15" on="0"/>
        <pt x="357" y="-15" on="1"/>
        <pt x="251" y="-15" on="0"/>
        <pt x="178" y="38" on="1"/>
        <pt x="139" y="65" on="0"/>
        <pt x="95" y="169" on="0"/>
        <pt x="95" y="242" on="1"/>
        <pt x="95" y="660" on="1"/>
        <pt x="35" y="660" on="1"/>
        <pt x="35" y="700" on="1"/>
        <pt x="305" y="700" on="1"/>
        <pt x="305" y="660" on="1"/>
        <pt x="245" y="660" on="1"/>
        <pt x="245" y="210" on="1"/>
        <pt x="245" y="132" on="0"/>
        <pt x="329" y="48" on="0"/>
        <pt x="452" y="48" on="0"/>
        <pt x="545" y="133" on="0"/>
        <pt x="545" y="210" on="1"/>
        <pt x="545" y="660" on="1"/>
      </contour>
      <contour>
        <pt x="340" y="965" on="0"/>
        <pt x="400" y="965" on="0"/>
        <pt x="428" y="927" on="1"/>
        <pt x="536" y="783" on="1"/>
        <pt x="515" y="759" on="1"/>
        <pt x="374" y="854" on="1"/>
        <pt x="366" y="854" on="1"/>
        <pt x="225" y="759" on="1"/>
        <pt x="204" y="783" on="1"/>
        <pt x="312" y="927" on="1"/>
      </contour>
    </TTGlyph>
    <TTGlyph name="Udieresis" xMin="35" yMin="-15" xMax="675" yMax="946">
      <contour>
        <pt x="485" y="660" on="1"/>
        <pt x="485" y="700" on="1"/>
        <pt x="675" y="700" on="1"/>
        <pt x="675" y="660" on="1"/>
        <pt x="615" y="660" on="1"/>
        <pt x="615" y="241" on="1"/>
        <pt x="615" y="169" on="0"/>
        <pt x="572" y="65" on="0"/>
        <pt x="534" y="37" on="1"/>
        <pt x="463" y="-15" on="0"/>
        <pt x="357" y="-15" on="1"/>
        <pt x="251" y="-15" on="0"/>
        <pt x="178" y="38" on="1"/>
        <pt x="139" y="65" on="0"/>
        <pt x="95" y="169" on="0"/>
        <pt x="95" y="242" on="1"/>
        <pt x="95" y="660" on="1"/>
        <pt x="35" y="660" on="1"/>
        <pt x="35" y="700" on="1"/>
        <pt x="305" y="700" on="1"/>
        <pt x="305" y="660" on="1"/>
        <pt x="245" y="660" on="1"/>
        <pt x="245" y="210" on="1"/>
        <pt x="245" y="132" on="0"/>
        <pt x="329" y="48" on="0"/>
        <pt x="452" y="48" on="0"/>
        <pt x="545" y="133" on="0"/>
        <pt x="545" y="210" on="1"/>
        <pt x="545" y="660" on="1"/>
      </contour>
      <contour>
        <pt x="164" y="838" on="0"/>
        <pt x="164" y="902" on="0"/>
        <pt x="208" y="946" on="0"/>
        <pt x="272" y="946" on="0"/>
        <pt x="316" y="902" on="0"/>
        <pt x="316" y="838" on="0"/>
        <pt x="272" y="794" on="0"/>
        <pt x="208" y="794" on="0"/>
      </contour>
      <contour>
        <pt x="394" y="838" on="0"/>
        <pt x="394" y="902" on="0"/>
        <pt x="438" y="946" on="0"/>
        <pt x="502" y="946" on="0"/>
        <pt x="546" y="902" on="0"/>
        <pt x="546" y="838" on="0"/>
        <pt x="502" y="794" on="0"/>
        <pt x="438" y="794" on="0"/>
      </contour>
    </TTGlyph>
    <TTGlyph name="Ugrave" xMin="35" yMin="-15" xMax="675" yMax="965">
      <contour>
        <pt x="485" y="660" on="1"/>
        <pt x="485" y="700" on="1"/>
        <pt x="675" y="700" on="1"/>
        <pt x="675" y="660" on="1"/>
        <pt x="615" y="660" on="1"/>
        <pt x="615" y="241" on="1"/>
        <pt x="615" y="169" on="0"/>
        <pt x="572" y="65" on="0"/>
        <pt x="534" y="37" on="1"/>
        <pt x="463" y="-15" on="0"/>
        <pt x="357" y="-15" on="1"/>
        <pt x="251" y="-15" on="0"/>
        <pt x="178" y="38" on="1"/>
        <pt x="139" y="65" on="0"/>
        <pt x="95" y="169" on="0"/>
        <pt x="95" y="242" on="1"/>
        <pt x="95" y="660" on="1"/>
        <pt x="35" y="660" on="1"/>
        <pt x="35" y="700" on="1"/>
        <pt x="305" y="700" on="1"/>
        <pt x="305" y="660" on="1"/>
        <pt x="245" y="660" on="1"/>
        <pt x="245" y="210" on="1"/>
        <pt x="245" y="132" on="0"/>
        <pt x="329" y="48" on="0"/>
        <pt x="452" y="48" on="0"/>
        <pt x="545" y="133" on="0"/>
        <pt x="545" y="210" on="1"/>
        <pt x="545" y="660" on="1"/>
      </contour>
      <contour>
        <pt x="224" y="936" on="0"/>
        <pt x="257" y="965" on="0"/>
        <pt x="296" y="965" on="0"/>
        <pt x="323" y="951" on="0"/>
        <pt x="340" y="934" on="0"/>
        <pt x="357" y="915" on="1"/>
        <pt x="476" y="783" on="1"/>
        <pt x="455" y="759" on="1"/>
        <pt x="307" y="832" on="1"/>
        <pt x="260" y="855" on="0"/>
        <pt x="224" y="890" on="0"/>
      </contour>
    </TTGlyph>
    <TTGlyph name="Uhungarumlaut" xMin="35" yMin="-15" xMax="675" yMax="965">
      <contour>
        <pt x="485" y="660" on="1"/>
        <pt x="485" y="700" on="1"/>
        <pt x="675" y="700" on="1"/>
        <pt x="675" y="660" on="1"/>
        <pt x="615" y="660" on="1"/>
        <pt x="615" y="241" on="1"/>
        <pt x="615" y="169" on="0"/>
        <pt x="572" y="65" on="0"/>
        <pt x="534" y="37" on="1"/>
        <pt x="463" y="-15" on="0"/>
        <pt x="357" y="-15" on="1"/>
        <pt x="251" y="-15" on="0"/>
        <pt x="178" y="38" on="1"/>
        <pt x="139" y="65" on="0"/>
        <pt x="95" y="169" on="0"/>
        <pt x="95" y="242" on="1"/>
        <pt x="95" y="660" on="1"/>
        <pt x="35" y="660" on="1"/>
        <pt x="35" y="700" on="1"/>
        <pt x="305" y="700" on="1"/>
        <pt x="305" y="660" on="1"/>
        <pt x="245" y="660" on="1"/>
        <pt x="245" y="210" on="1"/>
        <pt x="245" y="132" on="0"/>
        <pt x="329" y="48" on="0"/>
        <pt x="452" y="48" on="0"/>
        <pt x="545" y="133" on="0"/>
        <pt x="545" y="210" on="1"/>
        <pt x="545" y="660" on="1"/>
      </contour>
      <contour>
        <pt x="307" y="941" on="0"/>
        <pt x="340" y="965" on="0"/>
        <pt x="384" y="965" on="0"/>
        <pt x="413" y="940" on="0"/>
        <pt x="413" y="919" on="1"/>
        <pt x="413" y="885" on="0"/>
        <pt x="365" y="850" on="1"/>
        <pt x="240" y="759" on="1"/>
        <pt x="216" y="782" on="1"/>
        <pt x="289" y="910" on="1"/>
      </contour>
      <contour>
        <pt x="497" y="941" on="0"/>
        <pt x="530" y="965" on="0"/>
        <pt x="574" y="965" on="0"/>
        <pt x="603" y="940" on="0"/>
        <pt x="603" y="919" on="1"/>
        <pt x="603" y="885" on="0"/>
        <pt x="555" y="850" on="1"/>
        <pt x="430" y="759" on="1"/>
        <pt x="406" y="782" on="1"/>
        <pt x="479" y="910" on="1"/>
      </contour>
    </TTGlyph>
    <TTGlyph name="Umacron" xMin="35" yMin="-15" xMax="675" yMax="900">
      <contour>
        <pt x="485" y="660" on="1"/>
        <pt x="485" y="700" on="1"/>
        <pt x="675" y="700" on="1"/>
        <pt x="675" y="660" on="1"/>
        <pt x="615" y="660" on="1"/>
        <pt x="615" y="241" on="1"/>
        <pt x="615" y="169" on="0"/>
        <pt x="572" y="65" on="0"/>
        <pt x="534" y="37" on="1"/>
        <pt x="463" y="-15" on="0"/>
        <pt x="357" y="-15" on="1"/>
        <pt x="251" y="-15" on="0"/>
        <pt x="178" y="38" on="1"/>
        <pt x="139" y="65" on="0"/>
        <pt x="95" y="169" on="0"/>
        <pt x="95" y="242" on="1"/>
        <pt x="95" y="660" on="1"/>
        <pt x="35" y="660" on="1"/>
        <pt x="35" y="700" on="1"/>
        <pt x="305" y="700" on="1"/>
        <pt x="305" y="660" on="1"/>
        <pt x="245" y="660" on="1"/>
        <pt x="245" y="210" on="1"/>
        <pt x="245" y="132" on="0"/>
        <pt x="329" y="48" on="0"/>
        <pt x="452" y="48" on="0"/>
        <pt x="545" y="133" on="0"/>
        <pt x="545" y="210" on="1"/>
        <pt x="545" y="660" on="1"/>
      </contour>
      <contour>
        <pt x="243" y="900" on="1"/>
        <pt x="537" y="900" on="1"/>
        <pt x="537" y="812" on="1"/>
        <pt x="243" y="812" on="1"/>
      </contour>
    </TTGlyph>
    <TTGlyph name="Uogonek" xMin="35" yMin="-238" xMax="675" yMax="700">
      <contour>
        <pt x="485" y="660" on="1"/>
        <pt x="485" y="700" on="1"/>
        <pt x="675" y="700" on="1"/>
        <pt x="675" y="660" on="1"/>
        <pt x="615" y="660" on="1"/>
        <pt x="615" y="241" on="1"/>
        <pt x="615" y="125" on="0"/>
        <pt x="510" y="5" on="0"/>
        <pt x="424" y="-9" on="1"/>
        <pt x="388" y="-46" on="0"/>
        <pt x="364" y="-95" on="0"/>
        <pt x="364" y="-150" on="0"/>
        <pt x="397" y="-179" on="0"/>
        <pt x="459" y="-179" on="0"/>
        <pt x="489" y="-151" on="1"/>
        <pt x="506" y="-180" on="1"/>
        <pt x="458" y="-238" on="0"/>
        <pt x="382" y="-238" on="1"/>
        <pt x="335" y="-238" on="0"/>
        <pt x="273" y="-191" on="0"/>
        <pt x="273" y="-143" on="1"/>
        <pt x="273" y="-119" on="0"/>
        <pt x="303" y="-70" on="0"/>
        <pt x="318" y="-56" on="1"/>
        <pt x="367" y="-15" on="1"/>
        <pt x="357" y="-15" on="1"/>
        <pt x="251" y="-15" on="0"/>
        <pt x="178" y="38" on="1"/>
        <pt x="139" y="65" on="0"/>
        <pt x="95" y="169" on="0"/>
        <pt x="95" y="242" on="1"/>
        <pt x="95" y="660" on="1"/>
        <pt x="35" y="660" on="1"/>
        <pt x="35" y="700" on="1"/>
        <pt x="305" y="700" on="1"/>
        <pt x="305" y="660" on="1"/>
        <pt x="245" y="660" on="1"/>
        <pt x="245" y="210" on="1"/>
        <pt x="245" y="132" on="0"/>
        <pt x="329" y="48" on="0"/>
        <pt x="452" y="48" on="0"/>
        <pt x="545" y="133" on="0"/>
        <pt x="545" y="210" on="1"/>
        <pt x="545" y="660" on="1"/>
      </contour>
    </TTGlyph>
    <TTGlyph name="Uring" xMin="35" yMin="-15" xMax="675" yMax="987">
      <contour>
        <pt x="485" y="660" on="1"/>
        <pt x="485" y="700" on="1"/>
        <pt x="675" y="700" on="1"/>
        <pt x="675" y="660" on="1"/>
        <pt x="615" y="660" on="1"/>
        <pt x="615" y="241" on="1"/>
        <pt x="615" y="169" on="0"/>
        <pt x="572" y="65" on="0"/>
        <pt x="534" y="37" on="1"/>
        <pt x="463" y="-15" on="0"/>
        <pt x="357" y="-15" on="1"/>
        <pt x="251" y="-15" on="0"/>
        <pt x="178" y="38" on="1"/>
        <pt x="139" y="65" on="0"/>
        <pt x="95" y="169" on="0"/>
        <pt x="95" y="242" on="1"/>
        <pt x="95" y="660" on="1"/>
        <pt x="35" y="660" on="1"/>
        <pt x="35" y="700" on="1"/>
        <pt x="305" y="700" on="1"/>
        <pt x="305" y="660" on="1"/>
        <pt x="245" y="660" on="1"/>
        <pt x="245" y="210" on="1"/>
        <pt x="245" y="132" on="0"/>
        <pt x="329" y="48" on="0"/>
        <pt x="452" y="48" on="0"/>
        <pt x="545" y="133" on="0"/>
        <pt x="545" y="210" on="1"/>
        <pt x="545" y="660" on="1"/>
      </contour>
      <contour>
        <pt x="335" y="753" on="0"/>
        <pt x="261" y="817" on="0"/>
        <pt x="261" y="922" on="0"/>
        <pt x="335" y="987" on="0"/>
        <pt x="445" y="987" on="0"/>
        <pt x="519" y="922" on="0"/>
        <pt x="519" y="817" on="0"/>
        <pt x="445" y="753" on="0"/>
      </contour>
      <contour>
        <pt x="345" y="952" on="0"/>
        <pt x="345" y="786" on="0"/>
        <pt x="434" y="786" on="0"/>
        <pt x="434" y="952" on="0"/>
      </contour>
    </TTGlyph>
    <TTGlyph name="Utilde" xMin="35" yMin="-15" xMax="675" yMax="962">
      <contour>
        <pt x="485" y="660" on="1"/>
        <pt x="485" y="700" on="1"/>
        <pt x="675" y="700" on="1"/>
        <pt x="675" y="660" on="1"/>
        <pt x="615" y="660" on="1"/>
        <pt x="615" y="241" on="1"/>
        <pt x="615" y="169" on="0"/>
        <pt x="572" y="65" on="0"/>
        <pt x="534" y="37" on="1"/>
        <pt x="463" y="-15" on="0"/>
        <pt x="357" y="-15" on="1"/>
        <pt x="251" y="-15" on="0"/>
        <pt x="178" y="38" on="1"/>
        <pt x="139" y="65" on="0"/>
        <pt x="95" y="169" on="0"/>
        <pt x="95" y="242" on="1"/>
        <pt x="95" y="660" on="1"/>
        <pt x="35" y="660" on="1"/>
        <pt x="35" y="700" on="1"/>
        <pt x="305" y="700" on="1"/>
        <pt x="305" y="660" on="1"/>
        <pt x="245" y="660" on="1"/>
        <pt x="245" y="210" on="1"/>
        <pt x="245" y="132" on="0"/>
        <pt x="329" y="48" on="0"/>
        <pt x="452" y="48" on="0"/>
        <pt x="545" y="133" on="0"/>
        <pt x="545" y="210" on="1"/>
        <pt x="545" y="660" on="1"/>
      </contour>
      <contour>
        <pt x="502" y="809" on="1"/>
        <pt x="502" y="824" on="1"/>
        <pt x="502" y="863" on="0"/>
        <pt x="474" y="863" on="1"/>
        <pt x="462" y="863" on="0"/>
        <pt x="451" y="856" on="1"/>
        <pt x="366" y="808" on="1"/>
        <pt x="334" y="789" on="0"/>
        <pt x="278" y="789" on="0"/>
        <pt x="233" y="841" on="0"/>
        <pt x="233" y="910" on="0"/>
        <pt x="241" y="942" on="1"/>
        <pt x="277" y="942" on="1"/>
        <pt x="277" y="927" on="1"/>
        <pt x="277" y="888" on="0"/>
        <pt x="305" y="888" on="1"/>
        <pt x="317" y="888" on="0"/>
        <pt x="328" y="895" on="1"/>
        <pt x="413" y="943" on="1"/>
        <pt x="445" y="962" on="0"/>
        <pt x="501" y="962" on="0"/>
        <pt x="546" y="910" on="0"/>
        <pt x="546" y="841" on="0"/>
        <pt x="538" y="809" on="1"/>
      </contour>
    </TTGlyph>
    <TTGlyph name="V" xMin="25" yMin="-15" xMax="625" yMax="715">
      <contour>
        <pt x="25" y="660" on="1"/>
        <pt x="25" y="700" on="1"/>
        <pt x="236" y="700" on="1"/>
        <pt x="271" y="165" on="1"/>
        <pt x="278" y="63" on="0"/>
        <pt x="364" y="63" on="1"/>
        <pt x="428" y="63" on="0"/>
        <pt x="475" y="111" on="1"/>
        <pt x="567" y="205" on="0"/>
        <pt x="567" y="390" on="1"/>
        <pt x="567" y="493" on="0"/>
        <pt x="531" y="573" on="1"/>
        <pt x="513" y="613" on="0"/>
        <pt x="455" y="638" on="0"/>
        <pt x="407" y="638" on="1"/>
        <pt x="369" y="638" on="1"/>
        <pt x="363" y="675" on="1"/>
        <pt x="467" y="710" on="1"/>
        <pt x="484" y="715" on="0"/>
        <pt x="510" y="715" on="0"/>
        <pt x="519" y="711" on="1"/>
        <pt x="555" y="696" on="0"/>
        <pt x="625" y="543" on="0"/>
        <pt x="625" y="414" on="1"/>
        <pt x="625" y="248" on="0"/>
        <pt x="554" y="121" on="1"/>
        <pt x="520" y="59" on="0"/>
        <pt x="403" y="-15" on="0"/>
        <pt x="328" y="-15" on="1"/>
        <pt x="218" y="-15" on="0"/>
        <pt x="123" y="103" on="0"/>
        <pt x="115" y="225" on="1"/>
        <pt x="87" y="660" on="1"/>
      </contour>
    </TTGlyph>
    <TTGlyph name="W" xMin="25" yMin="-15" xMax="997" yMax="715">
      <contour>
        <pt x="25" y="660" on="1"/>
        <pt x="25" y="700" on="1"/>
        <pt x="236" y="700" on="1"/>
        <pt x="271" y="165" on="1"/>
        <pt x="278" y="63" on="0"/>
        <pt x="364" y="63" on="1"/>
        <pt x="457" y="63" on="0"/>
        <pt x="512" y="173" on="1"/>
        <pt x="509" y="189" on="0"/>
        <pt x="507" y="225" on="1"/>
        <pt x="479" y="660" on="1"/>
        <pt x="417" y="660" on="1"/>
        <pt x="417" y="700" on="1"/>
        <pt x="628" y="700" on="1"/>
        <pt x="663" y="165" on="1"/>
        <pt x="670" y="63" on="0"/>
        <pt x="756" y="63" on="1"/>
        <pt x="813" y="63" on="0"/>
        <pt x="856" y="111" on="1"/>
        <pt x="939" y="205" on="0"/>
        <pt x="939" y="390" on="1"/>
        <pt x="939" y="493" on="0"/>
        <pt x="903" y="573" on="1"/>
        <pt x="885" y="613" on="0"/>
        <pt x="827" y="638" on="0"/>
        <pt x="779" y="638" on="1"/>
        <pt x="741" y="638" on="1"/>
        <pt x="735" y="675" on="1"/>
        <pt x="839" y="710" on="1"/>
        <pt x="856" y="715" on="0"/>
        <pt x="882" y="715" on="0"/>
        <pt x="891" y="711" on="1"/>
        <pt x="927" y="696" on="0"/>
        <pt x="997" y="543" on="0"/>
        <pt x="997" y="414" on="1"/>
        <pt x="997" y="246" on="0"/>
        <pt x="932" y="121" on="1"/>
        <pt x="899" y="59" on="0"/>
        <pt x="790" y="-15" on="0"/>
        <pt x="720" y="-15" on="1"/>
        <pt x="575" y="-15" on="0"/>
        <pt x="531" y="97" on="1"/>
        <pt x="455" y="-15" on="0"/>
        <pt x="328" y="-15" on="1"/>
        <pt x="218" y="-15" on="0"/>
        <pt x="123" y="103" on="0"/>
        <pt x="115" y="225" on="1"/>
        <pt x="87" y="660" on="1"/>
      </contour>
    </TTGlyph>
    <TTGlyph name="Wacute" xMin="25" yMin="-15" xMax="997" yMax="965">
      <contour>
        <pt x="25" y="660" on="1"/>
        <pt x="25" y="700" on="1"/>
        <pt x="236" y="700" on="1"/>
        <pt x="271" y="165" on="1"/>
        <pt x="278" y="63" on="0"/>
        <pt x="364" y="63" on="1"/>
        <pt x="457" y="63" on="0"/>
        <pt x="512" y="173" on="1"/>
        <pt x="509" y="189" on="0"/>
        <pt x="507" y="225" on="1"/>
        <pt x="479" y="660" on="1"/>
        <pt x="417" y="660" on="1"/>
        <pt x="417" y="700" on="1"/>
        <pt x="628" y="700" on="1"/>
        <pt x="663" y="165" on="1"/>
        <pt x="670" y="63" on="0"/>
        <pt x="756" y="63" on="1"/>
        <pt x="813" y="63" on="0"/>
        <pt x="856" y="111" on="1"/>
        <pt x="939" y="205" on="0"/>
        <pt x="939" y="390" on="1"/>
        <pt x="939" y="493" on="0"/>
        <pt x="903" y="573" on="1"/>
        <pt x="885" y="613" on="0"/>
        <pt x="827" y="638" on="0"/>
        <pt x="779" y="638" on="1"/>
        <pt x="741" y="638" on="1"/>
        <pt x="735" y="675" on="1"/>
        <pt x="839" y="710" on="1"/>
        <pt x="856" y="715" on="0"/>
        <pt x="882" y="715" on="0"/>
        <pt x="891" y="711" on="1"/>
        <pt x="927" y="696" on="0"/>
        <pt x="997" y="543" on="0"/>
        <pt x="997" y="414" on="1"/>
        <pt x="997" y="246" on="0"/>
        <pt x="932" y="121" on="1"/>
        <pt x="899" y="59" on="0"/>
        <pt x="790" y="-15" on="0"/>
        <pt x="720" y="-15" on="1"/>
        <pt x="575" y="-15" on="0"/>
        <pt x="531" y="97" on="1"/>
        <pt x="455" y="-15" on="0"/>
        <pt x="328" y="-15" on="1"/>
        <pt x="218" y="-15" on="0"/>
        <pt x="123" y="103" on="0"/>
        <pt x="115" y="225" on="1"/>
        <pt x="87" y="660" on="1"/>
      </contour>
      <contour>
        <pt x="575" y="951" on="0"/>
        <pt x="602" y="965" on="0"/>
        <pt x="641" y="965" on="0"/>
        <pt x="674" y="936" on="0"/>
        <pt x="674" y="890" on="0"/>
        <pt x="638" y="855" on="0"/>
        <pt x="591" y="832" on="1"/>
        <pt x="443" y="759" on="1"/>
        <pt x="422" y="783" on="1"/>
        <pt x="541" y="915" on="1"/>
        <pt x="558" y="934" on="0"/>
      </contour>
    </TTGlyph>
    <TTGlyph name="Wcircumflex" xMin="25" yMin="-15" xMax="997" yMax="965">
      <contour>
        <pt x="25" y="660" on="1"/>
        <pt x="25" y="700" on="1"/>
        <pt x="236" y="700" on="1"/>
        <pt x="271" y="165" on="1"/>
        <pt x="278" y="63" on="0"/>
        <pt x="364" y="63" on="1"/>
        <pt x="457" y="63" on="0"/>
        <pt x="512" y="173" on="1"/>
        <pt x="509" y="189" on="0"/>
        <pt x="507" y="225" on="1"/>
        <pt x="479" y="660" on="1"/>
        <pt x="417" y="660" on="1"/>
        <pt x="417" y="700" on="1"/>
        <pt x="628" y="700" on="1"/>
        <pt x="663" y="165" on="1"/>
        <pt x="670" y="63" on="0"/>
        <pt x="756" y="63" on="1"/>
        <pt x="813" y="63" on="0"/>
        <pt x="856" y="111" on="1"/>
        <pt x="939" y="205" on="0"/>
        <pt x="939" y="390" on="1"/>
        <pt x="939" y="493" on="0"/>
        <pt x="903" y="573" on="1"/>
        <pt x="885" y="613" on="0"/>
        <pt x="827" y="638" on="0"/>
        <pt x="779" y="638" on="1"/>
        <pt x="741" y="638" on="1"/>
        <pt x="735" y="675" on="1"/>
        <pt x="839" y="710" on="1"/>
        <pt x="856" y="715" on="0"/>
        <pt x="882" y="715" on="0"/>
        <pt x="891" y="711" on="1"/>
        <pt x="927" y="696" on="0"/>
        <pt x="997" y="543" on="0"/>
        <pt x="997" y="414" on="1"/>
        <pt x="997" y="246" on="0"/>
        <pt x="932" y="121" on="1"/>
        <pt x="899" y="59" on="0"/>
        <pt x="790" y="-15" on="0"/>
        <pt x="720" y="-15" on="1"/>
        <pt x="575" y="-15" on="0"/>
        <pt x="531" y="97" on="1"/>
        <pt x="455" y="-15" on="0"/>
        <pt x="328" y="-15" on="1"/>
        <pt x="218" y="-15" on="0"/>
        <pt x="123" y="103" on="0"/>
        <pt x="115" y="225" on="1"/>
        <pt x="87" y="660" on="1"/>
      </contour>
      <contour>
        <pt x="508" y="965" on="0"/>
        <pt x="568" y="965" on="0"/>
        <pt x="596" y="927" on="1"/>
        <pt x="704" y="783" on="1"/>
        <pt x="683" y="759" on="1"/>
        <pt x="542" y="854" on="1"/>
        <pt x="534" y="854" on="1"/>
        <pt x="393" y="759" on="1"/>
        <pt x="372" y="783" on="1"/>
        <pt x="480" y="927" on="1"/>
      </contour>
    </TTGlyph>
    <TTGlyph name="Wdieresis" xMin="25" yMin="-15" xMax="997" yMax="946">
      <contour>
        <pt x="25" y="660" on="1"/>
        <pt x="25" y="700" on="1"/>
        <pt x="236" y="700" on="1"/>
        <pt x="271" y="165" on="1"/>
        <pt x="278" y="63" on="0"/>
        <pt x="364" y="63" on="1"/>
        <pt x="457" y="63" on="0"/>
        <pt x="512" y="173" on="1"/>
        <pt x="509" y="189" on="0"/>
        <pt x="507" y="225" on="1"/>
        <pt x="479" y="660" on="1"/>
        <pt x="417" y="660" on="1"/>
        <pt x="417" y="700" on="1"/>
        <pt x="628" y="700" on="1"/>
        <pt x="663" y="165" on="1"/>
        <pt x="670" y="63" on="0"/>
        <pt x="756" y="63" on="1"/>
        <pt x="813" y="63" on="0"/>
        <pt x="856" y="111" on="1"/>
        <pt x="939" y="205" on="0"/>
        <pt x="939" y="390" on="1"/>
        <pt x="939" y="493" on="0"/>
        <pt x="903" y="573" on="1"/>
        <pt x="885" y="613" on="0"/>
        <pt x="827" y="638" on="0"/>
        <pt x="779" y="638" on="1"/>
        <pt x="741" y="638" on="1"/>
        <pt x="735" y="675" on="1"/>
        <pt x="839" y="710" on="1"/>
        <pt x="856" y="715" on="0"/>
        <pt x="882" y="715" on="0"/>
        <pt x="891" y="711" on="1"/>
        <pt x="927" y="696" on="0"/>
        <pt x="997" y="543" on="0"/>
        <pt x="997" y="414" on="1"/>
        <pt x="997" y="246" on="0"/>
        <pt x="932" y="121" on="1"/>
        <pt x="899" y="59" on="0"/>
        <pt x="790" y="-15" on="0"/>
        <pt x="720" y="-15" on="1"/>
        <pt x="575" y="-15" on="0"/>
        <pt x="531" y="97" on="1"/>
        <pt x="455" y="-15" on="0"/>
        <pt x="328" y="-15" on="1"/>
        <pt x="218" y="-15" on="0"/>
        <pt x="123" y="103" on="0"/>
        <pt x="115" y="225" on="1"/>
        <pt x="87" y="660" on="1"/>
      </contour>
      <contour>
        <pt x="327" y="838" on="0"/>
        <pt x="327" y="902" on="0"/>
        <pt x="372" y="946" on="0"/>
        <pt x="434" y="946" on="0"/>
        <pt x="479" y="902" on="0"/>
        <pt x="479" y="838" on="0"/>
        <pt x="434" y="794" on="0"/>
        <pt x="372" y="794" on="0"/>
      </contour>
      <contour>
        <pt x="557" y="838" on="0"/>
        <pt x="557" y="902" on="0"/>
        <pt x="602" y="946" on="0"/>
        <pt x="664" y="946" on="0"/>
        <pt x="709" y="902" on="0"/>
        <pt x="709" y="838" on="0"/>
        <pt x="664" y="794" on="0"/>
        <pt x="602" y="794" on="0"/>
      </contour>
    </TTGlyph>
    <TTGlyph name="Wgrave" xMin="25" yMin="-15" xMax="997" yMax="965">
      <contour>
        <pt x="25" y="660" on="1"/>
        <pt x="25" y="700" on="1"/>
        <pt x="236" y="700" on="1"/>
        <pt x="271" y="165" on="1"/>
        <pt x="278" y="63" on="0"/>
        <pt x="364" y="63" on="1"/>
        <pt x="457" y="63" on="0"/>
        <pt x="512" y="173" on="1"/>
        <pt x="509" y="189" on="0"/>
        <pt x="507" y="225" on="1"/>
        <pt x="479" y="660" on="1"/>
        <pt x="417" y="660" on="1"/>
        <pt x="417" y="700" on="1"/>
        <pt x="628" y="700" on="1"/>
        <pt x="663" y="165" on="1"/>
        <pt x="670" y="63" on="0"/>
        <pt x="756" y="63" on="1"/>
        <pt x="813" y="63" on="0"/>
        <pt x="856" y="111" on="1"/>
        <pt x="939" y="205" on="0"/>
        <pt x="939" y="390" on="1"/>
        <pt x="939" y="493" on="0"/>
        <pt x="903" y="573" on="1"/>
        <pt x="885" y="613" on="0"/>
        <pt x="827" y="638" on="0"/>
        <pt x="779" y="638" on="1"/>
        <pt x="741" y="638" on="1"/>
        <pt x="735" y="675" on="1"/>
        <pt x="839" y="710" on="1"/>
        <pt x="856" y="715" on="0"/>
        <pt x="882" y="715" on="0"/>
        <pt x="891" y="711" on="1"/>
        <pt x="927" y="696" on="0"/>
        <pt x="997" y="543" on="0"/>
        <pt x="997" y="414" on="1"/>
        <pt x="997" y="246" on="0"/>
        <pt x="932" y="121" on="1"/>
        <pt x="899" y="59" on="0"/>
        <pt x="790" y="-15" on="0"/>
        <pt x="720" y="-15" on="1"/>
        <pt x="575" y="-15" on="0"/>
        <pt x="531" y="97" on="1"/>
        <pt x="455" y="-15" on="0"/>
        <pt x="328" y="-15" on="1"/>
        <pt x="218" y="-15" on="0"/>
        <pt x="123" y="103" on="0"/>
        <pt x="115" y="225" on="1"/>
        <pt x="87" y="660" on="1"/>
      </contour>
      <contour>
        <pt x="402" y="936" on="0"/>
        <pt x="435" y="965" on="0"/>
        <pt x="474" y="965" on="0"/>
        <pt x="501" y="951" on="0"/>
        <pt x="518" y="934" on="0"/>
        <pt x="535" y="915" on="1"/>
        <pt x="654" y="783" on="1"/>
        <pt x="633" y="759" on="1"/>
        <pt x="485" y="832" on="1"/>
        <pt x="438" y="855" on="0"/>
        <pt x="402" y="890" on="0"/>
      </contour>
    </TTGlyph>
    <TTGlyph name="X" xMin="35" yMin="-15" xMax="701" yMax="700">
      <contour>
        <pt x="35" y="0" on="1"/>
        <pt x="35" y="40" on="1"/>
        <pt x="85" y="40" on="1"/>
        <pt x="275" y="321" on="1"/>
        <pt x="98" y="660" on="1"/>
        <pt x="45" y="660" on="1"/>
        <pt x="45" y="700" on="1"/>
        <pt x="244" y="700" on="1"/>
        <pt x="376" y="448" on="1"/>
        <pt x="493" y="700" on="1"/>
        <pt x="647" y="700" on="1"/>
        <pt x="647" y="660" on="1"/>
        <pt x="597" y="660" on="1"/>
        <pt x="410" y="383" on="1"/>
        <pt x="560" y="98" on="1"/>
        <pt x="573" y="72" on="0"/>
        <pt x="598" y="53" on="0"/>
        <pt x="616" y="53" on="1"/>
        <pt x="650" y="53" on="0"/>
        <pt x="679" y="82" on="1"/>
        <pt x="701" y="58" on="1"/>
        <pt x="639" y="-15" on="0"/>
        <pt x="546" y="-15" on="1"/>
        <pt x="499" y="-15" on="0"/>
        <pt x="435" y="16" on="0"/>
        <pt x="414" y="57" on="1"/>
        <pt x="308" y="258" on="1"/>
        <pt x="189" y="0" on="1"/>
      </contour>
    </TTGlyph>
    <TTGlyph name="Y" xMin="5" yMin="0" xMax="602" yMax="700">
      <contour>
        <pt x="135" y="0" on="1"/>
        <pt x="135" y="40" on="1"/>
        <pt x="235" y="40" on="1"/>
        <pt x="235" y="250" on="1"/>
        <pt x="53" y="660" on="1"/>
        <pt x="5" y="660" on="1"/>
        <pt x="5" y="700" on="1"/>
        <pt x="203" y="700" on="1"/>
        <pt x="361" y="308" on="1"/>
        <pt x="451" y="700" on="1"/>
        <pt x="602" y="700" on="1"/>
        <pt x="602" y="660" on="1"/>
        <pt x="555" y="660" on="1"/>
        <pt x="385" y="250" on="1"/>
        <pt x="385" y="40" on="1"/>
        <pt x="485" y="40" on="1"/>
        <pt x="485" y="0" on="1"/>
      </contour>
    </TTGlyph>
    <TTGlyph name="Yacute" xMin="5" yMin="0" xMax="602" yMax="965">
      <contour>
        <pt x="135" y="0" on="1"/>
        <pt x="135" y="40" on="1"/>
        <pt x="235" y="40" on="1"/>
        <pt x="235" y="250" on="1"/>
        <pt x="53" y="660" on="1"/>
        <pt x="5" y="660" on="1"/>
        <pt x="5" y="700" on="1"/>
        <pt x="203" y="700" on="1"/>
        <pt x="361" y="308" on="1"/>
        <pt x="451" y="700" on="1"/>
        <pt x="602" y="700" on="1"/>
        <pt x="602" y="660" on="1"/>
        <pt x="555" y="660" on="1"/>
        <pt x="385" y="250" on="1"/>
        <pt x="385" y="40" on="1"/>
        <pt x="485" y="40" on="1"/>
        <pt x="485" y="0" on="1"/>
      </contour>
      <contour>
        <pt x="364" y="951" on="0"/>
        <pt x="391" y="965" on="0"/>
        <pt x="430" y="965" on="0"/>
        <pt x="463" y="936" on="0"/>
        <pt x="463" y="890" on="0"/>
        <pt x="427" y="855" on="0"/>
        <pt x="380" y="832" on="1"/>
        <pt x="232" y="759" on="1"/>
        <pt x="211" y="783" on="1"/>
        <pt x="330" y="915" on="1"/>
        <pt x="347" y="934" on="0"/>
      </contour>
    </TTGlyph>
    <TTGlyph name="Ycircumflex" xMin="5" yMin="0" xMax="602" yMax="965">
      <contour>
        <pt x="135" y="0" on="1"/>
        <pt x="135" y="40" on="1"/>
        <pt x="235" y="40" on="1"/>
        <pt x="235" y="250" on="1"/>
        <pt x="53" y="660" on="1"/>
        <pt x="5" y="660" on="1"/>
        <pt x="5" y="700" on="1"/>
        <pt x="203" y="700" on="1"/>
        <pt x="361" y="308" on="1"/>
        <pt x="451" y="700" on="1"/>
        <pt x="602" y="700" on="1"/>
        <pt x="602" y="660" on="1"/>
        <pt x="555" y="660" on="1"/>
        <pt x="385" y="250" on="1"/>
        <pt x="385" y="40" on="1"/>
        <pt x="485" y="40" on="1"/>
        <pt x="485" y="0" on="1"/>
      </contour>
      <contour>
        <pt x="283" y="965" on="0"/>
        <pt x="343" y="965" on="0"/>
        <pt x="371" y="927" on="1"/>
        <pt x="479" y="783" on="1"/>
        <pt x="458" y="759" on="1"/>
        <pt x="317" y="854" on="1"/>
        <pt x="309" y="854" on="1"/>
        <pt x="168" y="759" on="1"/>
        <pt x="147" y="783" on="1"/>
        <pt x="255" y="927" on="1"/>
      </contour>
    </TTGlyph>
    <TTGlyph name="Ydieresis" xMin="14" yMin="0" xMax="636" yMax="946">
      <contour>
        <pt x="136" y="0" on="1"/>
        <pt x="136" y="40" on="1"/>
        <pt x="236" y="40" on="1"/>
        <pt x="236" y="250" on="1"/>
        <pt x="64" y="660" on="1"/>
        <pt x="14" y="660" on="1"/>
        <pt x="14" y="700" on="1"/>
        <pt x="214" y="700" on="1"/>
        <pt x="358" y="323" on="1"/>
        <pt x="485" y="700" on="1"/>
        <pt x="636" y="700" on="1"/>
        <pt x="636" y="660" on="1"/>
        <pt x="589" y="660" on="1"/>
        <pt x="386" y="247" on="1"/>
        <pt x="386" y="40" on="1"/>
        <pt x="486" y="40" on="1"/>
        <pt x="486" y="0" on="1"/>
      </contour>
      <contour>
        <pt x="376" y="838" on="0"/>
        <pt x="376" y="902" on="0"/>
        <pt x="420" y="946" on="0"/>
        <pt x="484" y="946" on="0"/>
        <pt x="528" y="902" on="0"/>
        <pt x="528" y="838" on="0"/>
        <pt x="484" y="794" on="0"/>
        <pt x="420" y="794" on="0"/>
      </contour>
      <contour>
        <pt x="146" y="838" on="0"/>
        <pt x="146" y="902" on="0"/>
        <pt x="190" y="946" on="0"/>
        <pt x="254" y="946" on="0"/>
        <pt x="298" y="902" on="0"/>
        <pt x="298" y="838" on="0"/>
        <pt x="254" y="794" on="0"/>
        <pt x="190" y="794" on="0"/>
      </contour>
    </TTGlyph>
    <TTGlyph name="Ygrave" xMin="5" yMin="0" xMax="602" yMax="965">
      <contour>
        <pt x="135" y="0" on="1"/>
        <pt x="135" y="40" on="1"/>
        <pt x="235" y="40" on="1"/>
        <pt x="235" y="250" on="1"/>
        <pt x="53" y="660" on="1"/>
        <pt x="5" y="660" on="1"/>
        <pt x="5" y="700" on="1"/>
        <pt x="203" y="700" on="1"/>
        <pt x="361" y="308" on="1"/>
        <pt x="451" y="700" on="1"/>
        <pt x="602" y="700" on="1"/>
        <pt x="602" y="660" on="1"/>
        <pt x="555" y="660" on="1"/>
        <pt x="385" y="250" on="1"/>
        <pt x="385" y="40" on="1"/>
        <pt x="485" y="40" on="1"/>
        <pt x="485" y="0" on="1"/>
      </contour>
      <contour>
        <pt x="177" y="936" on="0"/>
        <pt x="210" y="965" on="0"/>
        <pt x="249" y="965" on="0"/>
        <pt x="276" y="951" on="0"/>
        <pt x="293" y="934" on="0"/>
        <pt x="310" y="915" on="1"/>
        <pt x="429" y="783" on="1"/>
        <pt x="408" y="759" on="1"/>
        <pt x="260" y="832" on="1"/>
        <pt x="213" y="855" on="0"/>
        <pt x="177" y="890" on="0"/>
      </contour>
    </TTGlyph>
    <TTGlyph name="Z" xMin="30" yMin="0" xMax="560" yMax="700">
      <contour>
        <pt x="499" y="0" on="1"/>
        <pt x="30" y="0" on="1"/>
        <pt x="30" y="40" on="1"/>
        <pt x="393" y="660" on="1"/>
        <pt x="260" y="660" on="1"/>
        <pt x="194" y="660" on="0"/>
        <pt x="145" y="634" on="0"/>
        <pt x="136" y="589" on="1"/>
        <pt x="116" y="490" on="1"/>
        <pt x="77" y="490" on="1"/>
        <pt x="50" y="658" on="1"/>
        <pt x="50" y="678" on="0"/>
        <pt x="68" y="697" on="0"/>
        <pt x="89" y="700" on="0"/>
        <pt x="111" y="700" on="1"/>
        <pt x="555" y="700" on="1"/>
        <pt x="555" y="660" on="1"/>
        <pt x="199" y="40" on="1"/>
        <pt x="350" y="40" on="1"/>
        <pt x="415" y="40" on="0"/>
        <pt x="464" y="66" on="0"/>
        <pt x="474" y="111" on="1"/>
        <pt x="494" y="200" on="1"/>
        <pt x="533" y="200" on="1"/>
        <pt x="560" y="42" on="1"/>
        <pt x="560" y="22" on="0"/>
        <pt x="542" y="3" on="0"/>
        <pt x="521" y="0" on="0"/>
      </contour>
    </TTGlyph>
    <TTGlyph name="Zacute" xMin="30" yMin="0" xMax="560" yMax="965">
      <contour>
        <pt x="499" y="0" on="1"/>
        <pt x="30" y="0" on="1"/>
        <pt x="30" y="40" on="1"/>
        <pt x="393" y="660" on="1"/>
        <pt x="260" y="660" on="1"/>
        <pt x="194" y="660" on="0"/>
        <pt x="145" y="634" on="0"/>
        <pt x="136" y="589" on="1"/>
        <pt x="116" y="490" on="1"/>
        <pt x="77" y="490" on="1"/>
        <pt x="50" y="658" on="1"/>
        <pt x="50" y="678" on="0"/>
        <pt x="68" y="697" on="0"/>
        <pt x="89" y="700" on="0"/>
        <pt x="111" y="700" on="1"/>
        <pt x="555" y="700" on="1"/>
        <pt x="555" y="660" on="1"/>
        <pt x="199" y="40" on="1"/>
        <pt x="350" y="40" on="1"/>
        <pt x="415" y="40" on="0"/>
        <pt x="464" y="66" on="0"/>
        <pt x="474" y="111" on="1"/>
        <pt x="494" y="200" on="1"/>
        <pt x="533" y="200" on="1"/>
        <pt x="560" y="42" on="1"/>
        <pt x="560" y="22" on="0"/>
        <pt x="542" y="3" on="0"/>
        <pt x="521" y="0" on="0"/>
      </contour>
      <contour>
        <pt x="382" y="951" on="0"/>
        <pt x="409" y="965" on="0"/>
        <pt x="448" y="965" on="0"/>
        <pt x="481" y="936" on="0"/>
        <pt x="481" y="890" on="0"/>
        <pt x="445" y="855" on="0"/>
        <pt x="398" y="832" on="1"/>
        <pt x="250" y="759" on="1"/>
        <pt x="229" y="783" on="1"/>
        <pt x="348" y="915" on="1"/>
        <pt x="365" y="934" on="0"/>
      </contour>
    </TTGlyph>
    <TTGlyph name="Zcaron" xMin="30" yMin="0" xMax="560" yMax="965">
      <contour>
        <pt x="499" y="0" on="1"/>
        <pt x="30" y="0" on="1"/>
        <pt x="30" y="40" on="1"/>
        <pt x="393" y="660" on="1"/>
        <pt x="260" y="660" on="1"/>
        <pt x="194" y="660" on="0"/>
        <pt x="145" y="634" on="0"/>
        <pt x="136" y="589" on="1"/>
        <pt x="116" y="490" on="1"/>
        <pt x="77" y="490" on="1"/>
        <pt x="50" y="658" on="1"/>
        <pt x="50" y="678" on="0"/>
        <pt x="68" y="697" on="0"/>
        <pt x="89" y="700" on="0"/>
        <pt x="111" y="700" on="1"/>
        <pt x="555" y="700" on="1"/>
        <pt x="555" y="660" on="1"/>
        <pt x="199" y="40" on="1"/>
        <pt x="350" y="40" on="1"/>
        <pt x="415" y="40" on="0"/>
        <pt x="464" y="66" on="0"/>
        <pt x="474" y="111" on="1"/>
        <pt x="494" y="200" on="1"/>
        <pt x="533" y="200" on="1"/>
        <pt x="560" y="42" on="1"/>
        <pt x="560" y="22" on="0"/>
        <pt x="542" y="3" on="0"/>
        <pt x="521" y="0" on="0"/>
      </contour>
      <contour>
        <pt x="345" y="759" on="0"/>
        <pt x="285" y="759" on="0"/>
        <pt x="257" y="797" on="1"/>
        <pt x="149" y="941" on="1"/>
        <pt x="170" y="965" on="1"/>
        <pt x="311" y="870" on="1"/>
        <pt x="319" y="870" on="1"/>
        <pt x="460" y="965" on="1"/>
        <pt x="481" y="941" on="1"/>
        <pt x="373" y="797" on="1"/>
      </contour>
    </TTGlyph>
    <TTGlyph name="Zdotaccent" xMin="30" yMin="0" xMax="560" yMax="950">
      <contour>
        <pt x="499" y="0" on="1"/>
        <pt x="30" y="0" on="1"/>
        <pt x="30" y="40" on="1"/>
        <pt x="393" y="660" on="1"/>
        <pt x="260" y="660" on="1"/>
        <pt x="194" y="660" on="0"/>
        <pt x="145" y="634" on="0"/>
        <pt x="136" y="589" on="1"/>
        <pt x="116" y="490" on="1"/>
        <pt x="77" y="490" on="1"/>
        <pt x="50" y="658" on="1"/>
        <pt x="50" y="678" on="0"/>
        <pt x="68" y="697" on="0"/>
        <pt x="89" y="700" on="0"/>
        <pt x="111" y="700" on="1"/>
        <pt x="555" y="700" on="1"/>
        <pt x="555" y="660" on="1"/>
        <pt x="199" y="40" on="1"/>
        <pt x="350" y="40" on="1"/>
        <pt x="415" y="40" on="0"/>
        <pt x="464" y="66" on="0"/>
        <pt x="474" y="111" on="1"/>
        <pt x="494" y="200" on="1"/>
        <pt x="533" y="200" on="1"/>
        <pt x="560" y="42" on="1"/>
        <pt x="560" y="22" on="0"/>
        <pt x="542" y="3" on="0"/>
        <pt x="521" y="0" on="0"/>
      </contour>
      <contour>
        <pt x="245" y="837" on="0"/>
        <pt x="245" y="903" on="0"/>
        <pt x="292" y="950" on="0"/>
        <pt x="358" y="950" on="0"/>
        <pt x="405" y="903" on="0"/>
        <pt x="405" y="837" on="0"/>
        <pt x="358" y="790" on="0"/>
        <pt x="292" y="790" on="0"/>
      </contour>
    </TTGlyph>
    <TTGlyph name="a" xMin="65" yMin="-15" xMax="730" yMax="515">
      <contour>
        <pt x="597" y="500" on="1"/>
        <pt x="597" y="111" on="1"/>
        <pt x="597" y="84" on="0"/>
        <pt x="623" y="53" on="0"/>
        <pt x="677" y="53" on="0"/>
        <pt x="712" y="82" on="1"/>
        <pt x="730" y="58" on="1"/>
        <pt x="650" y="-15" on="0"/>
        <pt x="570" y="-15" on="1"/>
        <pt x="475" y="-15" on="0"/>
        <pt x="453" y="74" on="1"/>
        <pt x="401" y="-15" on="0"/>
        <pt x="300" y="-15" on="1"/>
        <pt x="185" y="-15" on="0"/>
        <pt x="65" y="134" on="0"/>
        <pt x="65" y="365" on="0"/>
        <pt x="194" y="515" on="0"/>
        <pt x="310" y="515" on="1"/>
        <pt x="399" y="515" on="0"/>
        <pt x="447" y="444" on="1"/>
        <pt x="447" y="500" on="1"/>
      </contour>
      <contour>
        <pt x="220" y="346" on="0"/>
        <pt x="220" y="154" on="0"/>
        <pt x="276" y="42" on="0"/>
        <pt x="391" y="42" on="0"/>
        <pt x="452" y="155" on="0"/>
        <pt x="452" y="345" on="0"/>
        <pt x="391" y="458" on="0"/>
        <pt x="276" y="458" on="0"/>
      </contour>
    </TTGlyph>
    <TTGlyph name="aacute" xMin="50" yMin="-15" xMax="715" yMax="765">
      <contour>
        <pt x="582" y="500" on="1"/>
        <pt x="582" y="111" on="1"/>
        <pt x="582" y="84" on="0"/>
        <pt x="608" y="53" on="0"/>
        <pt x="662" y="53" on="0"/>
        <pt x="697" y="82" on="1"/>
        <pt x="715" y="58" on="1"/>
        <pt x="635" y="-15" on="0"/>
        <pt x="555" y="-15" on="1"/>
        <pt x="460" y="-15" on="0"/>
        <pt x="438" y="74" on="1"/>
        <pt x="386" y="-15" on="0"/>
        <pt x="285" y="-15" on="1"/>
        <pt x="170" y="-15" on="0"/>
        <pt x="50" y="134" on="0"/>
        <pt x="50" y="365" on="0"/>
        <pt x="179" y="515" on="0"/>
        <pt x="295" y="515" on="1"/>
        <pt x="384" y="515" on="0"/>
        <pt x="432" y="444" on="1"/>
        <pt x="432" y="500" on="1"/>
      </contour>
      <contour>
        <pt x="205" y="346" on="0"/>
        <pt x="205" y="154" on="0"/>
        <pt x="261" y="42" on="0"/>
        <pt x="376" y="42" on="0"/>
        <pt x="437" y="155" on="0"/>
        <pt x="437" y="345" on="0"/>
        <pt x="376" y="458" on="0"/>
        <pt x="261" y="458" on="0"/>
      </contour>
      <contour>
        <pt x="412" y="751" on="0"/>
        <pt x="439" y="765" on="0"/>
        <pt x="478" y="765" on="0"/>
        <pt x="511" y="736" on="0"/>
        <pt x="511" y="690" on="0"/>
        <pt x="475" y="655" on="0"/>
        <pt x="428" y="632" on="1"/>
        <pt x="280" y="559" on="1"/>
        <pt x="259" y="583" on="1"/>
        <pt x="378" y="715" on="1"/>
        <pt x="395" y="734" on="0"/>
      </contour>
    </TTGlyph>
    <TTGlyph name="abreve" xMin="65" yMin="-15" xMax="730" yMax="760">
      <contour>
        <pt x="597" y="500" on="1"/>
        <pt x="597" y="111" on="1"/>
        <pt x="597" y="84" on="0"/>
        <pt x="623" y="53" on="0"/>
        <pt x="677" y="53" on="0"/>
        <pt x="712" y="82" on="1"/>
        <pt x="730" y="58" on="1"/>
        <pt x="650" y="-15" on="0"/>
        <pt x="570" y="-15" on="1"/>
        <pt x="475" y="-15" on="0"/>
        <pt x="453" y="74" on="1"/>
        <pt x="401" y="-15" on="0"/>
        <pt x="300" y="-15" on="1"/>
        <pt x="185" y="-15" on="0"/>
        <pt x="65" y="134" on="0"/>
        <pt x="65" y="365" on="0"/>
        <pt x="194" y="515" on="0"/>
        <pt x="310" y="515" on="1"/>
        <pt x="399" y="515" on="0"/>
        <pt x="447" y="444" on="1"/>
        <pt x="447" y="500" on="1"/>
      </contour>
      <contour>
        <pt x="220" y="346" on="0"/>
        <pt x="220" y="154" on="0"/>
        <pt x="276" y="42" on="0"/>
        <pt x="391" y="42" on="0"/>
        <pt x="452" y="155" on="0"/>
        <pt x="452" y="345" on="0"/>
        <pt x="391" y="458" on="0"/>
        <pt x="276" y="458" on="0"/>
      </contour>
      <contour>
        <pt x="315" y="678" on="1"/>
        <pt x="334" y="670" on="0"/>
        <pt x="381" y="670" on="0"/>
        <pt x="434" y="706" on="0"/>
        <pt x="458" y="735" on="0"/>
        <pt x="476" y="760" on="1"/>
        <pt x="521" y="731" on="1"/>
        <pt x="471" y="640" on="0"/>
        <pt x="397" y="569" on="0"/>
        <pt x="313" y="569" on="0"/>
        <pt x="239" y="640" on="0"/>
        <pt x="189" y="731" on="1"/>
        <pt x="233" y="760" on="1"/>
        <pt x="282" y="693" on="0"/>
      </contour>
    </TTGlyph>
    <TTGlyph name="acircumflex" xMin="65" yMin="-15" xMax="730" yMax="765">
      <contour>
        <pt x="597" y="500" on="1"/>
        <pt x="597" y="111" on="1"/>
        <pt x="597" y="84" on="0"/>
        <pt x="623" y="53" on="0"/>
        <pt x="677" y="53" on="0"/>
        <pt x="712" y="82" on="1"/>
        <pt x="730" y="58" on="1"/>
        <pt x="650" y="-15" on="0"/>
        <pt x="570" y="-15" on="1"/>
        <pt x="475" y="-15" on="0"/>
        <pt x="453" y="74" on="1"/>
        <pt x="401" y="-15" on="0"/>
        <pt x="300" y="-15" on="1"/>
        <pt x="185" y="-15" on="0"/>
        <pt x="65" y="134" on="0"/>
        <pt x="65" y="365" on="0"/>
        <pt x="194" y="515" on="0"/>
        <pt x="310" y="515" on="1"/>
        <pt x="399" y="515" on="0"/>
        <pt x="447" y="444" on="1"/>
        <pt x="447" y="500" on="1"/>
      </contour>
      <contour>
        <pt x="220" y="346" on="0"/>
        <pt x="220" y="154" on="0"/>
        <pt x="276" y="42" on="0"/>
        <pt x="391" y="42" on="0"/>
        <pt x="452" y="155" on="0"/>
        <pt x="452" y="345" on="0"/>
        <pt x="391" y="458" on="0"/>
        <pt x="276" y="458" on="0"/>
      </contour>
      <contour>
        <pt x="305" y="765" on="0"/>
        <pt x="365" y="765" on="0"/>
        <pt x="393" y="727" on="1"/>
        <pt x="501" y="583" on="1"/>
        <pt x="480" y="559" on="1"/>
        <pt x="339" y="654" on="1"/>
        <pt x="331" y="654" on="1"/>
        <pt x="190" y="559" on="1"/>
        <pt x="169" y="583" on="1"/>
        <pt x="277" y="727" on="1"/>
      </contour>
    </TTGlyph>
    <TTGlyph name="acute" xMin="92" yMin="559" xMax="344" yMax="765">
      <contour>
        <pt x="245" y="751" on="0"/>
        <pt x="272" y="765" on="0"/>
        <pt x="311" y="765" on="0"/>
        <pt x="344" y="736" on="0"/>
        <pt x="344" y="690" on="0"/>
        <pt x="308" y="655" on="0"/>
        <pt x="261" y="632" on="1"/>
        <pt x="113" y="559" on="1"/>
        <pt x="92" y="583" on="1"/>
        <pt x="211" y="715" on="1"/>
        <pt x="228" y="734" on="0"/>
      </contour>
    </TTGlyph>
    <TTGlyph name="acute.case" xMin="92" yMin="759" xMax="344" yMax="965">
      <contour>
        <pt x="245" y="951" on="0"/>
        <pt x="272" y="965" on="0"/>
        <pt x="311" y="965" on="0"/>
        <pt x="344" y="936" on="0"/>
        <pt x="344" y="890" on="0"/>
        <pt x="308" y="855" on="0"/>
        <pt x="261" y="832" on="1"/>
        <pt x="113" y="759" on="1"/>
        <pt x="92" y="783" on="1"/>
        <pt x="211" y="915" on="1"/>
        <pt x="228" y="934" on="0"/>
      </contour>
    </TTGlyph>
    <TTGlyph name="adieresis" xMin="50" yMin="-15" xMax="715" yMax="746">
      <contour>
        <pt x="582" y="500" on="1"/>
        <pt x="582" y="111" on="1"/>
        <pt x="582" y="84" on="0"/>
        <pt x="608" y="53" on="0"/>
        <pt x="662" y="53" on="0"/>
        <pt x="697" y="82" on="1"/>
        <pt x="715" y="58" on="1"/>
        <pt x="635" y="-15" on="0"/>
        <pt x="555" y="-15" on="1"/>
        <pt x="460" y="-15" on="0"/>
        <pt x="438" y="74" on="1"/>
        <pt x="386" y="-15" on="0"/>
        <pt x="285" y="-15" on="1"/>
        <pt x="170" y="-15" on="0"/>
        <pt x="50" y="134" on="0"/>
        <pt x="50" y="365" on="0"/>
        <pt x="179" y="515" on="0"/>
        <pt x="295" y="515" on="1"/>
        <pt x="384" y="515" on="0"/>
        <pt x="432" y="444" on="1"/>
        <pt x="432" y="500" on="1"/>
      </contour>
      <contour>
        <pt x="205" y="346" on="0"/>
        <pt x="205" y="154" on="0"/>
        <pt x="261" y="42" on="0"/>
        <pt x="376" y="42" on="0"/>
        <pt x="437" y="155" on="0"/>
        <pt x="437" y="345" on="0"/>
        <pt x="376" y="458" on="0"/>
        <pt x="261" y="458" on="0"/>
      </contour>
      <contour>
        <pt x="156" y="638" on="0"/>
        <pt x="156" y="702" on="0"/>
        <pt x="200" y="746" on="0"/>
        <pt x="264" y="746" on="0"/>
        <pt x="308" y="702" on="0"/>
        <pt x="308" y="638" on="0"/>
        <pt x="264" y="594" on="0"/>
        <pt x="200" y="594" on="0"/>
      </contour>
      <contour>
        <pt x="386" y="638" on="0"/>
        <pt x="386" y="702" on="0"/>
        <pt x="430" y="746" on="0"/>
        <pt x="494" y="746" on="0"/>
        <pt x="538" y="702" on="0"/>
        <pt x="538" y="638" on="0"/>
        <pt x="494" y="594" on="0"/>
        <pt x="430" y="594" on="0"/>
      </contour>
    </TTGlyph>
</ttFont>
